<svg width="27" height="20" viewBox="0 0 27 20" fill="none" xmlns="http://www.w3.org/2000/svg">
<path d="M7.40384 11.3526C7.30384 13.0526 8.60384 14.4526 10.3038 14.5526C12.0038 14.4526 13.3038 12.9526 13.2038 11.2526C13.3038 9.55264 12.0038 8.05264 10.3038 7.95264C8.60384 8.15264 7.30384 9.65264 7.40384 11.3526ZM11.1038 11.3526C11.1038 12.0526 10.7038 12.6526 10.2038 12.6526C9.70384 12.6526 9.30384 12.0526 9.30384 11.3526C9.30384 10.6526 9.80384 10.0526 10.3038 10.0526C10.8038 10.0526 11.1038 10.6526 11.1038 11.3526Z" fill="#999999"/>
<path d="M16.8038 8.05273C15.1038 8.15273 13.8038 9.65273 13.9038 11.3527C13.8038 13.0527 15.1038 14.4527 16.8038 14.6527C18.5038 14.5527 19.8038 13.0527 19.7038 11.3527C19.8038 9.65273 18.5038 8.15273 16.8038 8.05273ZM16.8038 12.5527C16.3038 12.5527 15.9038 11.9527 15.9038 11.2527C15.9038 10.5527 16.3038 9.95273 16.8038 9.95273C17.3038 9.95273 17.7038 10.5527 17.7038 11.2527C17.7038 11.9527 17.3038 12.5527 16.8038 12.5527Z" fill="#999999"/>
<path d="M24.2016 4.4526C24.1016 4.3526 24.1016 4.2526 24.1016 4.2526C22.4016 2.1526 20.0016 0.652596 17.3016 0.0525961C16.8016 -0.147404 16.2016 0.252596 16.1016 0.752596C16.0016 1.2526 16.3016 1.8526 16.8016 1.9526C16.8016 1.9526 16.8016 1.9526 16.9016 1.9526C19.1016 2.4526 21.1016 3.6526 22.5016 5.3526C23.8016 8.4526 24.6016 11.7526 24.6016 15.1526C23.2016 16.4526 21.5016 17.3526 19.6016 17.6526V17.2526C19.6016 17.2526 19.6016 17.2526 19.6016 17.1526C20.8016 16.6526 22.0016 16.0526 23.0016 15.1526C23.4016 14.8526 23.5016 14.1526 23.2016 13.7526C22.9016 13.3526 22.2016 13.2526 21.8016 13.5526C19.5016 15.3526 16.6016 16.2526 13.6016 16.1526C10.7016 16.2526 7.80156 15.3526 5.50156 13.5526C5.10156 13.2526 4.40156 13.2526 4.10156 13.7526C3.80156 14.2526 3.80156 14.8526 4.30156 15.1526C5.30156 15.9526 6.50156 16.6526 7.70156 17.1526V17.6526C5.80156 17.3526 4.10156 16.4526 2.70156 15.1526C2.70156 11.7526 3.40156 8.4526 4.80156 5.3526C6.10156 3.6526 8.10156 2.5526 10.3016 2.0526C10.8016 1.8526 11.1016 1.3526 11.0016 0.852596C10.9016 0.252596 10.4016 -0.0474039 9.80156 0.0525961C7.10156 0.652596 4.70156 2.0526 3.00156 4.2526V4.3526V4.4526C1.00156 8.4526 0.801563 12.0526 0.601562 15.5526C0.601562 15.8526 0.701563 16.1526 0.901563 16.3526C2.90156 18.4526 5.60156 19.6526 8.50156 19.9526C8.80156 19.9526 9.00156 19.8526 9.20156 19.6526C9.40156 19.4526 9.50156 19.2526 9.50156 18.9526V17.9526C12.1016 18.5526 14.9016 18.5526 17.5016 17.9526V18.9526C17.5016 19.2526 17.6016 19.4526 17.8016 19.6526C18.0016 19.8526 18.2016 19.9526 18.5016 19.9526C21.4016 19.7526 24.2016 18.5526 26.2016 16.4526C26.4016 16.2526 26.5016 15.9526 26.5016 15.6526C26.3016 12.0526 26.1016 8.4526 24.2016 4.4526Z" fill="#999999"/>
<path d="M21.0003 5.65262C21.3003 5.15262 21.1003 4.55262 20.6003 4.35262C18.4003 3.35262 16.0003 2.75262 13.5003 2.85262C11.1003 2.75262 8.60034 3.35262 6.40034 4.35262C6.00034 4.55262 5.80034 5.15262 6.00034 5.65262C6.30034 6.15262 6.90034 6.25262 7.40034 6.05262C9.30034 5.15262 11.4003 4.75262 13.5003 4.75262C15.6003 4.75262 17.8003 5.15262 19.7003 6.05262C19.8003 6.15262 20.0003 6.15262 20.2003 6.15262C20.5003 6.15262 20.8003 5.95262 21.0003 5.65262Z" fill="#999999"/>
</svg>
