<svg width="21" height="20" viewBox="0 0 21 20" fill="none" xmlns="http://www.w3.org/2000/svg">
<path d="M16.8016 0H4.40156C2.30156 0 0.601562 1.7 0.601562 3.8V16.1C0.601562 18.3 2.30156 20 4.40156 20H10.6016C11.0016 20 11.4016 19.7 11.4016 19.2V13C11.4016 12.6 11.1016 12.2 10.6016 12.2H9.80156V10.7H10.6016C11.0016 10.7 11.4016 10.4 11.4016 9.9V7.3C11.4016 6.2 12.3016 5.4 13.3016 5.4H15.2016V6.9H14.4016C13.6016 6.9 12.9016 7.6 12.9016 8.4V10C12.9016 10.4 13.2016 10.8 13.7016 10.8H15.0016L14.6016 12.3H13.7016C13.3016 12.3 12.9016 12.6 12.9016 13.1V16.2C12.9016 16.6 13.2016 17 13.7016 17C14.1016 17 14.5016 16.7 14.5016 16.2V13.9H15.3016C15.7016 13.9 16.0016 13.7 16.1016 13.3L16.9016 10.2C17.0016 10 16.9016 9.7 16.8016 9.5C16.6016 9.3 16.4016 9.2 16.2016 9.2H14.7016V8.5H16.2016C16.6016 8.5 17.0016 8.2 17.0016 7.7V4.6C17.0016 4.2 16.7016 3.8 16.2016 3.8H13.5016C11.6016 3.8 10.0016 5.4 10.0016 7.3V9.2H9.10156C8.60156 9.2 8.30156 9.6 8.30156 10V13.1C8.30156 13.5 8.60156 13.9 9.10156 13.9H9.90156V18.5H4.40156C3.10156 18.5 2.10156 17.5 2.10156 16.2V3.8C2.10156 2.5 3.10156 1.5 4.40156 1.5H16.7016C18.0016 1.5 19.0016 2.5 19.0016 3.8V16.1C19.0016 17.4 18.0016 18.4 16.7016 18.4H13.6016C13.2016 18.4 12.8016 18.7 12.8016 19.2C12.8016 19.6 13.1016 20 13.6016 20H16.7016C18.8016 20 20.5016 18.3 20.5016 16.2V3.8C20.6016 1.7 18.9016 0 16.8016 0Z" fill="#999999"/>
</svg>
