<svg width="21" height="21" viewBox="0 0 21 21" fill="none" xmlns="http://www.w3.org/2000/svg">
<path d="M14.2006 7.8249C13.8006 8.0249 13.6006 8.4249 13.7006 8.8249C14.3006 10.5249 13.5006 12.3249 11.8006 13.0249C10.1006 13.6249 8.30057 12.8249 7.60057 11.1249C6.90057 9.4249 7.80057 7.7249 9.50057 7.0249C10.2006 6.7249 11.1006 6.7249 11.8006 7.0249C12.2006 7.2249 12.7006 6.9249 12.8006 6.5249C13.0006 6.1249 12.7006 5.6249 12.3006 5.5249C9.80057 4.5249 7.00057 5.8249 6.00057 8.3249C5.30057 10.1249 5.80057 12.1249 7.10057 13.5249C9.00057 15.4249 12.1006 15.4249 14.0006 13.5249C15.4006 12.1249 15.8006 10.1249 15.1006 8.3249C15.1006 7.9249 14.6006 7.7249 14.2006 7.8249Z" fill="#999999"/>
<path d="M16.1984 5.1249C16.6403 5.1249 16.9984 4.76673 16.9984 4.3249C16.9984 3.88307 16.6403 3.5249 16.1984 3.5249C15.7566 3.5249 15.3984 3.88307 15.3984 4.3249C15.3984 4.76673 15.7566 5.1249 16.1984 5.1249Z" fill="#999999"/>
<path d="M20.2992 4.325C20.2992 2.125 18.4992 0.325 16.2992 0.225C12.4992 -0.075 8.69922 -0.075 4.89922 0.225C2.69922 0.225 0.899219 2.025 0.799219 4.225C0.499219 8.025 0.499219 11.825 0.799219 15.625C0.799219 17.825 2.59922 19.625 4.79922 19.725C6.69922 19.925 8.59922 20.025 10.5992 20.025C12.5992 20.025 14.3992 19.925 16.2992 19.725C18.4992 19.725 20.2992 17.925 20.2992 15.725C20.5992 11.925 20.5992 8.125 20.2992 4.325ZM18.6992 15.725C18.6992 17.025 17.5992 18.125 16.2992 18.125H16.1992C12.4992 18.525 8.69922 18.525 4.89922 18.125C3.59922 18.125 2.49922 17.025 2.49922 15.725C2.49922 15.725 2.49922 15.725 2.49922 15.625C2.19922 11.825 2.19922 8.125 2.49922 4.325C2.49922 3.025 3.59922 1.925 4.89922 1.925C4.89922 1.925 4.89922 1.925 4.99922 1.925C6.89922 1.725 8.69922 1.625 10.5992 1.625C12.4992 1.625 14.3992 1.725 16.2992 1.925C17.5992 1.925 18.6992 3.025 18.6992 4.325C18.6992 4.325 18.6992 4.325 18.6992 4.425C18.9992 8.125 18.9992 11.925 18.6992 15.725Z" fill="#999999"/>
</svg>
