<svg width="21" height="20" viewBox="0 0 21 20" fill="none" xmlns="http://www.w3.org/2000/svg">
<path d="M3.30156 0C1.80156 0 0.601562 1.2 0.601562 2.7C0.601562 4.2 1.80156 5.4 3.30156 5.4C4.80156 5.4 6.00156 4.2 6.00156 2.7C6.00156 1.2 4.80156 0 3.30156 0ZM3.30156 3.8C2.70156 3.8 2.10156 3.3 2.10156 2.6C2.10156 1.9 2.60156 1.4 3.30156 1.4C4.00156 1.4 4.50156 1.9 4.50156 2.6C4.50156 3.3 3.90156 3.8 3.30156 3.8Z" fill="#999999"/>
<path d="M5.20156 6.2002H1.40156C0.901563 6.2002 0.601562 6.5002 0.601562 6.9002C0.601562 7.3002 0.901563 7.7002 1.40156 7.7002H4.50156V18.5002H2.10156V10.0002C2.10156 9.6002 1.80156 9.2002 1.30156 9.2002C0.801562 9.2002 0.601562 9.6002 0.601562 10.0002V19.2002C0.601562 19.7002 0.901563 20.0002 1.40156 20.0002H5.20156C5.60156 20.0002 6.00156 19.7002 6.00156 19.2002V6.9002C6.00156 6.5002 5.60156 6.2002 5.20156 6.2002Z" fill="#999999"/>
<path d="M19.3031 7.4001C18.4031 6.5001 17.2031 6.1001 16.0031 6.1001H15.2031C14.1031 6.1001 13.1031 6.3001 12.1031 6.8001C12.1031 6.4001 11.7031 6.1001 11.3031 6.1001H7.50313C7.10313 6.1001 6.70312 6.4001 6.70312 6.9001V19.2001C6.70312 19.6001 7.00313 20.0001 7.50313 20.0001H11.3031C11.7031 20.0001 12.1031 19.7001 12.1031 19.2001V12.3001C12.1031 11.5001 12.8031 10.8001 13.6031 10.8001C14.4031 10.8001 15.1031 11.5001 15.1031 12.3001V19.2001C15.1031 19.6001 15.4031 20.0001 15.9031 20.0001H19.7031C20.1031 20.0001 20.5031 19.7001 20.5031 19.2001V10.7001C20.6031 9.5001 20.2031 8.3001 19.3031 7.4001ZM19.1031 18.5001H16.8031V12.3001C16.8031 10.6001 15.4031 9.2001 13.7031 9.2001C12.0031 9.2001 10.6031 10.6001 10.6031 12.3001V18.5001H8.30312V7.7001H10.6031V8.5001C10.6031 8.8001 10.8031 9.1001 11.1031 9.2001C11.4031 9.3001 11.7031 9.3001 11.9031 9.0001C12.6031 8.2001 13.2031 7.7001 15.2031 7.7001H16.0031C16.8031 7.7001 17.6031 8.0001 18.2031 8.5001C18.8031 9.1001 19.1031 9.9001 19.0031 10.7001V18.5001H19.1031Z" fill="#999999"/>
</svg>
