<svg width="30" height="16" viewBox="0 0 30 16" fill="none" xmlns="http://www.w3.org/2000/svg">
<path d="M27.6016 13.9001C27.2016 13.5001 26.6016 11.6001 26.6016 8.0001C26.6016 4.4001 27.2016 2.4001 27.5016 2.1001C27.9016 2.5001 28.4016 4.6001 28.4016 8.0001C28.5016 11.6001 27.9016 13.5001 27.6016 13.9001Z" stroke="#999999" stroke-width="2" stroke-miterlimit="10" stroke-linecap="round" stroke-linejoin="round"/>
<path d="M21.1008 14.5999C19.3008 14.5999 17.8008 11.5999 17.8008 7.9999C17.8008 5.4999 18.5008 3.1999 19.6008 2.0999C20.1008 1.5999 20.6008 1.3999 21.1008 1.3999C21.9008 1.3999 22.8008 2.0999 23.4008 3.1999C24.1008 4.4999 24.5008 6.1999 24.5008 7.9999C24.5008 11.5999 22.9008 14.5999 21.1008 14.5999Z" stroke="#999999" stroke-width="2" stroke-miterlimit="10" stroke-linecap="round" stroke-linejoin="round"/>
<path d="M8.50156 15C4.70156 15 1.60156 11.9 1.60156 8C1.60156 6.1 2.30156 4.4 3.60156 3C4.90156 1.7 6.70156 1 8.50156 1C10.4016 1 12.1016 1.7 13.4016 3.1C14.7016 4.4 15.4016 6.2 15.4016 8.1C15.5016 11.9 12.3016 15 8.50156 15Z" stroke="#999999" stroke-width="2" stroke-miterlimit="10" stroke-linecap="round" stroke-linejoin="round"/>
</svg>
