<svg width="18" height="20" viewBox="0 0 18 20" fill="none" xmlns="http://www.w3.org/2000/svg">
<g clip-path="url(#clip0_6_56)">
<path d="M14.04 6.22C15.4815 6.22 16.65 5.05146 16.65 3.61C16.65 2.16854 15.4815 1 14.04 1C12.5985 1 11.43 2.16854 11.43 3.61C11.43 5.05146 12.5985 6.22 14.04 6.22Z" stroke="#999999" stroke-width="2" stroke-linecap="round" stroke-linejoin="round"/>
<path d="M3.61 12.3C5.05146 12.3 6.22 11.1315 6.22 9.69002C6.22 8.24855 5.05146 7.08002 3.61 7.08002C2.16854 7.08002 1 8.24855 1 9.69002C1 11.1315 2.16854 12.3 3.61 12.3Z" stroke="#999999" stroke-width="2" stroke-linecap="round" stroke-linejoin="round"/>
<path d="M14.04 18.39C15.4815 18.39 16.65 17.2215 16.65 15.78C16.65 14.3385 15.4815 13.17 14.04 13.17C12.5985 13.17 11.43 14.3385 11.43 15.78C11.43 17.2215 12.5985 18.39 14.04 18.39Z" stroke="#999999" stroke-width="2" stroke-linecap="round" stroke-linejoin="round"/>
<path d="M5.85999 11.01L11.8 14.47" stroke="#999999" stroke-width="2" stroke-linecap="round" stroke-linejoin="round"/>
<path d="M11.79 4.92004L5.85999 8.38004" stroke="#999999" stroke-width="2" stroke-linecap="round" stroke-linejoin="round"/>
</g>
<defs>
<clipPath id="clip0_6_56">
<rect width="17.65" height="19.39" fill="white"/>
</clipPath>
</defs>
</svg>
