<svg width="24" height="20" viewBox="0 0 24 20" fill="none" xmlns="http://www.w3.org/2000/svg">
<path d="M22.7585 0.444444C22.2585 0.0444444 21.4585 -0.155556 20.8585 0.144444L1.55848 7.94444C0.758484 8.24444 0.358484 9.14444 0.758484 9.94444C0.958484 10.3444 1.25848 10.6444 1.55848 10.7444L2.75848 11.2444C3.15848 11.4444 3.65848 11.2444 3.85848 10.8444C4.05848 10.4444 3.85848 9.94444 3.35848 9.74444L2.55848 9.34444L21.4585 1.74444C21.5585 1.74444 21.5585 1.74444 21.6585 1.74444C21.7585 1.74444 21.7585 1.84444 21.7585 1.94444L18.3585 18.0444C18.3585 18.1444 18.2585 18.2444 18.1585 18.3444C18.0585 18.3444 17.9585 18.3444 17.8585 18.2444L11.0585 13.0444L17.6585 6.34444C17.9585 6.04444 17.9585 5.44444 17.6585 5.14444C17.3585 4.84444 16.9585 4.84444 16.6585 5.04444L6.95848 10.7444C6.55848 10.9444 6.35848 11.4444 6.55848 11.8444C6.75848 12.2444 7.25848 12.4444 7.65848 12.2444C7.75848 12.2444 7.75848 12.1444 7.75848 12.1444L11.8585 9.74444L9.85848 11.7444C9.15848 12.3444 9.15848 13.4444 9.75848 14.1444C9.85849 14.2444 9.95848 14.2444 9.95848 14.3444L16.6585 19.5444C17.0585 19.8444 17.4585 19.9444 17.8585 19.9444C18.0585 19.9444 18.3585 19.9444 18.5585 19.8444C19.2585 19.6444 19.6585 19.0444 19.8585 18.3444L23.2585 2.24444C23.5585 1.64444 23.3585 0.944444 22.7585 0.444444Z" fill="#999999"/>
</svg>
