<svg width="20" height="18" viewBox="0 0 20 18" fill="none" xmlns="http://www.w3.org/2000/svg">
<path d="M3.17 4.77C2.3 4.77 1.58 4.06 1.58 3.18C1.58 2.3 2.3 1.59 3.17 1.59H15.86V3.18H17.45V0H3.17C1.42 0 0 1.43 0 3.17V13.48C0 15.7 1.75 17.45 3.97 17.45H19.04V4.77H3.17ZM17.45 15.87H3.96C2.61 15.87 1.58 14.84 1.58 13.49V5.88C2.06 6.19 2.61 6.35 3.17 6.35H17.45V15.87ZM12.69 12.7C13.56 12.7 14.28 11.99 14.28 11.11C14.28 10.24 13.57 9.52 12.69 9.52C11.82 9.52 11.1 10.23 11.1 11.11C11.1 11.98 11.82 12.7 12.69 12.7Z" fill="white"/>
</svg>
