<svg width="36" height="35" viewBox="0 0 36 35" fill="none" xmlns="http://www.w3.org/2000/svg">
<g clip-path="url(#clip0_1864_9252)">
<path d="M31.6014 21.4055C32.0187 21.8825 32.2771 22.5185 32.2771 23.1942C32.2771 24.5258 31.3231 25.6388 30.0511 25.8575C30.1107 26.0165 30.1306 26.2152 30.1306 26.3941C30.1306 27.4077 29.3157 28.2226 28.3021 28.2226C28.2425 28.2226 28.2027 28.2226 28.1431 28.2226C28.2425 28.5009 28.3021 28.799 28.3021 29.117C28.3021 30.6076 27.0897 31.82 25.5991 31.82C25.2811 31.82 24.983 31.7604 24.7047 31.661C24.7047 31.7206 24.7047 31.7604 24.7047 31.82C24.7047 33.3106 23.4923 34.523 22.0017 34.523C21.5446 34.523 21.1073 34.4037 20.7297 34.205C20.3918 34.682 19.8552 34.9801 19.2391 34.9801C18.4441 34.9801 17.7882 34.4832 17.5298 33.7677C17.2714 34.4634 16.6156 34.9801 15.8206 34.9801C15.2044 34.9801 14.6479 34.682 14.3299 34.205C13.9523 34.4037 13.515 34.523 13.0579 34.523C11.5673 34.523 10.3549 33.3106 10.3549 31.82C10.3549 31.7604 10.3549 31.7206 10.3549 31.661C10.0767 31.7604 9.75866 31.82 9.46053 31.82C7.9699 31.82 6.75752 30.6076 6.75752 29.117C6.75752 28.799 6.81715 28.5009 6.91652 28.2226C6.8569 28.2226 6.81715 28.2226 6.75752 28.2226C5.7439 28.2226 4.92902 27.4077 4.92902 26.3941C4.92902 26.2152 4.94889 26.0363 5.00852 25.8575C3.73651 25.6388 2.78251 24.5457 2.78251 23.2141C2.78251 22.5185 3.04089 21.9023 3.45826 21.4253C1.51051 21.167 0 19.4974 0 17.4901C0 15.8007 1.05338 14.3498 2.56388 13.7933C2.28563 13.3759 2.12663 12.879 2.12663 12.3424C2.12663 10.8518 3.33901 9.63941 4.82964 9.63941C4.94889 9.63941 5.04827 9.63941 5.16752 9.65928C4.96877 9.34128 4.82964 8.98353 4.82964 8.58603C4.82964 7.5724 5.64452 6.75752 6.65815 6.75752C6.71777 6.75752 6.75752 6.75752 6.81715 6.75752C6.71777 6.49915 6.65815 6.20102 6.65815 5.88302C6.65815 4.39239 7.87053 3.18001 9.36116 3.18001C9.67916 3.18001 9.97729 3.23964 10.2555 3.33901C10.2555 3.27939 10.2555 3.23964 10.2555 3.18001C10.2555 1.68938 11.4679 0.477002 12.9585 0.477002C13.4157 0.477002 13.8529 0.596252 14.2306 0.795003C14.5684 0.318001 15.1051 0 15.7411 0C16.6553 0 17.4106 0.675752 17.5497 1.55026C17.6689 0.675752 18.4242 0 19.3384 0C19.9546 0 20.5111 0.298126 20.8291 0.775128C21.2067 0.576377 21.644 0.457127 22.1011 0.457127C23.5917 0.457127 24.8041 1.66951 24.8041 3.16014C24.8041 3.21976 24.8041 3.25951 24.8041 3.31914C25.0823 3.21976 25.3805 3.16014 25.6985 3.16014C27.1891 3.16014 28.4015 4.37252 28.4015 5.86315C28.4015 6.18115 28.3419 6.47927 28.2425 6.75752C28.3021 6.75752 28.3419 6.75752 28.4015 6.75752C29.4151 6.75752 30.23 7.5724 30.23 8.58603C30.23 8.98353 30.1107 9.34128 29.8921 9.63941C30.0114 9.61953 30.1107 9.61953 30.23 9.61953C31.7206 9.61953 32.933 10.8319 32.933 12.3225C32.933 12.8592 32.774 13.356 32.4957 13.7734C33.9864 14.3299 35.0596 15.7808 35.0596 17.4702C35.0596 19.4974 33.5491 21.167 31.6014 21.4055Z" fill="#9CC8ED"/>
<path d="M24.7246 29.1965C24.7842 29.1965 24.8637 29.2164 24.9233 29.2164C25.3208 29.3157 25.5991 29.6735 25.5792 30.0909L23.8103 30.0511C23.8302 29.6735 24.0687 29.3555 24.4066 29.2362C24.506 29.2164 24.6252 29.1965 24.7246 29.1965ZM23.8302 21.2266C24.2078 21.1272 24.4861 20.7893 24.4861 20.3719H22.7172C22.7172 20.7496 22.9756 21.0875 23.3135 21.2067C23.4128 21.2465 23.4923 21.2663 23.5917 21.2663C23.6712 21.2464 23.7507 21.2465 23.8302 21.2266ZM23.4923 12.72C23.87 12.6207 24.1482 12.2828 24.1482 11.8654H22.3793C22.3793 12.243 22.6377 12.5809 22.9756 12.7002C23.075 12.7399 23.1545 12.7598 23.2538 12.7598C23.3532 12.7399 23.4128 12.7399 23.4923 12.72ZM26.5332 10.5338C26.891 10.4344 27.1692 10.0965 27.1692 9.69903H25.4003C25.4003 10.0965 25.6786 10.4344 26.0363 10.5338C26.1158 10.5537 26.1953 10.5735 26.2748 10.5735C26.3742 10.5735 26.4537 10.5537 26.5332 10.5338ZM28.7195 17.6093C28.8387 17.9671 29.1567 18.2453 29.5542 18.2453V16.4764C29.1567 16.4764 28.8189 16.7348 28.7195 17.1124C28.6996 17.1919 28.6797 17.2714 28.6797 17.3708C28.6797 17.4503 28.6996 17.5298 28.7195 17.6093ZM23.4526 3.27939C23.7706 3.16014 24.0091 2.86201 24.029 2.48438L22.2601 2.42476C22.2402 2.86201 22.5383 3.21976 22.9358 3.31914C22.9955 3.33901 23.0551 3.33901 23.1147 3.33901C23.234 3.33901 23.3532 3.31914 23.4526 3.27939ZM17.5497 33.728C17.5497 33.7479 17.5298 33.7677 17.5298 33.7876C17.2714 34.4832 16.6156 35 15.8206 35C15.2044 35 14.6479 34.7019 14.3299 34.2249C13.9523 34.4236 13.515 34.5429 13.0579 34.5429C11.5673 34.5429 10.3549 33.3305 10.3549 31.8399C10.3549 31.7802 10.3549 31.7405 10.3549 31.6809C10.0767 31.7802 9.75866 31.8399 9.46053 31.8399C7.9699 31.8399 6.75752 30.6275 6.75752 29.1369C6.75752 28.8189 6.81715 28.5207 6.91652 28.2425C6.8569 28.2425 6.81715 28.2425 6.75752 28.2425C5.7439 28.2425 4.92902 27.4276 4.92902 26.414C4.92902 26.2351 4.94889 26.0562 5.00852 25.8773C3.73651 25.6388 2.78251 24.5457 2.78251 23.2141C2.78251 22.5185 3.04089 21.9023 3.45826 21.4253C1.51051 21.1669 0 19.4974 0 17.4901C0 15.8007 1.05338 14.3498 2.56388 13.7933C2.28563 13.3759 2.12663 12.879 2.12663 12.3424C2.12663 10.8518 3.33901 9.63941 4.82964 9.63941C4.94889 9.63941 5.04827 9.63941 5.16752 9.65928C4.96877 9.34128 4.82964 8.98353 4.82964 8.58603C4.82964 7.5724 5.64452 6.75752 6.65815 6.75752C6.71777 6.75752 6.75752 6.75752 6.81715 6.75752C6.71777 6.49915 6.65815 6.20102 6.65815 5.88302C6.65815 4.39239 7.87053 3.18001 9.36116 3.18001C9.67916 3.18001 9.97729 3.23964 10.2555 3.33901C10.2555 3.27939 10.2555 3.23964 10.2555 3.18001C10.2555 1.68938 11.4679 0.477002 12.9585 0.477002C13.4157 0.477002 13.8529 0.596252 14.2306 0.795003C14.5684 0.298126 15.1051 0 15.7411 0C16.6553 0 17.4106 0.675752 17.5497 1.55026C17.5696 1.64963 17.5696 1.72913 17.5696 1.82851V7.8904V8.40716V14.7672V15.2839V17.1323V17.6491V23.2936V23.8103V26.255H17.5099H10.3947C10.2555 26.255 10.1363 26.3742 10.1363 26.5133V29.276C9.73878 29.3754 9.46053 29.7331 9.48041 30.1505C9.50028 30.6474 9.89779 31.025 10.3947 31.0051C10.8915 30.9852 11.2692 30.5877 11.2493 30.0909C11.2294 29.7132 10.9909 29.3952 10.653 29.276V26.7518H17.5099H17.5497V33.728ZM17.5497 23.2538H17.5099H11.7462V21.2067C12.084 21.0875 12.3424 20.7694 12.3424 20.3719C12.3424 19.8751 11.9449 19.4974 11.4679 19.4974C10.971 19.4974 10.5934 19.8949 10.5934 20.3719C10.5934 20.7893 10.8717 21.1272 11.2493 21.2266V23.5122C11.2493 23.6513 11.3685 23.7706 11.5077 23.7706H17.5298H17.5696V23.2538H17.5497ZM11.0307 2.48438C11.0505 2.86201 11.289 3.16014 11.607 3.27939V8.14878C11.607 8.2879 11.7263 8.40716 11.8654 8.40716H17.5099H17.5497V7.8904H17.5099H12.1238V3.31914C12.5213 3.21976 12.8194 2.86201 12.7995 2.42476C12.7797 1.92788 12.3623 1.55026 11.8853 1.57013C11.3884 1.59001 11.0108 2.00738 11.0307 2.48438ZM10.9114 11.8654C10.9114 12.2828 11.1897 12.6207 11.5673 12.72V15.0057C11.5673 15.1448 11.6865 15.2641 11.8257 15.2641H17.5099H17.5497V14.7473H17.5099H12.084V12.7002C12.4219 12.5809 12.6803 12.2629 12.6803 11.8654C12.6803 11.3685 12.2828 10.9909 11.8058 10.9909C11.3089 10.9909 10.9114 11.3884 10.9114 11.8654ZM17.5099 17.6093H17.5497V17.1124H17.5099H9.02328V10.5735C9.02328 10.5537 9.02328 10.5537 9.02328 10.5338C9.38103 10.4344 9.65928 10.0965 9.65928 9.69903C9.65928 9.20216 9.26178 8.82453 8.78478 8.82453C8.2879 8.82453 7.91028 9.22203 7.91028 9.69903C7.91028 10.0965 8.16865 10.4344 8.54628 10.5338C8.54628 10.5537 8.54628 10.5537 8.54628 10.5735V17.1124H6.36002C6.2209 16.7348 5.9029 16.4764 5.50539 16.4764C5.00852 16.4764 4.63089 16.8739 4.63089 17.3509C4.63089 17.8478 5.02839 18.2254 5.50539 18.2254C5.9029 18.2254 6.24077 17.9671 6.34015 17.5894H8.76491H17.5099V17.6093Z" fill="#9CC8ED"/>
<path d="M31.6018 21.4055C32.0192 21.8825 32.2776 22.5185 32.2776 23.1942C32.2776 24.5258 31.3236 25.6388 30.0516 25.8575C30.1112 26.0165 30.1311 26.2152 30.1311 26.3941C30.1311 27.4077 29.3162 28.2226 28.3026 28.2226C28.2429 28.2226 28.2032 28.2226 28.1436 28.2226C28.2429 28.5009 28.3026 28.799 28.3026 29.117C28.3026 30.6076 27.0902 31.82 25.5996 31.82C25.2816 31.82 24.9834 31.7604 24.7052 31.661C24.7052 31.7206 24.7052 31.7604 24.7052 31.82C24.7052 33.3106 23.4928 34.523 22.0022 34.523C21.545 34.523 21.1078 34.4037 20.7302 34.205C20.3923 34.682 19.8557 34.9801 19.2395 34.9801C18.4445 34.9801 17.7887 34.4832 17.5303 33.7677C17.5303 33.7479 17.5502 33.728 17.5502 33.7081V26.6922H24.4071V29.2164C24.0692 29.3356 23.8307 29.6536 23.8108 30.0312C23.7909 30.5281 24.1884 30.9256 24.6654 30.9455C25.1424 30.9654 25.5598 30.5679 25.5797 30.0909C25.5996 29.6735 25.3014 29.3157 24.9238 29.2164V26.4537C24.9238 26.3146 24.8046 26.1953 24.6654 26.1953H17.5502V23.7507H23.5723C23.7114 23.7507 23.8307 23.6315 23.8307 23.4923V21.2067C24.2083 21.1073 24.4866 20.7694 24.4866 20.3521C24.4866 19.8552 24.0891 19.4776 23.6121 19.4776C23.135 19.4776 22.7375 19.8751 22.7375 20.3521C22.7375 20.7297 22.9959 21.0676 23.3338 21.1868V23.234H17.57V17.6093H26.2952H28.7199C28.8392 17.9671 29.1572 18.2453 29.5547 18.2453C30.0516 18.2453 30.4292 17.8478 30.4292 17.3708C30.4292 16.8938 30.0317 16.4963 29.5547 16.4963C29.1572 16.4963 28.8193 16.7547 28.7199 17.1323H26.5337V10.5735C26.5337 10.5537 26.5337 10.5537 26.5337 10.5338C26.8914 10.4344 27.1697 10.0965 27.1697 9.69903C27.1697 9.20216 26.7722 8.82453 26.2952 8.82453C25.8182 8.82453 25.4207 9.22203 25.4207 9.69903C25.4207 10.0965 25.6989 10.4344 26.0567 10.5338C26.0567 10.5537 26.0567 10.5537 26.0567 10.5735V17.1124H17.5502V15.2641H23.2344C23.3735 15.2641 23.4928 15.1448 23.4928 15.0057V12.72C23.8704 12.6207 24.1487 12.2828 24.1487 11.8654C24.1487 11.3685 23.7512 10.9909 23.2742 10.9909C22.7972 10.9909 22.3997 11.3884 22.3997 11.8654C22.3997 12.243 22.658 12.5809 22.9959 12.7002V14.7473H17.5502V8.38728H23.1947C23.3338 8.38728 23.4531 8.26803 23.4531 8.1289V3.27939C23.7711 3.16014 24.0096 2.86201 24.0294 2.48438C24.0493 1.98751 23.6717 1.59001 23.1748 1.57013C22.6978 1.55026 22.2804 1.92788 22.2605 2.42476C22.2407 2.86201 22.5388 3.21976 22.9363 3.31914V7.8904H17.5502V1.82851C17.5502 1.72913 17.5502 1.64963 17.5303 1.55026C17.6694 0.675752 18.4247 0 19.3389 0C19.955 0 20.5115 0.298126 20.8295 0.775128C21.2072 0.576377 21.6444 0.457127 22.1015 0.457127C23.5922 0.457127 24.8046 1.66951 24.8046 3.16014C24.8046 3.21976 24.8046 3.25951 24.8046 3.31914C25.0828 3.21976 25.3809 3.16014 25.6989 3.16014C27.1896 3.16014 28.4019 4.37252 28.4019 5.86315C28.4019 6.18115 28.3423 6.47927 28.2429 6.75752C28.3026 6.75752 28.3423 6.75752 28.4019 6.75752C29.4156 6.75752 30.2304 7.5724 30.2304 8.58603C30.2304 8.98353 30.1112 9.34128 29.8926 9.63941C30.0118 9.61953 30.1112 9.61953 30.2304 9.61953C31.7211 9.61953 32.9335 10.8319 32.9335 12.3225C32.9335 12.8592 32.7745 13.356 32.4962 13.7734C33.9868 14.3299 35.0601 15.7808 35.0601 17.4702C35.0601 19.4974 33.5496 21.167 31.6018 21.4055ZM10.1368 29.2362C9.73925 29.3356 9.461 29.6934 9.48087 30.1107L11.2498 30.071C11.2299 29.6934 10.9914 29.3754 10.6535 29.2561C10.5541 29.2164 10.4548 29.1965 10.3355 29.1965C10.2759 29.1965 10.1964 29.2164 10.1368 29.2362ZM11.7466 21.2067C12.0845 21.0875 12.3429 20.7694 12.3429 20.3719H10.574C10.574 20.7893 10.8523 21.1272 11.2299 21.2266C11.3094 21.2465 11.369 21.2663 11.4485 21.2663C11.5678 21.2465 11.6671 21.2266 11.7466 21.2067ZM11.5678 12.72C11.6473 12.7399 11.7069 12.7598 11.7864 12.7598C11.8858 12.7598 11.9851 12.7399 12.0646 12.7002C12.4025 12.5809 12.6609 12.2629 12.6609 11.8654H10.892C10.9119 12.2828 11.1901 12.6207 11.5678 12.72ZM9.02375 10.5338C9.3815 10.4344 9.65975 10.0965 9.65975 9.69903H7.89087C7.89087 10.0965 8.14924 10.4344 8.52687 10.5338C8.60637 10.5537 8.68587 10.5735 8.76537 10.5735C8.86475 10.5735 8.94425 10.5537 9.02375 10.5338ZM6.34061 17.1124C6.22136 16.7348 5.90336 16.4764 5.50586 16.4764V18.2453C5.90336 18.2453 6.24124 17.9869 6.34061 17.6093C6.36049 17.5298 6.38036 17.4503 6.38036 17.3509C6.38036 17.2714 6.36049 17.1919 6.34061 17.1124ZM11.6075 3.27939C11.7069 3.31914 11.8261 3.33901 11.9454 3.33901C12.005 3.33901 12.0646 3.31914 12.1243 3.31914C12.5218 3.21976 12.8199 2.86201 12.8 2.42476L11.0311 2.48438C11.051 2.86201 11.2895 3.16014 11.6075 3.27939Z" fill="#0E3B65"/>
<path d="M17.55 8.40711V7.89036H22.9361V3.31909C22.9958 3.33897 23.0554 3.33897 23.115 3.33897C23.2343 3.33897 23.3535 3.31909 23.4529 3.27934V8.14873C23.4529 8.28786 23.3336 8.40711 23.1945 8.40711H17.55ZM26.295 17.6093H28.7198C28.6999 17.5298 28.68 17.4503 28.68 17.3509C28.68 17.2714 28.6999 17.172 28.7198 17.0925H26.5335V17.3509C26.5335 17.5099 26.4342 17.6093 26.295 17.6093ZM26.295 17.6093C26.1559 17.6093 26.0367 17.49 26.0367 17.3509V17.1124H17.55V17.6291H26.295V17.6093ZM24.4069 26.7319V29.2561C24.5063 29.2163 24.6056 29.1964 24.7249 29.1964C24.7845 29.1964 24.864 29.2163 24.9237 29.2163V26.4537C24.9237 26.3145 24.8044 26.1953 24.6653 26.1953H17.55V26.712H24.4069V26.7319ZM23.5721 23.7705C23.7113 23.7705 23.8305 23.6513 23.8305 23.5122V21.2265C23.751 21.2464 23.6914 21.2663 23.6119 21.2663C23.5125 21.2663 23.4131 21.2464 23.3336 21.2067V23.2538H17.5699V23.7705H23.5721ZM26.295 17.6093C26.4342 17.6093 26.5534 17.49 26.5534 17.3509V17.1124V10.5735C26.5534 10.5536 26.5534 10.5536 26.5534 10.5337C26.4739 10.5536 26.3944 10.5735 26.3149 10.5735C26.2354 10.5735 26.1559 10.5536 26.0764 10.5337C26.0764 10.5536 26.0764 10.5536 26.0764 10.5735V17.1124V17.3708C26.0367 17.5099 26.1559 17.6093 26.295 17.6093ZM24.6852 30.9653C25.1622 30.9852 25.5795 30.5877 25.5994 30.1107L23.8305 30.0709C23.8106 30.5479 24.1883 30.9454 24.6852 30.9653ZM23.592 19.4775C23.115 19.4775 22.7175 19.875 22.7175 20.352H24.4864C24.4864 19.875 24.0889 19.4775 23.592 19.4775ZM23.2343 15.264C23.3734 15.264 23.4926 15.1448 23.4926 15.0056V12.72C23.4131 12.7399 23.3535 12.7598 23.274 12.7598C23.1746 12.7598 23.0753 12.7399 22.9958 12.7001V14.7473H17.55V15.264H23.2343ZM23.274 10.9909C22.797 10.9909 22.3995 11.3884 22.3995 11.8654H24.1684C24.1485 11.3884 23.751 10.9909 23.274 10.9909ZM26.295 8.80461C25.818 8.80461 25.4205 9.20211 25.4205 9.67911H27.1894C27.1695 9.20211 26.772 8.80461 26.295 8.80461ZM30.4489 17.3509C30.4489 16.8739 30.0514 16.4764 29.5744 16.4764V18.2453C30.0514 18.2453 30.4489 17.8478 30.4489 17.3509ZM23.1945 1.57009C22.7175 1.55021 22.3001 1.92784 22.2803 2.42471L24.0491 2.50421C24.0491 2.00734 23.6715 1.58996 23.1945 1.57009ZM11.6074 3.27934V8.14873C11.6074 8.28786 11.7266 8.40711 11.8657 8.40711H17.5103H17.55V7.89036H17.5103H12.1241V3.31909C12.0645 3.31909 12.0049 3.33897 11.9452 3.33897C11.826 3.33897 11.7067 3.31909 11.6074 3.27934ZM8.52672 17.3509V17.1124H6.34046C6.36033 17.1919 6.38021 17.2714 6.38021 17.3509C6.38021 17.4304 6.36033 17.5298 6.34046 17.6093H8.76522C8.62609 17.6093 8.52672 17.5099 8.52672 17.3509ZM17.55 17.6093V17.1124H17.5103H9.02359V17.3708C9.02359 17.5099 8.90434 17.6291 8.76522 17.6291H17.4904H17.55V17.6093ZM10.395 26.2152C10.2558 26.2152 10.1366 26.3344 10.1366 26.4735V29.2362C10.1962 29.2163 10.2558 29.2163 10.3353 29.2163C10.4546 29.2163 10.554 29.2362 10.6533 29.2759V26.7518H17.5103H17.55V26.235H17.5103H10.395V26.2152ZM11.7465 23.2538V21.2067C11.6471 21.2464 11.5676 21.2663 11.4682 21.2663C11.3887 21.2663 11.3092 21.2464 11.2496 21.2265V23.5122C11.2496 23.6513 11.3689 23.7705 11.508 23.7705H17.5301H17.5699V23.2538H17.5103H11.7465ZM9.02359 17.3509V17.1124V10.5735C9.02359 10.5536 9.02359 10.5536 9.02359 10.5337C8.94409 10.5536 8.86459 10.5735 8.78509 10.5735C8.70559 10.5735 8.60622 10.5536 8.52672 10.5337C8.52672 10.5536 8.52672 10.5536 8.52672 10.5735V17.1124V17.3708C8.52672 17.5099 8.64597 17.6291 8.78509 17.6291C8.92422 17.6093 9.02359 17.5099 9.02359 17.3509ZM10.3751 30.9653C10.872 30.9454 11.2496 30.5479 11.2297 30.0511L9.46085 30.0908C9.48072 30.5877 9.8981 30.9852 10.3751 30.9653ZM11.4682 19.4775C10.9714 19.4775 10.5937 19.875 10.5937 20.352H12.3626C12.3427 19.875 11.9452 19.4775 11.4682 19.4775ZM11.5676 12.72V15.0056C11.5676 15.1448 11.6869 15.264 11.826 15.264H17.5103H17.55V14.7473H17.5103H12.0844V12.7001C11.985 12.72 11.8856 12.7399 11.7862 12.7399C11.7067 12.7399 11.6471 12.7399 11.5676 12.72ZM11.7862 10.9909C11.2894 10.9909 10.9117 11.3884 10.9117 11.8654H12.6806C12.6806 11.3685 12.2831 10.9909 11.7862 10.9909ZM8.78509 8.80461C8.28822 8.80461 7.91059 9.20211 7.91059 9.67911H9.67947C9.6596 9.20211 9.26209 8.80461 8.78509 8.80461ZM4.61133 17.3509C4.61133 17.8478 5.00883 18.2254 5.48583 18.2254V16.4764C5.00883 16.4764 4.61133 16.8739 4.61133 17.3509ZM11.8856 1.57009C11.3887 1.58996 11.0111 2.00734 11.031 2.48434L12.7999 2.40484C12.78 1.92784 12.3626 1.55021 11.8856 1.57009Z" fill="#237EC8"/>
</g>
<defs>
<clipPath id="clip0_1864_9252">
<rect width="35.0596" height="35" fill="white"/>
</clipPath>
</defs>
</svg>
