<svg width="38" height="35" viewBox="0 0 38 35" fill="none" xmlns="http://www.w3.org/2000/svg">
<g clip-path="url(#clip0_1864_9240)">
<path d="M33.8976 28.301L34.6184 35L29.7002 31.3749C28.0042 32.1593 26.0963 32.6045 24.1036 32.6045C19.4609 32.6045 15.3695 30.2302 12.9952 26.6051C11.1084 26.5627 9.32768 26.1175 7.71654 25.3755L2.7983 29.0006L3.51908 22.3016C1.33555 19.9485 0 16.7898 0 13.3131C0 5.957 5.957 0 13.3131 0C17.9558 0 22.0472 2.37432 24.4216 5.99939C31.6081 6.16899 37.3955 12.0624 37.3955 19.2913C37.3955 22.768 36.06 25.9267 33.8976 28.301Z" fill="#0E3B65"/>
<path d="M13.3124 8.05582H6.25301C6.12581 8.05582 6.04102 7.94983 6.04102 7.84383C6.04102 7.71663 6.14701 7.63184 6.25301 7.63184H13.3124V8.05582ZM13.3124 11.2145H6.25301C6.12581 11.2145 6.04102 11.3205 6.04102 11.4265C6.04102 11.5537 6.14701 11.6385 6.25301 11.6385H13.1852C13.2276 11.5749 13.27 11.5325 13.3124 11.4689V11.2145ZM6.04102 15.0304C6.04102 15.1576 6.14701 15.2424 6.25301 15.2424H11.4044C11.4468 15.1152 11.5104 14.9668 11.5528 14.8184H6.25301C6.14701 14.8184 6.04102 14.9244 6.04102 15.0304ZM6.04102 18.6343C6.04102 18.7615 6.14701 18.8463 6.25301 18.8463H10.7897C10.7897 18.6979 10.8109 18.5495 10.8109 18.4011H6.25301C6.14701 18.4223 6.04102 18.5071 6.04102 18.6343Z" fill="#143F69"/>
<path d="M10.7904 19.2913C10.7904 22.0048 11.596 24.5064 12.974 26.6051C11.0872 26.5627 9.30648 26.1175 7.69534 25.3755L2.7771 29.0006L3.49788 22.3016C1.33555 19.9485 0 16.7898 0 13.3131C0 5.957 5.957 0 13.3131 0V7.63174H6.25379C6.12659 7.63174 6.04179 7.73774 6.04179 7.84373C6.04179 7.97093 6.14779 8.05572 6.25379 8.05572H13.3131V11.2144H6.25379C6.12659 11.2144 6.04179 11.3204 6.04179 11.4264C6.04179 11.5536 6.14779 11.6384 6.25379 11.6384H13.1859C12.5076 12.6348 11.9564 13.6947 11.5536 14.8183H6.25379C6.12659 14.8183 6.04179 14.9243 6.04179 15.0303C6.04179 15.1575 6.14779 15.2423 6.25379 15.2423H11.4052C11.0872 16.2598 10.8752 17.3198 10.8116 18.4222H6.25379C6.12659 18.4222 6.04179 18.5282 6.04179 18.6342C6.04179 18.7614 6.14779 18.8462 6.25379 18.8462H10.7904C10.7904 18.9946 10.7904 19.1429 10.7904 19.2913ZM13.3131 11.49C13.3767 11.4052 13.4403 11.3204 13.5039 11.2144H13.3131V11.49ZM13.3131 8.05572H16.9594C17.1926 7.90733 17.4258 7.75893 17.6802 7.63174H13.3131V8.05572ZM37.3955 19.2913C37.3955 12.0624 31.6081 6.16899 24.4216 5.99939C24.3156 5.99939 24.1884 5.99939 24.0824 5.99939V15.1999C27.3047 15.1999 29.9758 17.4682 30.6329 20.4785C30.6753 20.4785 30.7389 20.4573 30.7813 20.4573C30.9085 20.4573 31.0145 20.4785 31.1417 20.5209V13.3979C30.7601 13.3343 30.4422 13.0164 30.4422 12.6136C30.4422 12.1684 30.8025 11.808 31.2477 11.808C31.6929 11.808 32.0533 12.1684 32.0533 12.6136C32.0533 13.0164 31.7565 13.3555 31.3537 13.4191V20.6481C31.6505 20.8389 31.8625 21.1781 31.8625 21.5597C31.8625 22.1532 31.3749 22.6408 30.7813 22.6408C30.7601 22.6408 30.7601 22.6408 30.7389 22.6408C30.5058 24.7184 29.3398 26.5203 27.6439 27.5803C27.5379 27.6439 27.5803 27.7922 27.7074 27.7922H27.877C27.9618 27.7922 28.0466 27.877 28.0466 27.9618V29.0642C28.0466 29.149 27.9618 29.2338 27.877 29.2338H24.0824V32.6469C26.0751 32.6469 27.983 32.2017 29.679 31.4173L34.5972 35.0424L33.8764 28.3434C36.06 25.9267 37.3955 22.768 37.3955 19.2913ZM31.3749 13.3979C31.7777 13.3343 32.0745 13.0164 32.0745 12.5924L30.4634 12.6136C30.4634 13.0164 30.7601 13.3555 31.1629 13.3979C31.2053 13.3979 31.2477 13.4191 31.2901 13.4191C31.3113 13.3979 31.3325 13.3979 31.3749 13.3979ZM17.023 13.3979C17.4258 13.3343 17.7226 13.0164 17.7226 12.5924H16.1114C16.1114 12.9952 16.4082 13.3343 16.811 13.3767C16.8534 13.3767 16.8958 13.3979 16.9382 13.3979C16.9594 13.3979 17.0018 13.3979 17.023 13.3979ZM23.7856 15.1787C23.8916 15.1787 23.9976 15.1787 24.1036 15.1787V23.0436H22.45C22.45 23.9552 23.192 24.6972 24.1036 24.6972V29.2126H20.3089C20.2241 29.2126 20.1393 29.1278 20.1393 29.043V27.9406C20.1393 27.8558 20.2241 27.771 20.3089 27.771H20.4785C20.5845 27.771 20.6481 27.6227 20.5421 27.5591C18.8462 26.4991 17.6802 24.6972 17.447 22.6196C17.4258 22.6196 17.4258 22.6196 17.4046 22.6196C16.811 22.6196 16.3234 22.132 16.3234 21.5385C16.3234 21.1569 16.5142 20.8177 16.811 20.6269C16.8746 20.5633 16.9382 20.5421 17.023 20.4997C17.129 20.4573 17.2562 20.4361 17.3834 20.4361C17.4258 20.4361 17.4894 20.4361 17.5318 20.4573C18.189 17.553 20.7329 15.3271 23.7856 15.1787ZM20.7541 19.3549C20.2453 19.3549 19.8425 19.7577 19.8425 20.2665C19.8213 20.7753 20.2453 21.1993 20.7541 21.1993C21.2629 21.1993 21.6657 20.7965 21.6657 20.2877C21.6657 19.7577 21.2629 19.3549 20.7541 19.3549Z" fill="#9CC8ED"/>
<path d="M13.3134 8.05572H16.9597C15.6242 8.9037 14.4582 9.96366 13.5254 11.2144H13.3134V8.05572ZM13.3134 7.63174H17.6805C19.5884 6.59297 21.772 5.9782 24.0827 5.9782C24.1887 5.9782 24.3159 5.9782 24.4219 5.9782C22.0475 2.37432 17.9561 0 13.3134 0V7.63174ZM20.3092 29.1914C20.2244 29.1914 20.1396 29.1066 20.1396 29.0218V27.9194C20.1396 27.8346 20.2244 27.7498 20.3092 27.7498H20.4788C20.5848 27.7498 20.6484 27.6015 20.5424 27.5379C18.8465 26.4779 17.6805 24.676 17.4473 22.5984C17.4261 22.5984 17.4261 22.5984 17.4049 22.5984C16.8113 22.5984 16.3237 22.1108 16.3237 21.5173C16.3237 21.1357 16.5145 20.7965 16.8113 20.6057V13.3979C16.4085 13.3343 16.1117 12.9952 16.1117 12.5924C16.1117 12.1472 16.4721 11.7868 16.9173 11.7868C17.3625 11.7868 17.7229 12.1472 17.7229 12.5924C17.7229 12.9952 17.4261 13.3343 17.0233 13.3979V20.5209C17.1293 20.4785 17.2565 20.4573 17.3837 20.4573C17.4261 20.4573 17.4897 20.4573 17.5321 20.4785C18.1681 17.5742 20.712 15.3483 23.7647 15.1999C23.8707 15.1999 23.9767 15.1999 24.0827 15.1999V5.9782C21.7508 5.9782 19.5672 6.57177 17.6805 7.63174C17.4261 7.75893 17.1929 7.90733 16.9597 8.05572C15.6242 8.9037 14.4582 9.96366 13.5254 11.2144C13.4406 11.3204 13.377 11.4052 13.3134 11.49C13.271 11.5536 13.2286 11.596 13.1862 11.6596C12.5079 12.6348 11.9567 13.6947 11.5539 14.8183C11.5115 14.9667 11.4479 15.1151 11.4055 15.2635C11.0875 16.2598 10.8755 17.3198 10.8119 18.4222C10.8119 18.5706 10.7907 18.719 10.7907 18.8674C10.7907 19.0157 10.7695 19.1641 10.7695 19.3125C10.7695 22.026 11.5751 24.5276 12.9531 26.6263C15.3274 30.2302 19.4188 32.6257 24.0615 32.6257V29.2126H20.3092V29.1914ZM24.1039 15.1787C27.3262 15.1787 29.9973 17.447 30.6544 20.4573C30.6968 20.4573 30.7604 20.4361 30.8028 20.4361C30.93 20.4361 31.036 20.4573 31.1632 20.4997C31.248 20.5209 31.3116 20.5633 31.3964 20.6057C31.6932 20.7965 31.9052 21.1357 31.9052 21.5173C31.9052 22.1108 31.4176 22.5984 30.824 22.5984C30.8028 22.5984 30.8028 22.5984 30.7816 22.5984C30.5485 24.676 29.3825 26.4779 27.6866 27.5379C27.5806 27.6015 27.623 27.7498 27.7501 27.7498H27.9197C28.0045 27.7498 28.0893 27.8346 28.0893 27.9194V29.0218C28.0893 29.1066 28.0045 29.1914 27.9197 29.1914H24.1251V24.676C25.0366 24.676 25.7786 23.934 25.7786 23.0224H24.1251V15.1787H24.1039ZM26.6266 20.2665C26.6266 20.7753 27.0506 21.1993 27.5594 21.1993C28.0681 21.1993 28.4709 20.7965 28.4709 20.2877C28.4709 19.7789 28.0681 19.3761 27.5594 19.3761C27.0506 19.3761 26.6266 19.7577 26.6266 20.2665Z" fill="#0E3B65"/>
<path d="M31.3748 20.6058C31.3112 20.5634 31.2264 20.521 31.1416 20.4998V13.398C31.184 13.398 31.2264 13.4192 31.2688 13.4192C31.3112 13.4192 31.3324 13.4192 31.3748 13.398V20.6058ZM31.2476 11.7869C30.8024 11.7869 30.442 12.1473 30.442 12.5924L32.0532 12.5712C32.0744 12.1473 31.714 11.7869 31.2476 11.7869ZM17.0229 13.398C17.0017 13.398 16.9593 13.398 16.9169 13.398C16.8745 13.398 16.8321 13.398 16.7897 13.3768V20.6058C16.8745 20.5634 16.9381 20.5422 17.0229 20.4998V13.398ZM16.9169 11.7869C16.4717 11.7869 16.1113 12.1473 16.1113 12.5924L17.7225 12.5712C17.7225 12.1473 17.3621 11.7869 16.9169 11.7869ZM19.8212 20.2666C19.8212 20.7754 20.2452 21.1993 20.754 21.1993C21.2628 21.1993 21.6655 20.7966 21.6655 20.2878C21.6655 19.779 21.2628 19.3762 20.754 19.3762C20.2452 19.355 19.8212 19.7578 19.8212 20.2666ZM27.5589 21.1993C28.0677 21.1993 28.4705 20.7966 28.4705 20.2878C28.4705 19.779 28.0677 19.3762 27.5589 19.3762C27.0502 19.3762 26.6474 19.779 26.6474 20.2878C26.6262 20.7754 27.0502 21.1993 27.5589 21.1993ZM25.757 23.0225H24.1035H22.4499C22.4499 23.934 23.1919 24.676 24.1035 24.676C25.015 24.676 25.757 23.934 25.757 23.0225Z" fill="#237EC8"/>
</g>
<defs>
<clipPath id="clip0_1864_9240">
<rect width="37.3955" height="35" fill="white"/>
</clipPath>
</defs>
</svg>
