<svg width="448" height="268" viewBox="0 0 448 268" fill="none" xmlns="http://www.w3.org/2000/svg">
<g clip-path="url(#clip0_1776_3688)">
<path opacity="0.29" d="M354.039 267.04C405.407 267.04 447.049 257.754 447.049 246.3C447.049 234.846 405.407 225.56 354.039 225.56C302.671 225.56 261.029 234.846 261.029 246.3C261.029 257.754 302.671 267.04 354.039 267.04Z" fill="#00131E"/>
<path d="M292.05 249.05H413.82C418.78 249.05 422.85 244.99 422.85 240.02V25.4001C422.85 20.4401 418.79 16.3701 413.82 16.3701H292.05C287.09 16.3701 283.02 20.4301 283.02 25.4001V240.02C283.02 244.99 287.08 249.05 292.05 249.05Z" fill="#00131E"/>
<path d="M289.54 243.59H416.33C419.91 243.59 422.85 240.66 422.85 237.07V6.52C422.85 2.94 419.92 0 416.33 0H289.54C285.96 0 283.02 2.93 283.02 6.52V237.08C283.02 240.66 285.95 243.59 289.54 243.59Z" fill="#03283B"/>
<path d="M418.059 160.75V167.13V207.78C418.059 209.26 417.289 210.59 416.099 211.45C415.229 212.08 414.139 212.45 412.949 212.45H292.909C290.099 212.45 287.799 210.35 287.799 207.78V166.8V154.54V151.68V29.1099C287.799 27.9499 288.269 26.8799 289.049 26.0599C289.989 25.0699 291.369 24.4399 292.909 24.4399H412.949C415.759 24.4399 418.059 26.5399 418.059 29.1099V157.89V160.75Z" fill="#E7F2F1"/>
<path d="M284.209 213.026L421.199 213.026V49.9864L284.209 49.9864V213.026Z" fill="#FAFFFF"/>
<path d="M285 50L421 50V24L285 24V50Z" fill="#4267AE"/>
<path d="M302.579 40.5199H373.239C376.239 40.5199 378.689 38.0699 378.689 35.0699C378.689 32.0699 376.239 29.6199 373.239 29.6199H302.579C299.579 29.6199 297.129 32.0699 297.129 35.0699C297.129 38.0699 299.579 40.5199 302.579 40.5199Z" fill="#FAFFFF"/>
<path d="M329.149 233.65H377.299C380.599 233.65 383.309 230.95 383.309 227.64C383.309 224.34 380.609 221.63 377.299 221.63H329.149C325.849 221.63 323.139 224.33 323.139 227.64C323.149 230.95 325.849 233.65 329.149 233.65Z" fill="#406D83"/>
<path d="M330.27 13.28H375.59C376.71 13.28 377.62 12.37 377.62 11.25C377.62 10.13 376.71 9.21997 375.59 9.21997H330.27C329.15 9.21997 328.24 10.13 328.24 11.25C328.24 12.37 329.15 13.28 330.27 13.28Z" fill="#406D83"/>
<path d="M411.21 13.28C412.331 13.28 413.24 12.3711 413.24 11.25C413.24 10.1288 412.331 9.21997 411.21 9.21997C410.089 9.21997 409.18 10.1288 409.18 11.25C409.18 12.3711 410.089 13.28 411.21 13.28Z" fill="#406D83"/>
<path d="M403.969 13.28C405.091 13.28 405.999 12.3711 405.999 11.25C405.999 10.1288 405.091 9.21997 403.969 9.21997C402.848 9.21997 401.939 10.1288 401.939 11.25C401.939 12.3711 402.848 13.28 403.969 13.28Z" fill="#406D83"/>
<path d="M322.62 43.3201C322.68 43.2401 322.73 43.1601 322.78 43.0901C322.68 43.2301 322.59 43.3701 322.49 43.5101C322.53 43.4401 322.58 43.3801 322.62 43.3201Z" fill="#7A2B03"/>
<path d="M273.879 138.86C273.749 139 273.618 139.14 273.488 139.27C273.488 139.21 273.479 139.14 273.479 139.08C273.609 139.01 273.749 138.94 273.879 138.86Z" fill="#224B5B"/>
<path opacity="0.28" d="M228.689 40.35V73.28C228.689 76.21 231.059 78.5801 233.989 78.5801H299.769L316.699 82L308.029 68.2601V40.35C308.029 37.42 305.659 35.05 302.729 35.05H233.989C231.059 35.05 228.689 37.42 228.689 40.35Z" fill="#03283B"/>
<path d="M228.689 36.76V69.69C228.689 72.62 231.059 74.99 233.989 74.99H299.769L316.699 78.4L308.029 64.66V36.76C308.029 33.83 305.659 31.46 302.729 31.46H233.989C231.059 31.46 228.689 33.83 228.689 36.76Z" fill="#FDB661"/>
<path d="M238.61 42.3799H295.9C296.75 42.3799 297.44 41.6899 297.44 40.8399V40.1799C297.44 39.3299 296.75 38.6399 295.9 38.6399H238.61C237.76 38.6399 237.07 39.3299 237.07 40.1799V40.8399C237.07 41.6899 237.76 42.3799 238.61 42.3799Z" fill="#F28248"/>
<path d="M238.61 49.51H295.9C296.75 49.51 297.44 48.82 297.44 47.97V47.31C297.44 46.46 296.75 45.77 295.9 45.77H238.61C237.76 45.77 237.07 46.46 237.07 47.31V47.97C237.07 48.82 237.76 49.51 238.61 49.51Z" fill="#F28248"/>
<path d="M238.61 57.52H295.9C296.75 57.52 297.44 56.83 297.44 55.98V55.32C297.44 54.47 296.75 53.78 295.9 53.78H238.61C237.76 53.78 237.07 54.47 237.07 55.32V55.98C237.07 56.82 237.76 57.52 238.61 57.52Z" fill="#F28248"/>
<path d="M269.409 65.52H295.899C296.749 65.52 297.439 64.83 297.439 63.98V63.32C297.439 62.47 296.749 61.78 295.899 61.78H269.409C268.559 61.78 267.869 62.47 267.869 63.32V63.98C267.859 64.82 268.559 65.52 269.409 65.52Z" fill="#F28248"/>
<path d="M406.85 212.45H392.71L381.16 160.63L383.88 158.51L394.37 150.33L395.48 155.83L406.85 212.45Z" fill="#224B5B"/>
<path d="M395.481 155.84C393.031 161.63 384.921 163.57 384.921 163.57C384.921 163.57 384.411 161.49 383.881 158.52L394.381 150.34L395.481 155.84Z" fill="#14313B"/>
<path d="M396.41 212.45H392.71L381.16 160.63L383.88 158.51L396.41 212.45Z" fill="#14313B"/>
<path d="M382.73 160.74C389.203 160.74 394.45 155.493 394.45 149.02C394.45 142.547 389.203 137.3 382.73 137.3C376.257 137.3 371.01 142.547 371.01 149.02C371.01 155.493 376.257 160.74 382.73 160.74Z" fill="#5B899C"/>
<path d="M380.37 126.83H327.17C323.75 126.83 320.98 124.06 320.98 120.64V79.3201C320.98 75.9001 323.75 73.1301 327.17 73.1301H380.37C383.79 73.1301 386.56 75.9001 386.56 79.3201V120.63C386.56 124.05 383.79 126.83 380.37 126.83Z" fill="#5B899C"/>
<path d="M311.73 104.48H310.51C308.95 104.48 307.68 103.21 307.68 101.65V100.43C307.68 98.8701 308.95 97.6001 310.51 97.6001H311.73C313.29 97.6001 314.56 98.8701 314.56 100.43V101.65C314.56 103.21 313.29 104.48 311.73 104.48Z" fill="#224B5B"/>
<path d="M397.019 104.48H395.799C394.239 104.48 392.969 103.21 392.969 101.65V100.43C392.969 98.8701 394.239 97.6001 395.799 97.6001H397.019C398.579 97.6001 399.849 98.8701 399.849 100.43V101.65C399.849 103.21 398.569 104.48 397.019 104.48Z" fill="#224B5B"/>
<path d="M388.299 113.21H386.549V88.5901H388.299C392.769 88.5901 396.399 92.2201 396.399 96.6901V105.11C396.409 109.58 392.779 113.21 388.299 113.21Z" fill="#406D83"/>
<path d="M320.969 88.5901V113.21C320.099 113.21 319.249 113.1 318.439 112.88C314.219 111.76 311.119 107.92 311.119 103.36V98.4401C311.119 95.7201 312.219 93.2601 313.999 91.4701C315.209 90.2601 316.729 89.3701 318.439 88.9101C319.249 88.7001 320.099 88.5901 320.969 88.5901Z" fill="#406D83"/>
<path d="M337.14 100.5C333.89 100.5 331.25 97.8602 331.25 94.6102V91.5802C331.25 88.3302 333.89 85.6902 337.14 85.6902C340.39 85.6902 343.03 88.3302 343.03 91.5802V94.6102C343.03 97.8602 340.39 100.5 337.14 100.5Z" fill="#224B5B"/>
<path d="M337.139 99.0501C334.689 99.0501 332.699 97.0601 332.699 94.6101V91.5801C332.699 89.1301 334.689 87.1401 337.139 87.1401C339.589 87.1401 341.579 89.1301 341.579 91.5801V94.6101C341.579 97.0601 339.589 99.0501 337.139 99.0501Z" fill="#406D83"/>
<path d="M340.131 91.5801V94.6101C340.131 96.2601 338.781 97.6001 337.141 97.6001C336.031 97.6001 335.061 96.9901 334.541 96.0901C334.291 95.6501 334.141 95.1401 334.141 94.6101V91.5801C334.141 89.9301 335.491 88.5901 337.131 88.5901C337.951 88.5901 338.701 88.9301 339.241 89.4701C339.391 89.6201 339.521 89.7801 339.631 89.9601C339.951 90.4201 340.131 90.9801 340.131 91.5801Z" fill="#00DED1"/>
<path d="M340.129 91.5802V94.6102C340.129 96.2602 338.779 97.6002 337.139 97.6002C336.029 97.6002 335.059 96.9902 334.539 96.0902L339.639 89.9402C339.949 90.4202 340.129 90.9802 340.129 91.5802Z" fill="#00C5D2"/>
<path d="M370.609 100.5C367.359 100.5 364.719 97.8602 364.719 94.6102V91.5802C364.719 88.3302 367.359 85.6902 370.609 85.6902C373.859 85.6902 376.499 88.3302 376.499 91.5802V94.6102C376.499 97.8602 373.859 100.5 370.609 100.5Z" fill="#224B5B"/>
<path d="M370.608 99.0501C368.158 99.0501 366.168 97.0601 366.168 94.6101V91.5801C366.168 89.1301 368.158 87.1401 370.608 87.1401C373.058 87.1401 375.048 89.1301 375.048 91.5801V94.6101C375.058 97.0601 373.058 99.0501 370.608 99.0501Z" fill="#406D83"/>
<path d="M373.609 91.5801V94.6101C373.609 96.2601 372.259 97.6001 370.619 97.6001C369.509 97.6001 368.539 96.9901 368.019 96.0901C367.769 95.6501 367.619 95.1401 367.619 94.6101V91.5801C367.619 89.9301 368.969 88.5901 370.609 88.5901C371.429 88.5901 372.179 88.9301 372.719 89.4701C372.869 89.6201 372.999 89.7801 373.109 89.9601C373.429 90.4201 373.609 90.9801 373.609 91.5801Z" fill="#00DED1"/>
<path d="M373.61 91.5802V94.6102C373.61 96.2602 372.26 97.6002 370.62 97.6002C369.51 97.6002 368.54 96.9902 368.02 96.0902L373.12 89.9402C373.43 90.4202 373.61 90.9802 373.61 91.5802Z" fill="#00C5D2"/>
<path d="M354.95 57.0801H352.58V73.1201H354.95V57.0801Z" fill="#406D83"/>
<path d="M361.39 132.15H346.1C344.9 132.15 343.91 131.16 343.91 129.96V129.02C343.91 127.81 344.9 126.83 346.1 126.83H361.39C362.6 126.83 363.58 127.82 363.58 129.02V129.96C363.58 131.17 362.6 132.15 361.39 132.15Z" fill="#224B5B"/>
<path d="M361.39 137.4H346.1C344.9 137.4 343.91 136.41 343.91 135.21V134.27C343.91 133.06 344.9 132.08 346.1 132.08H361.39C362.6 132.08 363.58 133.07 363.58 134.27V135.21C363.58 136.42 362.6 137.4 361.39 137.4Z" fill="#224B5B"/>
<path d="M326.289 123.09C327.156 123.09 327.859 122.387 327.859 121.52C327.859 120.653 327.156 119.95 326.289 119.95C325.422 119.95 324.719 120.653 324.719 121.52C324.719 122.387 325.422 123.09 326.289 123.09Z" fill="#406D83"/>
<path d="M326.289 79.7001C327.156 79.7001 327.859 78.9971 327.859 78.1301C327.859 77.263 327.156 76.5601 326.289 76.5601C325.422 76.5601 324.719 77.263 324.719 78.1301C324.719 78.9971 325.422 79.7001 326.289 79.7001Z" fill="#406D83"/>
<path d="M320.969 88.5901V113.21C320.099 113.21 319.249 113.1 318.439 112.88V88.9101C319.249 88.7001 320.099 88.5901 320.969 88.5901Z" fill="#224B5B"/>
<path d="M386.561 88.5901V113.21C387.431 113.21 388.281 113.1 389.091 112.88V88.9101C388.281 88.7001 387.431 88.5901 386.561 88.5901Z" fill="#224B5B"/>
<path d="M353.929 60.2301C356.862 60.2301 359.239 57.8527 359.239 54.9201C359.239 51.9875 356.862 49.6101 353.929 49.6101C350.997 49.6101 348.619 51.9875 348.619 54.9201C348.619 57.8527 350.997 60.2301 353.929 60.2301Z" fill="#406D83"/>
<path d="M357.51 56.3989C358.334 54.4323 357.407 52.1707 355.44 51.3476C353.473 50.5246 351.212 51.4516 350.389 53.4182C349.566 55.3848 350.493 57.6463 352.459 58.4693C354.426 59.2924 356.687 58.3655 357.51 56.3989Z" fill="#5B899C"/>
<path d="M384.92 212.46H324.99V141.93C324.99 139.38 326.65 137.3 329.62 137.3H380.3C383.1 137.3 384.93 139.37 384.93 141.93V212.46H384.92Z" fill="#5B899C"/>
<path d="M381.16 123.09C382.027 123.09 382.73 122.387 382.73 121.52C382.73 120.653 382.027 119.95 381.16 119.95C380.293 119.95 379.59 120.653 379.59 121.52C379.59 122.387 380.293 123.09 381.16 123.09Z" fill="#406D83"/>
<path d="M381.16 79.7001C382.027 79.7001 382.73 78.9971 382.73 78.1301C382.73 77.263 382.027 76.5601 381.16 76.5601C380.293 76.5601 379.59 77.263 379.59 78.1301C379.59 78.9971 380.293 79.7001 381.16 79.7001Z" fill="#406D83"/>
<path d="M353.93 120.68C343.15 120.68 338.59 115.29 336.84 112.08C336.32 111.13 336.34 110.01 336.89 109.08C337.44 108.15 338.42 107.6 339.5 107.6H368.29C369.37 107.6 370.34 108.15 370.89 109.07C371.44 109.99 371.47 111.11 370.96 112.06C369.23 115.27 364.72 120.68 353.93 120.68Z" fill="#406D83"/>
<path d="M369.86 110.54C369.88 110.81 369.82 111.1 369.67 111.37C369.37 111.93 368.98 112.56 368.48 113.21C366.31 116.03 362.05 119.23 353.92 119.23C345.8 119.23 341.5 116.02 339.3 113.21C338.8 112.57 338.4 111.95 338.1 111.39C337.95 111.12 337.89 110.83 337.91 110.55C337.95 109.75 338.6 109.05 339.49 109.05H368.28C369.17 109.04 369.82 109.74 369.86 110.54Z" fill="#FAFFFF"/>
<path d="M369.86 110.54H337.91C337.95 109.74 338.6 109.04 339.49 109.04H368.28C369.17 109.04 369.82 109.74 369.86 110.54Z" fill="#E5E5E5"/>
<path d="M368.95 170.56H340.63C333.89 170.56 328.42 165.09 328.42 158.35V153.08C328.42 146.34 333.89 140.87 340.63 140.87H368.95C375.69 140.87 381.16 146.34 381.16 153.08V158.35C381.16 165.09 375.69 170.56 368.95 170.56Z" fill="#679DB0"/>
<path d="M375.049 147.71H334.539V162.84H375.049V147.71Z" fill="#224B5B"/>
<path d="M337.34 160.06C337.09 160.06 336.85 159.97 336.66 159.78C336.28 159.4 336.28 158.79 336.66 158.41L341.51 153.56C341.89 153.18 342.5 153.18 342.88 153.56L346.93 157.61L354 150.54C354.38 150.16 354.99 150.16 355.37 150.54L362.17 157.34L366.75 152.76C367.13 152.38 367.74 152.38 368.12 152.76L371.19 155.83C371.57 156.21 371.57 156.82 371.19 157.2C370.81 157.58 370.2 157.58 369.82 157.2L367.43 154.81L362.85 159.39C362.47 159.77 361.86 159.77 361.48 159.39L354.68 152.59L347.61 159.66C347.23 160.04 346.62 160.04 346.24 159.66L342.19 155.61L338.02 159.78C337.83 159.97 337.58 160.06 337.34 160.06Z" fill="#00DED1"/>
<path d="M405.63 191.75C405.63 197.47 400.99 202.11 395.27 202.11C394.84 202.11 394.41 202.08 393.99 202.03C388.88 201.4 384.92 197.04 384.92 191.75C384.92 188.13 386.78 184.94 389.59 183.09C391.22 182.01 393.17 181.39 395.27 181.39C400.99 181.39 405.63 186.03 405.63 191.75Z" fill="#406D83"/>
<path d="M273.88 138.86C274.16 138.68 274.4 138.44 274.6 138.16L282.3 127.1C282.62 126.64 282.78 126.1 282.78 125.57C282.78 124.72 282.38 123.89 281.64 123.37C280.43 122.53 278.76 122.83 277.92 124.03L276.02 126.76C275.83 126.29 275.62 125.84 275.38 125.41V114.58C275.38 113.85 275.08 113.18 274.6 112.69C274.11 112.2 273.45 111.9 272.71 111.9C271.24 111.9 270.04 113.1 270.04 114.57V120.64C269.49 120.42 268.91 120.25 268.32 120.13V111.7C268.32 110.97 268.02 110.3 267.54 109.81C267.05 109.32 266.39 109.02 265.65 109.02C264.18 109.02 262.98 110.22 262.98 111.69V120.54C262.38 120.76 261.8 121.03 261.26 121.36V116.27C261.26 115.53 260.96 114.87 260.48 114.38C259.99 113.89 259.33 113.6 258.59 113.6C257.12 113.6 255.92 114.8 255.92 116.27V129.75C255.92 129.89 255.93 130.04 255.96 130.17C255.94 130.47 255.92 130.77 255.92 131.08C255.92 133.95 256.94 136.57 258.62 138.55C258.58 138.57 265.51 142.87 273.88 138.86Z" fill="#406D83"/>
<path d="M325.44 139.31V160.44C325.13 160.71 324.8 160.98 324.47 161.26C323.7 161.9 322.9 162.54 322.07 163.19C315.18 168.57 306.19 174.16 295.07 178.25C291.23 179.66 287.81 180.22 284.82 180.22C279.46 180.22 275.45 178.42 272.71 176.51C266.66 172.29 262.57 164.82 260.36 153.91C260.06 152.42 259.79 150.88 259.56 149.26C259.3 147.45 259.09 145.56 258.92 143.59C258.91 143.55 258.91 143.51 258.91 143.48C258.84 142.71 258.78 141.93 258.73 141.14C258.67 140.3 258.62 139.44 258.58 138.56C258.58 138.56 265.51 142.87 273.88 138.85C273.75 138.94 273.61 139.01 273.47 139.07C273.48 139.13 273.48 139.2 273.49 139.26C273.52 139.9 273.57 140.53 273.61 141.14C273.65 141.74 273.71 142.32 273.76 142.88C274.14 147.04 274.72 150.42 275.39 153.16C277.22 160.57 279.78 163.33 281.21 164.33C281.95 164.84 284.21 166.42 289.95 164.31C300.21 160.53 308.21 155.39 314.03 150.7C315.78 149.29 317.33 147.92 318.69 146.64C322.31 143.24 324.55 140.48 325.44 139.31Z" fill="#224B5B"/>
<path d="M325.439 155.72V160.44C325.129 160.71 324.799 160.98 324.469 161.26C323.699 161.9 322.899 162.54 322.069 163.19C315.179 168.57 306.189 174.16 295.069 178.25C291.229 179.66 287.809 180.22 284.819 180.22C279.459 180.22 275.449 178.42 272.709 176.51C266.659 172.29 262.569 164.82 260.359 153.91C260.359 153.91 265.439 172.41 281.249 176.16C297.059 179.91 325.439 155.72 325.439 155.72Z" fill="#14313B"/>
<path d="M296.089 172.58C296.089 173.1 296.049 173.62 295.979 174.12C295.229 179.11 290.929 182.94 285.729 182.94C280.469 182.94 276.119 179.02 275.459 173.94C275.399 173.49 275.369 173.04 275.369 172.58C275.369 166.86 280.009 162.23 285.729 162.23C291.449 162.23 296.089 166.86 296.089 172.58Z" fill="#406D83"/>
<path d="M325.44 157.05V160.44C325.12 160.71 324.8 160.99 324.47 161.26C323.7 161.9 322.9 162.55 322.06 163.2C314.84 160.35 314.09 152.64 314.02 150.71C315.77 149.3 317.33 147.93 318.69 146.65L324.4 154.64C324.4 154.63 324.92 155.67 325.44 157.05Z" fill="#14313B"/>
<path d="M328.819 137.3C320.969 137.3 316.699 143.15 316.699 149.02C316.699 154.89 321.019 159.75 326.649 160.6L328.819 137.3Z" fill="#5B899C"/>
<path d="M273.61 141.14C273.65 141.74 273.7 142.32 273.75 142.89C269.23 145.88 259.1 143.64 258.91 143.59L258.9 143.48L258.57 138.57C258.57 138.57 265.5 142.88 273.87 138.86C273.74 138.94 273.61 139.02 273.47 139.08C273.47 139.14 273.48 139.21 273.48 139.27C273.52 139.9 273.56 140.53 273.61 141.14Z" fill="#14313B"/>
<path d="M260.359 153.91C260.359 153.91 260.369 153.95 260.389 154.03C260.379 153.99 260.369 153.95 260.359 153.91Z" fill="#14313B"/>
<path d="M295.979 174.12C295.229 179.11 290.929 182.94 285.729 182.94C280.469 182.94 276.119 179.02 275.459 173.94C277.209 174.89 279.129 175.66 281.249 176.16C285.509 177.17 290.689 176.15 295.979 174.12Z" fill="#345968"/>
<path d="M393.99 202.03C388.88 201.4 384.92 197.04 384.92 191.75C384.92 188.13 386.78 184.94 389.59 183.09L393.99 202.03Z" fill="#345968"/>
<path opacity="0.29" d="M93.01 267.04C144.378 267.04 186.02 257.754 186.02 246.3C186.02 234.846 144.378 225.56 93.01 225.56C41.642 225.56 0 234.846 0 246.3C0 257.754 41.642 267.04 93.01 267.04Z" fill="#00131E"/>
<path d="M154.761 249.05H32.9909C28.0309 249.05 23.9609 244.99 23.9609 240.02V25.4001C23.9609 20.4401 28.0209 16.3701 32.9909 16.3701H154.761C159.721 16.3701 163.791 20.4301 163.791 25.4001V240.02C163.791 244.99 159.721 249.05 154.761 249.05Z" fill="#00131E"/>
<path d="M157.271 243.59H30.4809C26.9009 243.59 23.9609 240.66 23.9609 237.07V6.52C23.9609 2.94 26.8909 0 30.4809 0H157.271C160.851 0 163.791 2.93 163.791 6.52V237.08C163.791 240.66 160.851 243.59 157.271 243.59Z" fill="#03283B"/>
<path d="M28.7502 160.75V167.13V207.78C28.7502 209.26 29.5202 210.59 30.7102 211.45C31.5802 212.08 32.6702 212.45 33.8602 212.45H153.9C156.71 212.45 159.01 210.35 159.01 207.78V166.8V154.54V151.68V29.1099C159.01 27.9499 158.54 26.8799 157.76 26.0599C156.82 25.0699 155.44 24.4399 153.9 24.4399H33.8502C31.0402 24.4399 28.7402 26.5399 28.7402 29.1099V157.89V160.75H28.7502Z" fill="#E7F2F1"/>
<path d="M162.599 49.98H25.6094V213.02H162.599V49.98Z" fill="#FAFFFF"/>
<path d="M162 24H26V50H162V24Z" fill="#4267AE"/>
<path d="M113.11 40.5199H42.4598C39.4598 40.5199 37.0098 38.0699 37.0098 35.0699C37.0098 32.0699 39.4598 29.6199 42.4598 29.6199H113.12C116.12 29.6199 118.57 32.0699 118.57 35.0699C118.57 38.0699 116.11 40.5199 113.11 40.5199Z" fill="#FAFFFF"/>
<path d="M117.65 233.65H69.5002C66.2002 233.65 63.4902 230.95 63.4902 227.64C63.4902 224.34 66.1902 221.63 69.5002 221.63H117.65C120.95 221.63 123.66 224.33 123.66 227.64C123.66 230.95 120.96 233.65 117.65 233.65Z" fill="#406D83"/>
<path d="M116.54 13.28H71.2097C70.0897 13.28 69.1797 12.37 69.1797 11.25C69.1797 10.13 70.0897 9.21997 71.2097 9.21997H116.53C117.65 9.21997 118.56 10.13 118.56 11.25C118.57 12.37 117.66 13.28 116.54 13.28Z" fill="#406D83"/>
<path d="M142.8 11.25C142.8 12.37 141.89 13.28 140.77 13.28C139.65 13.28 138.74 12.37 138.74 11.25C138.74 10.13 139.65 9.21997 140.77 9.21997C141.89 9.21997 142.8 10.13 142.8 11.25Z" fill="#406D83"/>
<path d="M148.01 13.28C149.132 13.28 150.04 12.3711 150.04 11.25C150.04 10.1288 149.132 9.21997 148.01 9.21997C146.889 9.21997 145.98 10.1288 145.98 11.25C145.98 12.3711 146.889 13.28 148.01 13.28Z" fill="#406D83"/>
<path d="M124.189 43.3201C124.129 43.2401 124.079 43.1601 124.029 43.0901C124.129 43.2301 124.219 43.3701 124.319 43.5101C124.269 43.4401 124.229 43.3801 124.189 43.3201Z" fill="#7A2B03"/>
<path opacity="0.28" d="M218.119 40.35V73.28C218.119 76.21 215.749 78.5801 212.819 78.5801H147.039L130.109 82L138.779 68.2601V40.35C138.779 37.42 141.149 35.05 144.079 35.05H212.819C215.739 35.05 218.119 37.42 218.119 40.35Z" fill="#03283B"/>
<path d="M218.119 36.76V69.69C218.119 72.62 215.749 74.99 212.819 74.99H147.039L130.109 78.4L138.779 64.66V36.76C138.779 33.83 141.149 31.46 144.079 31.46H212.819C215.739 31.46 218.119 33.83 218.119 36.76Z" fill="#00DED1"/>
<path d="M208.199 42.3799H150.909C150.059 42.3799 149.369 41.6899 149.369 40.8399V40.1799C149.369 39.3299 150.059 38.6399 150.909 38.6399H208.199C209.049 38.6399 209.739 39.3299 209.739 40.1799V40.8399C209.739 41.6899 209.049 42.3799 208.199 42.3799Z" fill="#009C8E"/>
<path d="M208.199 49.51H150.909C150.059 49.51 149.369 48.82 149.369 47.97V47.31C149.369 46.46 150.059 45.77 150.909 45.77H208.199C209.049 45.77 209.739 46.46 209.739 47.31V47.97C209.739 48.82 209.049 49.51 208.199 49.51Z" fill="#009C8E"/>
<path d="M208.199 57.52H150.909C150.059 57.52 149.369 56.83 149.369 55.98V55.32C149.369 54.47 150.059 53.78 150.909 53.78H208.199C209.049 53.78 209.739 54.47 209.739 55.32V55.98C209.739 56.82 209.049 57.52 208.199 57.52Z" fill="#009C8E"/>
<path d="M177.399 65.52H150.909C150.059 65.52 149.369 64.83 149.369 63.98V63.32C149.369 62.47 150.059 61.78 150.909 61.78H177.399C178.249 61.78 178.939 62.47 178.939 63.32V63.98C178.939 64.82 178.249 65.52 177.399 65.52Z" fill="#009C8E"/>
<path d="M118.579 87.48C118.579 87.48 121.329 83.67 127.269 85.58C133.219 87.48 129.549 106.76 118.539 108.42L118.579 87.48Z" fill="#FDAC7F"/>
<path d="M121.049 92.5501C121.049 92.5501 122.459 89.0401 125.409 89.1801C128.359 89.3201 127.379 97.8901 121.049 102.67V92.5501Z" fill="#D97A61"/>
<path d="M68.2891 87.48C68.2891 87.48 65.5391 83.67 59.5991 85.58C53.6491 87.48 57.3191 106.76 68.3291 108.42L68.2891 87.48Z" fill="#FDAC7F"/>
<path d="M65.8196 92.5501C65.8196 92.5501 64.4096 89.0401 61.4596 89.1801C58.5096 89.3201 59.4896 97.8901 65.8196 102.67V92.5501Z" fill="#D97A61"/>
<path d="M124.09 212.67H64.1602V142.14C64.1602 139.59 65.8202 137.51 68.7902 137.51H119.47C122.27 137.51 124.1 139.58 124.1 142.14V212.67H124.09Z" fill="#9EC8FF"/>
<path d="M102.001 139.69C102.001 145.34 86.2207 145.34 86.2207 139.69V123.91H102.001V139.69Z" fill="#DE8864"/>
<path d="M86.2205 137.51H80.7305V156.13L92.9905 143.87C92.9905 143.88 85.3205 143.93 86.2205 137.51Z" fill="#76A9E6"/>
<path d="M102 137.51H107.34V156.13L95.0801 143.87C95.0801 143.88 102.55 144.06 102 137.51Z" fill="#76A9E6"/>
<path d="M175.9 138.7C175.9 138.7 170.24 132.28 169.81 127.39C169.25 121.03 177.05 130.52 177.05 130.52C177.05 130.52 171.22 111.44 175.4 109.58C179.58 107.72 181.23 123.43 181.23 123.43C181.23 123.43 178.28 107.61 181.27 107.16C184.81 106.63 186.17 118 186.89 122.79C186.89 122.79 184.38 109.34 187.72 109.59C191.06 109.84 190.74 123.55 190.74 123.55C190.74 123.55 190.37 113.65 192.41 114.07C194.45 114.49 197.63 122.21 189.82 138.24L175.9 138.7Z" fill="#FDAC7F"/>
<path d="M65.0698 160.98C54.6198 178.94 54.0498 204.4 54.1498 212.46H39.5898C39.8798 206.13 41.0798 188.39 45.6398 169.35C52.8598 139.26 68.7898 137.51 68.7898 137.51L68.8898 155.34C67.4798 157.1 66.2098 159 65.0698 160.98Z" fill="#9EC8FF"/>
<path d="M190 137.95C189.95 139.03 189.9 140.1 189.83 141.14C189.69 143.11 189.52 145 189.31 146.82C189.26 147.26 189.2 147.7 189.14 148.13C189.1 148.51 189.04 148.89 188.99 149.26C187.06 162.73 182.72 171.71 175.84 176.51C173.11 178.42 169.09 180.23 163.73 180.23C160.74 180.23 157.33 179.66 153.48 178.25C141.06 173.68 131.29 167.24 124.15 161.31C124.1 161.28 124.08 161.26 124.08 161.26C114.69 153.46 109.84 146.57 109.5 146.07L115.61 141.85L122.66 138.7C122.78 138.88 134.4 155.41 158.6 164.31C164.35 166.42 166.6 164.85 167.35 164.33C169.37 162.91 173.68 157.95 174.94 141.14C175.02 140.12 175.08 139.06 175.14 137.95H190Z" fill="#9EC8FF"/>
<path d="M85.7207 151.14L93.8707 157.81L102.351 151.14L95.0807 143.88H92.9907L85.7207 151.14Z" fill="#03283B"/>
<path d="M90.8905 155.37L84.3105 213.03H104.291L96.9806 155.37H90.8905Z" fill="#03283B"/>
<path d="M119.93 165.75H107.34V169.54H119.93V165.75Z" fill="#76A9E6"/>
<path d="M65.0693 160.98C54.6193 178.94 54.0493 204.4 54.1493 212.46H49.0293C50.8793 172.96 65.0693 160.95 65.0693 160.95V160.98Z" fill="#76A9E6"/>
<path d="M189.14 148.13C189.1 148.51 189.04 148.89 188.99 149.26C187.06 162.73 182.72 171.71 175.84 176.51C173.11 178.42 169.09 180.23 163.73 180.23C160.74 180.23 157.33 179.66 153.48 178.25C141.06 173.68 131.29 167.24 124.15 161.31C125.72 162.32 152.9 179.71 164.88 176.96C176.82 174.21 187.08 161.67 189.14 148.13Z" fill="#76A9E6"/>
<path d="M123.141 75.76V99.93C123.141 107.91 119.871 115.17 114.611 120.44C109.351 125.7 102.091 128.97 94.1005 128.97C93.5505 128.97 93.0106 128.95 92.4706 128.92C77.2506 128.07 65.0605 115.35 65.0605 99.93V75.76C65.0605 68.79 67.5505 62.38 71.6705 57.37C77.0105 50.88 85.0905 46.73 94.0905 46.73C110.081 46.72 123.141 59.79 123.141 75.76Z" fill="#FDAC7F"/>
<path d="M66.7492 66.0699C66.7492 66.0699 63.8992 69.4699 65.0792 90.4799L70.5292 81.9299L70.9692 71.2499C70.9692 71.2499 77.8492 66.7999 77.1492 61.2299C77.1392 61.2299 68.4492 60.0799 66.7492 66.0699Z" fill="#652929"/>
<path d="M121.511 65.1099C121.511 65.1099 124.361 68.5099 123.181 89.5199L117.731 80.9699L117.291 70.2899C117.291 70.2899 110.411 65.8399 111.111 60.2699C111.111 60.2699 119.801 59.1199 121.511 65.1099Z" fill="#652929"/>
<path d="M81.1795 93C79.5295 93 78.1895 91.65 78.1895 90.01V86.98C78.1895 85.33 79.5395 83.99 81.1795 83.99C82.8295 83.99 84.1694 85.34 84.1694 86.98V90.01C84.1694 91.65 82.8195 93 81.1795 93Z" fill="#03283B"/>
<path d="M107.279 93C105.629 93 104.289 91.65 104.289 90.01V86.98C104.289 85.33 105.639 83.99 107.279 83.99C108.929 83.99 110.269 85.34 110.269 86.98V90.01C110.269 91.65 108.929 93 107.279 93Z" fill="#03283B"/>
<path d="M74.0093 77.47C75.3593 76.43 78.4593 74.49 82.5393 74.68C83.5593 74.73 84.3493 75.59 84.3193 76.61C84.2893 77.5 83.6493 78.25 82.7693 78.4C80.9693 78.72 77.9393 79.36 75.7593 80.35C74.6993 80.84 73.4793 80.14 73.3593 78.98C73.2893 78.41 73.5393 77.83 74.0093 77.47Z" fill="#652929"/>
<path d="M113.969 77.47C112.619 76.43 109.519 74.49 105.439 74.68C104.419 74.73 103.629 75.59 103.659 76.61C103.689 77.5 104.329 78.25 105.209 78.4C107.009 78.72 110.039 79.36 112.219 80.35C113.279 80.84 114.499 80.14 114.619 78.98C114.679 78.41 114.439 77.83 113.969 77.47Z" fill="#652929"/>
<path d="M80.2793 101.68C80.2793 102.74 80.3993 103.77 80.6293 104.76H107.599C107.819 103.77 107.949 102.74 107.949 101.68H80.2793Z" fill="white"/>
<path d="M104.169 111.17C105.829 109.41 107.039 107.21 107.599 104.76H80.6191C81.1791 107.23 82.3991 109.44 84.0791 111.21C86.5991 110.05 94.7391 107.04 104.169 111.17Z" fill="#03283B"/>
<path d="M94.1098 115.51C98.0798 115.51 101.65 113.84 104.17 111.17C94.7398 107.04 86.5998 110.05 84.0898 111.21C86.6098 113.86 90.1598 115.51 94.1098 115.51Z" fill="#FF3451"/>
<path d="M89.8594 96.4099C89.8594 96.4099 91.0094 93.8399 94.2794 94.0399C97.5494 94.2299 98.3794 96.4099 98.3794 96.4099H89.8594Z" fill="#D97A61"/>
<path d="M113.919 62.6299C94.6789 63.7199 97.4989 62.5399 90.0289 63.4999C83.7889 64.2999 79.7189 69.4199 68.2789 67.0099C68.2789 67.0099 59.8489 55.8499 72.8189 47.9899C85.7989 40.1199 95.7289 28.5399 112.859 34.8799C117.799 36.7099 121.589 39.7099 123.999 43.0699C124.009 43.0799 124.009 43.0899 124.019 43.0999C124.119 43.2399 124.209 43.3799 124.309 43.5199C124.519 43.8299 124.709 44.1399 124.899 44.4499C129.659 52.4599 126.859 61.8899 113.919 62.6299Z" fill="#883938"/>
<path d="M113.919 62.6299C94.6789 63.7199 97.4989 62.5399 90.0289 63.4999C83.7889 64.2999 79.7189 69.4199 68.2789 67.0099C68.2789 67.0099 59.8489 55.8499 72.8189 47.9899C72.8189 47.9899 68.0889 54.0899 72.8189 58.2499C77.5489 62.4099 91.0789 54.3299 106.089 55.1999C120.369 56.0299 128.939 51.5799 124.889 44.4399C129.659 52.4599 126.859 61.8899 113.919 62.6299Z" fill="#652929"/>
<path d="M68.3298 61.1399C68.3298 61.1399 66.4798 53.6599 62.4998 52.8999C62.4998 52.8999 61.7198 59.9999 66.1598 63.1699C66.1598 63.1699 62.8498 61.1399 58.8398 63.3899C58.8398 63.3899 60.5898 68.7599 66.9298 68.7399C75.1298 68.7299 68.3298 61.1399 68.3298 61.1399Z" fill="#652929"/>
<path d="M125.87 84.8899C124.1 81.6299 119.48 81.6299 117.32 81.8299C117.1 81.5799 116.78 81.4199 116.42 81.4199H98.6198C98.1298 81.4199 97.7098 81.7099 97.5198 82.1399C95.2598 80.7499 92.7198 81.1799 90.8798 81.9799C90.6698 81.6399 90.2898 81.4199 89.8598 81.4199H72.0598C71.6998 81.4199 71.3698 81.5799 71.1598 81.8299C69.0198 81.6299 64.3498 81.6099 62.5798 84.8899C62.5498 84.9399 62.5298 84.9999 62.5098 85.0499C63.5398 85.0199 64.4298 85.1699 65.1698 85.4099C66.1898 84.4199 68.0198 84.1599 69.5898 84.1599C70.0398 84.1599 70.4798 84.1799 70.8598 84.2099L70.8298 89.7899C70.8198 91.9799 71.6998 94.1099 73.2398 95.6599C74.7998 97.2199 76.8598 98.0699 79.0598 98.0699H82.4698C84.6698 98.0699 86.7398 97.2099 88.2898 95.6599L88.6498 95.2999C90.1998 93.7399 91.0598 91.6799 91.0598 89.4799V84.5899C92.1098 83.9799 94.8598 82.7099 96.9698 84.7499C97.0898 84.8699 97.2398 84.9599 97.3898 85.0099L97.3598 89.7899C97.3498 91.9799 98.2298 94.1099 99.7698 95.6599C101.32 97.2199 103.39 98.0699 105.59 98.0699H109C111.2 98.0699 113.27 97.2099 114.82 95.6599L115.18 95.2999C116.73 93.7399 117.59 91.6799 117.59 89.4799V84.2199C119.15 84.0799 121.52 84.1399 122.91 85.1399C123.79 85.0099 124.8 85.0199 125.97 85.2499C125.97 85.1199 125.93 84.9999 125.87 84.8899ZM88.6598 89.4699C88.6598 91.0299 88.0498 92.4899 86.9498 93.5899L86.5898 93.9499C85.4898 95.0499 84.0298 95.6599 82.4698 95.6599H79.0598C77.4998 95.6599 76.0398 95.0499 74.9398 93.9499C73.8498 92.8599 73.2198 91.3399 73.2298 89.7999L73.2598 83.8199H88.6598V89.4699ZM115.22 89.4699C115.22 91.0299 114.61 92.4899 113.51 93.5899L113.15 93.9499C112.05 95.0499 110.58 95.6599 109.03 95.6599H105.62C104.06 95.6599 102.6 95.0499 101.5 93.9499C100.4 92.8599 99.7798 91.3399 99.7898 89.7999L99.8198 83.8199H115.22V89.4699Z" fill="#03283B"/>
<path opacity="0.22" d="M88.6606 83.8198V89.4698C88.6606 91.0298 88.0606 92.4898 86.9506 93.5898L86.5906 93.9498C85.4906 95.0598 84.0306 95.6598 82.4706 95.6598H79.0606C77.5006 95.6598 76.0306 95.0598 74.9306 93.9498C74.8706 93.8898 74.8106 93.8298 74.7506 93.7598C73.7706 92.6898 73.2206 91.2598 73.2306 89.7998L73.2606 83.8198H88.6606Z" fill="#FAFFFF"/>
<path opacity="0.22" d="M115.219 83.8198V89.4698C115.219 91.0298 114.609 92.4898 113.509 93.5898L113.139 93.9498C112.049 95.0598 110.579 95.6598 109.019 95.6598H105.609C104.049 95.6598 102.589 95.0598 101.489 93.9498C101.379 93.8398 101.279 93.7298 101.189 93.6098C100.279 92.5598 99.7694 91.1898 99.7794 89.7998L99.8094 83.8198H115.219Z" fill="#FAFFFF"/>
<path opacity="0.3" d="M88.66 84.9798V89.4698C88.66 91.0298 88.06 92.4898 86.95 93.5898L86.59 93.9498C85.49 95.0598 84.03 95.6598 82.47 95.6598H79.06C77.5 95.6598 76.03 95.0598 74.93 93.9498C74.87 93.8898 74.81 93.8298 74.75 93.7598L88.66 83.8198C88.47 84.1998 88.49 84.5698 88.66 84.9798Z" fill="#FAFFFF"/>
<path opacity="0.3" d="M115.219 83.8198V89.4698C115.219 91.0298 114.609 92.4898 113.509 93.5898L113.139 93.9498C112.049 95.0598 110.579 95.6598 109.019 95.6598H105.609C104.049 95.6598 102.589 95.0598 101.489 93.9498C101.379 93.8398 101.279 93.7298 101.189 93.6098L114.439 83.8198H115.219Z" fill="#FAFFFF"/>
<path d="M174.939 141.14H189.819C189.889 140.1 189.949 139.04 189.989 137.95H175.129L174.939 141.14Z" fill="#76A9E6"/>
</g>
<defs>
<clipPath id="clip0_1776_3688">
<rect width="447.05" height="267.03" fill="white"/>
</clipPath>
</defs>
</svg>
