<svg width="357" height="350" viewBox="0 0 357 350" fill="none" xmlns="http://www.w3.org/2000/svg">
<g clip-path="url(#clip0_1864_8595)">
<path d="M36.7139 90.823C41.9148 99.7797 52.6041 109.313 60.9827 113.647C67.6199 117.08 73.9532 122.506 76.3008 124.613V167.205V168.597V192.984L53.7602 169.982C53.4712 164.205 49.4264 159.722 49.4264 159.722C37.87 149.751 36.7139 140.803 36.7139 140.803C30.6475 115.379 36.7139 90.823 36.7139 90.823Z" fill="#9FCBFF"/>
<path d="M37.3844 160.449C56.1279 162.503 72.8188 182.128 76.2988 186.469V192.984V198.769V200.372V218.813C72.8232 210.247 64.9489 206.303 60.593 204.747C55.2004 202.821 34.3983 192.612 28.236 181.827C22.0722 171.042 0.115555 167.093 0.115555 167.093C7.91614 161.605 16.2948 158.138 37.3844 160.449Z" fill="#407AE6"/>
<path d="M40.4427 106.058C40.4692 106.162 43.1987 116.513 50.3313 130.454C55.4953 140.548 63.8666 154.196 76.2988 167.207V168.599C71.9503 164.119 67.842 159.307 64.0125 154.202C58.5728 146.953 53.6786 139.101 49.4657 130.866C42.2903 116.838 39.5417 106.404 39.5152 106.3L40.4427 106.058Z" fill="#173D7A"/>
<path d="M13.4709 165.846C24.7132 166.241 35.3435 168.733 45.0655 173.251C52.8425 176.865 60.0592 181.777 66.512 187.85C70.57 191.667 73.8156 195.476 76.2988 198.769V200.372C73.7611 196.901 70.3031 192.733 65.8558 188.547C55.833 179.116 38.6024 167.687 13.437 166.803L13.4709 165.846Z" fill="white"/>
<path d="M238.097 94.5758V39.8508C252.161 10.8972 281.434 0 281.434 0C276.941 9.27075 277.583 25.0312 279.745 36.1555C281.908 47.2798 284.072 63.6581 272.02 74.1645C270.57 75.4283 269.196 76.7141 267.901 78C267.901 78 250.401 94.6746 238.095 108.626V99.2798V94.5758H238.097Z" fill="#52A4EC"/>
<path d="M243.557 74.9121C246.844 64.9218 251.017 54.4655 255.957 43.8322C264.37 25.7286 272.203 13.2212 272.281 13.0973L273.092 13.6075C273.014 13.7314 265.207 26.1975 256.821 44.2495C250.234 58.4262 242.134 78.6163 238.098 99.2812V94.5773C239.504 88.2616 241.328 81.6893 243.557 74.9121Z" fill="white"/>
<path d="M81.2153 104.927L225.921 20.5882C229.733 18.366 238.275 20.9215 238.275 27.0838L234.52 162.776L83.6321 254.988C80.8098 256.713 76.992 255.176 76.4066 251.921C76.327 251.475 76.2857 251.018 76.2857 250.549V113.505C76.2857 109.972 78.1629 106.706 81.2153 104.927Z" fill="#52A4EC"/>
<path d="M85.0789 107.214L229.716 22.9165C233.527 20.6943 238.312 23.4444 238.312 27.8564V163.514C238.312 164.499 237.789 165.411 236.938 165.906L84.2429 254.902C82.3967 255.979 80.0786 254.647 80.0786 252.51V115.915C80.0786 112.331 81.9823 109.018 85.0789 107.214Z" fill="#184EAE"/>
<path d="M230.805 160.763L150.15 207.777L142.626 212.166L87.5895 244.254V115.084L230.805 31.5828V160.763Z" fill="url(#paint0_linear_1864_8595)"/>
<path d="M336.829 233.692C338.399 234.598 338.406 236.066 336.849 236.971L184.536 325.486C182.976 326.393 180.442 326.393 178.873 325.486L81.5444 269.293C79.9769 268.387 79.9666 266.919 81.5252 266.013L233.839 177.496C235.396 176.591 237.931 176.593 239.5 177.498L336.829 233.692Z" fill="#95C2EC"/>
<path d="M80.7579 257.614C80.7564 258.211 81.1501 258.81 81.9405 259.265L179.269 315.459C180.84 316.366 183.372 316.366 184.932 315.459L337.247 226.944C338.021 226.494 338.409 225.906 338.41 225.317L338.395 230.707C338.394 231.295 338.006 231.884 337.233 232.333L184.92 320.849C183.36 321.756 180.828 321.756 179.258 320.849L81.9287 264.655C81.1398 264.199 80.7446 263.601 80.7461 263.003L80.7579 257.614Z" fill="#184EAE"/>
<path d="M337.227 223.664C338.797 224.571 338.805 226.038 337.248 226.944L184.934 315.459C183.374 316.366 180.841 316.366 179.272 315.459L81.9429 259.265C80.3754 258.36 80.3651 256.891 81.9237 255.986L234.237 167.471C235.794 166.565 238.329 166.567 239.898 167.472L337.227 223.664Z" fill="white"/>
<path d="M242.727 180.804L234.254 185.728L225.735 180.808L234.206 175.886L242.727 180.804Z" fill="#9FCBFF"/>
<path d="M232.09 186.986L223.618 191.908L215.1 186.988L223.571 182.066L232.09 186.986Z" fill="#9FCBFF"/>
<path d="M221.455 193.165L212.984 198.088L204.463 193.168L212.935 188.246L221.455 193.165Z" fill="#9FCBFF"/>
<path d="M210.812 199.35L202.348 204.269L193.828 199.35L202.292 194.431L210.812 199.35Z" fill="#9FCBFF"/>
<path d="M200.178 205.53L191.714 210.449L183.195 205.53L191.659 200.612L200.178 205.53Z" fill="#9FCBFF"/>
<path d="M189.543 211.711L181.071 216.634L172.551 211.716L181.024 206.792L189.543 211.711Z" fill="#9FCBFF"/>
<path d="M178.908 217.891L170.437 222.815L161.916 217.896L170.388 212.972L178.908 217.891Z" fill="#9FCBFF"/>
<path d="M168.273 224.071L159.802 228.995L151.282 224.076L159.753 219.152L168.273 224.071Z" fill="#9FCBFF"/>
<path d="M157.639 230.251L149.166 235.175L140.647 230.256L149.118 225.334L157.639 230.251Z" fill="#9FCBFF"/>
<path d="M146.994 236.437L138.53 241.357L130.01 236.437L138.474 231.518L146.994 236.437Z" fill="#9FCBFF"/>
<path d="M136.359 242.617L127.895 247.537L119.375 242.617L127.839 237.698L136.359 242.617Z" fill="#9FCBFF"/>
<path d="M125.723 248.797L117.26 253.717L108.74 248.797L117.204 243.88L125.723 248.797Z" fill="#9FCBFF"/>
<path d="M115.088 254.979L106.616 259.901L98.0962 254.983L106.568 250.06L115.088 254.979Z" fill="#9FCBFF"/>
<path d="M252.896 187.227L235.66 197.243L227.141 192.324L244.376 182.308L252.896 187.227Z" fill="#9FCBFF"/>
<path d="M233.738 198.36L225.267 203.283L216.747 198.363L225.218 193.441L233.738 198.36Z" fill="#9FCBFF"/>
<path d="M223.594 204.256L215.122 209.18L206.602 204.26L215.074 199.337L223.594 204.256Z" fill="#9FCBFF"/>
<path d="M213.449 210.151L204.978 215.075L196.458 210.156L204.929 205.232L213.449 210.151Z" fill="#9FCBFF"/>
<path d="M203.295 216.053L194.831 220.97L186.312 216.053L194.776 211.133L203.295 216.053Z" fill="#9FCBFF"/>
<path d="M193.15 221.948L184.685 226.867L176.166 221.948L184.63 217.029L193.15 221.948Z" fill="#9FCBFF"/>
<path d="M183.004 227.843L174.54 232.763L166.021 227.843L174.485 222.924L183.004 227.843Z" fill="#9FCBFF"/>
<path d="M172.859 233.739L164.388 238.662L155.868 233.743L164.339 228.82L172.859 233.739Z" fill="#9FCBFF"/>
<path d="M162.713 239.636L154.241 244.558L145.721 239.64L154.193 234.716L162.713 239.636Z" fill="#9FCBFF"/>
<path d="M152.568 245.531L144.097 250.455L135.577 245.536L144.048 240.612L152.568 245.531Z" fill="#9FCBFF"/>
<path d="M142.424 251.428L133.951 256.35L125.432 251.432L133.904 246.509L142.424 251.428Z" fill="#9FCBFF"/>
<path d="M132.176 257.382L117.22 266.074L108.702 261.154L123.656 252.463L132.176 257.382Z" fill="#9FCBFF"/>
<path d="M263.549 193.378L242.082 205.853L233.554 200.931L255.023 188.454L263.549 193.378Z" fill="#9FCBFF"/>
<path d="M240.158 206.971L231.687 211.893L223.161 206.971L231.631 202.047L240.158 206.971Z" fill="#9FCBFF"/>
<path d="M230.152 212.785L221.688 217.704L213.162 212.78L221.626 207.863L230.152 212.785Z" fill="#9FCBFF"/>
<path d="M220.154 218.596L211.69 223.516L203.164 218.592L211.627 213.673L220.154 218.596Z" fill="#9FCBFF"/>
<path d="M210.154 224.408L201.69 229.327L193.164 224.403L201.628 219.484L210.154 224.408Z" fill="#9FCBFF"/>
<path d="M200.154 230.219L191.69 235.137L183.164 230.213L191.628 225.295L200.154 230.219Z" fill="#9FCBFF"/>
<path d="M190.156 236.029L181.692 240.948L173.165 236.024L181.63 231.107L190.156 236.029Z" fill="#9FCBFF"/>
<path d="M180.156 241.84L171.692 246.758L163.165 241.836L171.629 236.917L180.156 241.84Z" fill="#9FCBFF"/>
<path d="M170.158 247.65L161.687 252.574L153.161 247.65L161.632 242.728L170.158 247.65Z" fill="#9FCBFF"/>
<path d="M160.158 253.461L151.688 258.385L143.159 253.461L151.631 248.539L160.158 253.461Z" fill="#9FCBFF"/>
<path d="M149.457 259.68L127.872 272.224L119.346 267.302L140.931 254.758L149.457 259.68Z" fill="#9FCBFF"/>
<path d="M284.84 205.67L274.103 211.91L263.296 205.67L258.436 208.495L250.07 203.666L265.667 194.6L284.84 205.67Z" fill="#9FCBFF"/>
<path d="M256.652 209.718L248.188 214.637L239.662 209.715L248.126 204.796L256.652 209.718Z" fill="#9FCBFF"/>
<path d="M271.977 213.146L263.505 218.07L254.979 213.146L263.45 208.224L271.977 213.146Z" fill="#9FCBFF"/>
<path d="M295.863 212.033L274.395 224.509L265.867 219.586L287.336 207.109L295.863 212.033Z" fill="#9FCBFF"/>
<path d="M246.559 215.585L238.094 220.503L229.567 215.581L238.031 210.661L246.559 215.585Z" fill="#9FCBFF"/>
<path d="M236.463 221.451L227.993 226.373L219.465 221.451L227.937 216.529L236.463 221.451Z" fill="#9FCBFF"/>
<path d="M226.371 227.317L217.9 232.239L209.373 227.317L217.844 222.395L226.371 227.317Z" fill="#9FCBFF"/>
<path d="M216.275 233.183L207.804 238.105L199.278 233.183L207.749 228.259L216.275 233.183Z" fill="#9FCBFF"/>
<path d="M206.182 239.049L197.71 243.973L189.184 239.049L197.654 234.127L206.182 239.049Z" fill="#9FCBFF"/>
<path d="M196.08 244.919L187.616 249.838L179.09 244.915L187.554 239.997L196.08 244.919Z" fill="#9FCBFF"/>
<path d="M185.986 250.785L177.522 255.704L168.996 250.782L177.46 245.863L185.986 250.785Z" fill="#9FCBFF"/>
<path d="M175.893 256.651L167.42 261.575L158.894 256.653L167.365 251.729L175.893 256.651Z" fill="#9FCBFF"/>
<path d="M165.797 262.518L157.325 267.441L148.798 262.518L157.271 257.595L165.797 262.518Z" fill="#9FCBFF"/>
<path d="M155.25 268.647L138.519 278.37L129.993 273.448L146.724 263.725L155.25 268.647Z" fill="#9FCBFF"/>
<path d="M261.883 219.012L253.411 223.936L244.884 219.014L253.355 214.09L261.883 219.012Z" fill="#9FCBFF"/>
<path d="M251.781 224.882L243.317 229.802L234.791 224.878L243.255 219.959L251.781 224.882Z" fill="#9FCBFF"/>
<path d="M241.688 230.75L233.223 235.668L224.697 230.745L233.161 225.826L241.688 230.75Z" fill="#9FCBFF"/>
<path d="M231.594 236.614L223.122 241.538L214.595 236.616L223.066 231.692L231.594 236.614Z" fill="#9FCBFF"/>
<path d="M221.498 242.482L213.027 247.404L204.499 242.482L212.97 237.558L221.498 242.482Z" fill="#9FCBFF"/>
<path d="M211.404 248.348L202.933 253.27L194.405 248.348L202.877 243.424L211.404 248.348Z" fill="#9FCBFF"/>
<path d="M201.309 254.214L192.837 259.136L184.311 254.214L192.781 249.29L201.309 254.214Z" fill="#9FCBFF"/>
<path d="M191.209 260.084L182.743 265.003L174.217 260.079L182.681 255.162L191.209 260.084Z" fill="#9FCBFF"/>
<path d="M181.113 265.95L172.649 270.869L164.122 265.947L172.587 261.028L181.113 265.95Z" fill="#9FCBFF"/>
<path d="M170.748 271.973L149.164 284.518L140.637 279.594L162.222 267.05L170.748 271.973Z" fill="#9FCBFF"/>
<path d="M272.465 225.63L263.993 230.554L255.467 225.63L263.939 220.706L272.465 225.63Z" fill="#9FCBFF"/>
<path d="M262.445 231.453L253.972 236.377L245.446 231.455L253.918 226.531L262.445 231.453Z" fill="#9FCBFF"/>
<path d="M252.424 237.278L243.958 242.197L235.432 237.273L243.896 232.354L252.424 237.278Z" fill="#9FCBFF"/>
<path d="M242.41 243.097L233.939 248.02L225.411 243.097L233.883 238.174L242.41 243.097Z" fill="#9FCBFF"/>
<path d="M232.426 248.899L193.992 271.233L185.466 266.311L223.898 243.977L232.426 248.899Z" fill="#9FCBFF"/>
<path d="M191.988 272.398L183.517 277.32L174.991 272.398L183.462 267.474L191.988 272.398Z" fill="#9FCBFF"/>
<path d="M181.77 278.336L160.184 290.879L151.658 285.957L173.243 273.413L181.77 278.336Z" fill="#9FCBFF"/>
<path d="M272.733 259.115C272.522 259.441 272.186 259.746 271.734 260.009L236.509 280.339C234.765 281.347 231.937 281.347 230.192 280.339L213.762 270.857C213.311 270.595 212.975 270.29 212.764 269.975C212.133 269.049 212.469 267.957 213.762 267.211L248.987 246.87C250.733 245.872 253.562 245.872 255.294 246.87L271.734 256.362C273.017 257.108 273.354 258.189 272.733 259.115Z" fill="#184EAE"/>
<path d="M272.732 259.115C272.522 259.441 272.185 259.746 271.734 260.009L236.509 280.339C234.765 281.347 231.936 281.347 230.192 280.339L213.762 270.857C213.311 270.595 212.975 270.29 212.764 269.975C212.973 269.65 213.311 269.344 213.762 269.082L248.987 248.741C250.733 247.733 253.561 247.733 255.294 248.741L271.734 258.233C272.187 258.485 272.523 258.789 272.732 259.115Z" fill="#9FCBFF"/>
<path fill-rule="evenodd" clip-rule="evenodd" d="M218.047 55.0376L189.63 72.4245V70.8216L218.047 53.4347V55.0376Z" fill="#52A4EC"/>
<path fill-rule="evenodd" clip-rule="evenodd" d="M218.047 59.0028L212.292 62.5226V60.9197L218.047 57.3999V59.0028Z" fill="#52A4EC"/>
<path fill-rule="evenodd" clip-rule="evenodd" d="M218.047 62.9576L205.746 70.4839V68.881L218.047 61.3547V62.9576Z" fill="#52A4EC"/>
<path fill-rule="evenodd" clip-rule="evenodd" d="M214.959 68.8132L204.904 74.9667V73.3623L214.959 67.2089V68.8132Z" fill="#52A4EC"/>
<path fill-rule="evenodd" clip-rule="evenodd" d="M214.959 72.7681L204.904 78.9215V77.3172L214.959 71.1637V72.7681Z" fill="#52A4EC"/>
<path fill-rule="evenodd" clip-rule="evenodd" d="M207.98 81.0036L198.2 86.9875V85.3846L207.98 79.4008V81.0036Z" fill="#52A4EC"/>
<path fill-rule="evenodd" clip-rule="evenodd" d="M208.697 64.7257L190.47 75.8736V74.2692L208.697 63.1213V64.7257Z" fill="#52A4EC"/>
<path fill-rule="evenodd" clip-rule="evenodd" d="M187.875 77.4631L179.173 82.7879V81.185L187.875 75.8602V77.4631Z" fill="#52A4EC"/>
<path fill-rule="evenodd" clip-rule="evenodd" d="M175.867 84.8096L164.119 91.9997V90.3953L175.867 83.2052V84.8096Z" fill="#52A4EC"/>
<path fill-rule="evenodd" clip-rule="evenodd" d="M202.865 72.2475L192.611 78.5204V76.9161L202.865 70.6447V72.2475Z" fill="#52A4EC"/>
<path fill-rule="evenodd" clip-rule="evenodd" d="M201.834 76.8453L195.965 80.4374V78.8301L201.834 75.238V76.8453Z" fill="#52A4EC"/>
<path fill-rule="evenodd" clip-rule="evenodd" d="M201.834 80.8001L191.78 86.9536V85.3463L201.834 79.1973V80.8001Z" fill="#52A4EC"/>
<path fill-rule="evenodd" clip-rule="evenodd" d="M193.17 82.1465L181.995 88.9827V87.3783L193.17 80.5421V82.1465Z" fill="#52A4EC"/>
<path fill-rule="evenodd" clip-rule="evenodd" d="M179.762 90.3481L173.899 93.9358V92.3329L179.762 88.7438V90.3481Z" fill="#52A4EC"/>
<path fill-rule="evenodd" clip-rule="evenodd" d="M171.383 95.4797L164.12 99.9197V98.3169L171.383 93.8724V95.4797Z" fill="#52A4EC"/>
<path fill-rule="evenodd" clip-rule="evenodd" d="M189.543 88.3205L176.842 96.0902V94.4873L189.543 86.7162V88.3205Z" fill="#52A4EC"/>
<path fill-rule="evenodd" clip-rule="evenodd" d="M174.945 97.2522L171.154 99.5732V97.9659L174.945 95.6493V97.2522Z" fill="#52A4EC"/>
<path fill-rule="evenodd" clip-rule="evenodd" d="M195.406 88.6966L188.135 93.1484V91.5441L195.406 87.0938V88.6966Z" fill="#52A4EC"/>
<path fill-rule="evenodd" clip-rule="evenodd" d="M214.959 84.6533L204.904 90.8068V89.2039L214.959 83.0504V84.6533Z" fill="#52A4EC"/>
<path fill-rule="evenodd" clip-rule="evenodd" d="M214.959 88.6184L204.904 94.7719V93.169L214.959 87.0155V88.6184Z" fill="#52A4EC"/>
<path fill-rule="evenodd" clip-rule="evenodd" d="M201.834 92.6854L195.965 96.2775V94.6732L201.834 91.0825V92.6854Z" fill="#52A4EC"/>
<path fill-rule="evenodd" clip-rule="evenodd" d="M201.834 96.652L192.779 102.193V100.589L201.834 95.0476V96.652Z" fill="#52A4EC"/>
<path fill-rule="evenodd" clip-rule="evenodd" d="M193.17 97.9866L184.579 103.243V101.639L193.17 96.3822V97.9866Z" fill="#52A4EC"/>
<path fill-rule="evenodd" clip-rule="evenodd" d="M182.863 104.293L178.347 107.06V105.455L182.863 102.689V104.293Z" fill="#52A4EC"/>
<path fill-rule="evenodd" clip-rule="evenodd" d="M176.41 108.241L170.823 111.66V110.056L176.41 106.638V108.241Z" fill="#52A4EC"/>
<path fill-rule="evenodd" clip-rule="evenodd" d="M183.965 107.586L173.899 113.745V112.14L183.965 105.982V107.586Z" fill="#52A4EC"/>
<path fill-rule="evenodd" clip-rule="evenodd" d="M214.959 92.5777L204.904 98.7283V97.1239L214.959 90.9734V92.5777Z" fill="#52A4EC"/>
<path fill-rule="evenodd" clip-rule="evenodd" d="M214.959 96.5429L204.904 102.696V101.089L214.959 94.9355V96.5429Z" fill="#52A4EC"/>
<path fill-rule="evenodd" clip-rule="evenodd" d="M201.834 100.607L195.965 104.197V102.595L201.834 99.0024V100.607Z" fill="#52A4EC"/>
<path fill-rule="evenodd" clip-rule="evenodd" d="M201.834 104.572L183.399 115.853V114.248L201.834 102.968V104.572Z" fill="#52A4EC"/>
<path fill-rule="evenodd" clip-rule="evenodd" d="M193.17 105.907L181.995 112.747V111.143L193.17 104.304V105.907Z" fill="#52A4EC"/>
<path fill-rule="evenodd" clip-rule="evenodd" d="M179.762 114.113L173.899 117.697V116.094L179.762 112.51V114.113Z" fill="#52A4EC"/>
<path fill-rule="evenodd" clip-rule="evenodd" d="M171.383 119.24L164.12 123.684V122.081L171.383 117.637V119.24Z" fill="#52A4EC"/>
<path fill-rule="evenodd" clip-rule="evenodd" d="M181.162 117.223L170.822 123.549V121.944L181.162 115.615V117.223Z" fill="#52A4EC"/>
<path fill-rule="evenodd" clip-rule="evenodd" d="M190.764 103.426L186.481 106.047V104.442L190.764 101.823V103.426Z" fill="#52A4EC"/>
<path fill-rule="evenodd" clip-rule="evenodd" d="M218.047 102.574L212.292 106.094V104.489L218.047 100.97V102.574Z" fill="#52A4EC"/>
<path fill-rule="evenodd" clip-rule="evenodd" d="M218.047 106.529L205.746 114.055V112.451L218.047 104.924V106.529Z" fill="#52A4EC"/>
<path fill-rule="evenodd" clip-rule="evenodd" d="M214.959 112.383L204.904 118.536V116.933L214.959 110.78V112.383Z" fill="#52A4EC"/>
<path fill-rule="evenodd" clip-rule="evenodd" d="M214.959 116.348L204.904 122.503V120.888L214.959 114.735V116.348Z" fill="#52A4EC"/>
<path fill-rule="evenodd" clip-rule="evenodd" d="M207.98 124.575L198.2 130.559V128.954L207.98 122.97V124.575Z" fill="#52A4EC"/>
<path fill-rule="evenodd" clip-rule="evenodd" d="M208.697 108.295L198.585 114.483V112.877L208.697 106.693V108.295Z" fill="#52A4EC"/>
<path fill-rule="evenodd" clip-rule="evenodd" d="M195.996 116.067L190.89 119.19V117.585L195.996 114.462V116.067Z" fill="#52A4EC"/>
<path fill-rule="evenodd" clip-rule="evenodd" d="M187.584 121.214L171.341 131.15V129.546L187.584 119.607V121.214Z" fill="#52A4EC"/>
<path fill-rule="evenodd" clip-rule="evenodd" d="M202.865 115.819L192.611 122.092V120.487L202.865 114.214V115.819Z" fill="#52A4EC"/>
<path fill-rule="evenodd" clip-rule="evenodd" d="M201.834 120.412L190.378 127.425V125.822L201.834 118.809V120.412Z" fill="#52A4EC"/>
<path fill-rule="evenodd" clip-rule="evenodd" d="M201.834 124.382L194.013 129.165V127.551L201.834 122.767V124.382Z" fill="#52A4EC"/>
<path fill-rule="evenodd" clip-rule="evenodd" d="M187.584 129.134L179.068 134.344V132.74L187.584 127.531V129.134Z" fill="#52A4EC"/>
<path fill-rule="evenodd" clip-rule="evenodd" d="M191.779 130.531L176.842 139.672V138.057L191.779 128.92V130.531Z" fill="#52A4EC"/>
<path fill-rule="evenodd" clip-rule="evenodd" d="M174.945 140.834L171.154 143.155V141.54L174.945 139.216V140.834Z" fill="#52A4EC"/>
<path fill-rule="evenodd" clip-rule="evenodd" d="M195.406 132.268L188.135 136.718V135.115L195.406 130.663V132.268Z" fill="#52A4EC"/>
<path fill-rule="evenodd" clip-rule="evenodd" d="M186.523 137.705L172.988 145.984V144.384L186.523 136.1V137.705Z" fill="#52A4EC"/>
<path fill-rule="evenodd" clip-rule="evenodd" d="M170.975 147.219L166.928 149.694V148.092L170.975 145.614V147.219Z" fill="#52A4EC"/>
<path fill-rule="evenodd" clip-rule="evenodd" d="M214.959 128.224L204.904 134.378V132.774L214.959 126.62V128.224Z" fill="#52A4EC"/>
<path fill-rule="evenodd" clip-rule="evenodd" d="M214.959 132.19L204.904 138.346V136.739L214.959 130.585V132.19Z" fill="#52A4EC"/>
<path fill-rule="evenodd" clip-rule="evenodd" d="M201.834 136.257L185.279 146.386V144.783L201.834 134.654V136.257Z" fill="#52A4EC"/>
<path fill-rule="evenodd" clip-rule="evenodd" d="M201.834 140.222L192.779 145.763V144.16L201.834 138.619V140.222Z" fill="#52A4EC"/>
<path fill-rule="evenodd" clip-rule="evenodd" d="M182.863 147.863L178.347 150.629V149.026L182.863 146.26V147.863Z" fill="#52A4EC"/>
<path fill-rule="evenodd" clip-rule="evenodd" d="M176.41 151.815L170.823 155.23V153.627L176.41 150.209V151.815Z" fill="#52A4EC"/>
<path fill-rule="evenodd" clip-rule="evenodd" d="M183.965 151.156L173.899 157.314V155.709L183.965 149.553V151.156Z" fill="#52A4EC"/>
<path fill-rule="evenodd" clip-rule="evenodd" d="M190.764 146.997L186.481 149.613V148.01L190.764 145.393V146.997Z" fill="#52A4EC"/>
<path fill-rule="evenodd" clip-rule="evenodd" d="M218.047 136.798L212.292 140.321V138.716L218.047 135.193V136.798Z" fill="#52A4EC"/>
<path fill-rule="evenodd" clip-rule="evenodd" d="M218.047 140.755L205.746 148.282V146.677L218.047 139.148V140.755Z" fill="#52A4EC"/>
<path fill-rule="evenodd" clip-rule="evenodd" d="M214.959 146.61L204.904 152.76V151.156L214.959 145.002V146.61Z" fill="#52A4EC"/>
<path fill-rule="evenodd" clip-rule="evenodd" d="M214.959 150.565L204.904 156.715V155.111L214.959 148.962V150.565Z" fill="#52A4EC"/>
<path fill-rule="evenodd" clip-rule="evenodd" d="M207.98 158.802L198.2 164.786V163.181L207.98 157.197V158.802Z" fill="#52A4EC"/>
<path fill-rule="evenodd" clip-rule="evenodd" d="M208.697 142.519L198.585 148.707V147.102L208.697 140.915V142.519Z" fill="#52A4EC"/>
<path fill-rule="evenodd" clip-rule="evenodd" d="M195.996 150.29L190.89 153.416V151.812L195.996 148.686V150.29Z" fill="#52A4EC"/>
<path fill-rule="evenodd" clip-rule="evenodd" d="M187.584 155.438L164.119 169.796V168.193L187.584 153.834V155.438Z" fill="#52A4EC"/>
<path fill-rule="evenodd" clip-rule="evenodd" d="M202.865 150.042L192.611 156.317V154.714L202.865 148.438V150.042Z" fill="#52A4EC"/>
<path fill-rule="evenodd" clip-rule="evenodd" d="M201.834 154.639L190.378 161.649V160.045L201.834 153.036V154.639Z" fill="#52A4EC"/>
<path fill-rule="evenodd" clip-rule="evenodd" d="M201.834 158.594L194.013 163.382V161.779L201.834 156.991V158.594Z" fill="#52A4EC"/>
<path fill-rule="evenodd" clip-rule="evenodd" d="M187.584 163.358L179.068 168.566V166.963L187.584 161.754V163.358Z" fill="#52A4EC"/>
<path fill-rule="evenodd" clip-rule="evenodd" d="M176.836 169.936L171.659 173.104V171.499L176.836 168.332V169.936Z" fill="#52A4EC"/>
<path fill-rule="evenodd" clip-rule="evenodd" d="M169.139 174.646L164.119 177.718V176.113L169.139 173.042V174.646Z" fill="#52A4EC"/>
<path fill-rule="evenodd" clip-rule="evenodd" d="M191.779 164.747L176.842 173.888V172.284L191.779 163.144V164.747Z" fill="#52A4EC"/>
<path fill-rule="evenodd" clip-rule="evenodd" d="M174.945 175.047L171.154 177.367V175.764L174.945 173.443V175.047Z" fill="#52A4EC"/>
<path fill-rule="evenodd" clip-rule="evenodd" d="M195.406 166.494L188.135 170.942V169.338L195.406 164.89V166.494Z" fill="#52A4EC"/>
<path fill-rule="evenodd" clip-rule="evenodd" d="M152.041 96.1772L123.626 113.564V111.961L152.041 94.5743V96.1772Z" fill="#52A4EC"/>
<path fill-rule="evenodd" clip-rule="evenodd" d="M152.041 100.142L146.287 103.662V102.059L152.041 98.5396V100.142Z" fill="#52A4EC"/>
<path fill-rule="evenodd" clip-rule="evenodd" d="M152.041 104.097L139.741 111.624V110.021L152.041 102.494V104.097Z" fill="#52A4EC"/>
<path fill-rule="evenodd" clip-rule="evenodd" d="M148.955 109.953L138.898 116.106V114.502L148.955 108.349V109.953Z" fill="#52A4EC"/>
<path fill-rule="evenodd" clip-rule="evenodd" d="M148.955 113.908L138.898 120.061V118.457L148.955 112.303V113.908Z" fill="#52A4EC"/>
<path fill-rule="evenodd" clip-rule="evenodd" d="M141.975 122.143L132.194 128.127V126.524L141.975 120.54V122.143Z" fill="#52A4EC"/>
<path fill-rule="evenodd" clip-rule="evenodd" d="M142.691 105.865L124.465 117.013V115.409L142.691 104.261V105.865Z" fill="#52A4EC"/>
<path fill-rule="evenodd" clip-rule="evenodd" d="M121.871 118.603L113.168 123.928V122.325L121.871 117V118.603Z" fill="#52A4EC"/>
<path fill-rule="evenodd" clip-rule="evenodd" d="M109.861 125.949L98.1133 133.139V131.535L109.861 124.345V125.949Z" fill="#52A4EC"/>
<path fill-rule="evenodd" clip-rule="evenodd" d="M136.861 113.387L126.607 119.66V118.056L136.861 111.784V113.387Z" fill="#52A4EC"/>
<path fill-rule="evenodd" clip-rule="evenodd" d="M135.828 117.985L129.961 121.577V119.97L135.828 116.378V117.985Z" fill="#52A4EC"/>
<path fill-rule="evenodd" clip-rule="evenodd" d="M135.828 121.94L125.774 128.093V126.486L135.828 120.337V121.94Z" fill="#52A4EC"/>
<path fill-rule="evenodd" clip-rule="evenodd" d="M127.166 123.286L115.992 130.122V128.518L127.166 121.682V123.286Z" fill="#52A4EC"/>
<path fill-rule="evenodd" clip-rule="evenodd" d="M113.758 131.488L107.895 135.075V133.473L113.758 129.883V131.488Z" fill="#52A4EC"/>
<path fill-rule="evenodd" clip-rule="evenodd" d="M105.377 136.619L98.1131 141.059V139.456L105.377 135.012V136.619Z" fill="#52A4EC"/>
<path fill-rule="evenodd" clip-rule="evenodd" d="M123.539 129.46L110.838 137.23V135.627L123.539 127.856V129.46Z" fill="#52A4EC"/>
<path fill-rule="evenodd" clip-rule="evenodd" d="M108.941 138.392L105.149 140.713V139.106L108.941 136.789V138.392Z" fill="#52A4EC"/>
<path fill-rule="evenodd" clip-rule="evenodd" d="M129.402 129.836L122.131 134.288V132.684L129.402 128.233V129.836Z" fill="#52A4EC"/>
<path fill-rule="evenodd" clip-rule="evenodd" d="M148.955 125.793L138.898 131.946V130.344L148.955 124.19V125.793Z" fill="#52A4EC"/>
<path fill-rule="evenodd" clip-rule="evenodd" d="M148.955 129.758L138.898 135.911V134.309L148.955 128.155V129.758Z" fill="#52A4EC"/>
<path fill-rule="evenodd" clip-rule="evenodd" d="M135.828 133.825L129.961 137.417V135.813L135.828 132.222V133.825Z" fill="#52A4EC"/>
<path fill-rule="evenodd" clip-rule="evenodd" d="M135.828 137.792L126.774 143.333V141.729L135.828 136.187V137.792Z" fill="#52A4EC"/>
<path fill-rule="evenodd" clip-rule="evenodd" d="M127.166 139.126L118.574 144.383V142.779L127.166 137.522V139.126Z" fill="#52A4EC"/>
<path fill-rule="evenodd" clip-rule="evenodd" d="M116.859 145.433L112.341 148.199V146.595L116.859 143.829V145.433Z" fill="#52A4EC"/>
<path fill-rule="evenodd" clip-rule="evenodd" d="M110.406 149.38L104.819 152.8V151.196L110.406 147.778V149.38Z" fill="#52A4EC"/>
<path fill-rule="evenodd" clip-rule="evenodd" d="M117.959 148.726L107.895 154.885V153.279L117.959 147.121V148.726Z" fill="#52A4EC"/>
<path fill-rule="evenodd" clip-rule="evenodd" d="M148.955 133.717L138.898 139.868V138.264L148.955 132.113V133.717Z" fill="#52A4EC"/>
<path fill-rule="evenodd" clip-rule="evenodd" d="M148.955 137.683L138.898 143.836V142.229L148.955 136.075V137.683Z" fill="#52A4EC"/>
<path fill-rule="evenodd" clip-rule="evenodd" d="M135.828 141.746L129.961 145.337V143.734L135.828 140.142V141.746Z" fill="#52A4EC"/>
<path fill-rule="evenodd" clip-rule="evenodd" d="M135.828 145.712L117.394 156.992V155.388L135.828 144.107V145.712Z" fill="#52A4EC"/>
<path fill-rule="evenodd" clip-rule="evenodd" d="M127.166 147.046L115.992 153.887V152.283L127.166 145.443V147.046Z" fill="#52A4EC"/>
<path fill-rule="evenodd" clip-rule="evenodd" d="M113.758 155.252L107.895 158.837V157.234L113.758 153.649V155.252Z" fill="#52A4EC"/>
<path fill-rule="evenodd" clip-rule="evenodd" d="M105.377 160.379L98.1131 164.824V163.221L105.377 158.776V160.379Z" fill="#52A4EC"/>
<path fill-rule="evenodd" clip-rule="evenodd" d="M115.156 158.362L104.818 164.688V163.084L115.156 156.755V158.362Z" fill="#52A4EC"/>
<path fill-rule="evenodd" clip-rule="evenodd" d="M124.758 144.566L120.477 147.186V145.582L124.758 142.963V144.566Z" fill="#52A4EC"/>
<path fill-rule="evenodd" clip-rule="evenodd" d="M152.041 143.714L146.287 147.233V145.629L152.041 142.109V143.714Z" fill="#52A4EC"/>
<path fill-rule="evenodd" clip-rule="evenodd" d="M152.041 147.668L139.741 155.195V153.59L152.041 146.064V147.668Z" fill="#52A4EC"/>
<path fill-rule="evenodd" clip-rule="evenodd" d="M148.955 153.523L138.898 159.676V158.073L148.955 151.92V153.523Z" fill="#52A4EC"/>
<path fill-rule="evenodd" clip-rule="evenodd" d="M148.955 157.488L138.898 163.641V162.028L148.955 155.875V157.488Z" fill="#52A4EC"/>
<path fill-rule="evenodd" clip-rule="evenodd" d="M141.975 165.714L132.194 171.698V170.094L141.975 164.11V165.714Z" fill="#52A4EC"/>
<path fill-rule="evenodd" clip-rule="evenodd" d="M142.691 149.435L132.58 155.622V154.015L142.691 147.832V149.435Z" fill="#52A4EC"/>
<path fill-rule="evenodd" clip-rule="evenodd" d="M129.992 157.206L124.884 160.329V158.725L129.992 155.602V157.206Z" fill="#52A4EC"/>
<path fill-rule="evenodd" clip-rule="evenodd" d="M121.58 162.354L105.337 172.29V170.685L121.58 160.747V162.354Z" fill="#52A4EC"/>
<path fill-rule="evenodd" clip-rule="evenodd" d="M136.861 156.958L126.607 163.231V161.627L136.861 155.354V156.958Z" fill="#52A4EC"/>
<path fill-rule="evenodd" clip-rule="evenodd" d="M135.828 161.552L124.373 168.565V166.962L135.828 159.949V161.552Z" fill="#52A4EC"/>
<path fill-rule="evenodd" clip-rule="evenodd" d="M135.828 165.521L128.008 170.305V168.69L135.828 163.907V165.521Z" fill="#52A4EC"/>
<path fill-rule="evenodd" clip-rule="evenodd" d="M121.58 170.274L113.064 175.484V173.879L121.58 168.671V170.274Z" fill="#52A4EC"/>
<path fill-rule="evenodd" clip-rule="evenodd" d="M125.773 171.67L110.837 180.811V179.197L125.773 170.06V171.67Z" fill="#52A4EC"/>
<path fill-rule="evenodd" clip-rule="evenodd" d="M108.941 181.973L105.149 184.294V182.68L108.941 180.356V181.973Z" fill="#52A4EC"/>
<path fill-rule="evenodd" clip-rule="evenodd" d="M129.402 173.407L122.131 177.858V176.255L129.402 171.803V173.407Z" fill="#52A4EC"/>
<path fill-rule="evenodd" clip-rule="evenodd" d="M120.518 178.844L106.982 187.124V185.524L120.518 177.24V178.844Z" fill="#52A4EC"/>
<path fill-rule="evenodd" clip-rule="evenodd" d="M104.969 188.358L100.924 190.834V189.231L104.969 186.754V188.358Z" fill="#52A4EC"/>
<path fill-rule="evenodd" clip-rule="evenodd" d="M148.955 169.364L138.898 175.518V173.913L148.955 167.76V169.364Z" fill="#52A4EC"/>
<path fill-rule="evenodd" clip-rule="evenodd" d="M148.955 173.329L138.898 179.486V177.878L148.955 171.725V173.329Z" fill="#52A4EC"/>
<path fill-rule="evenodd" clip-rule="evenodd" d="M135.828 177.396L119.274 187.525V185.922L135.828 175.793V177.396Z" fill="#52A4EC"/>
<path fill-rule="evenodd" clip-rule="evenodd" d="M135.828 181.361L126.774 186.903V185.3L135.828 179.759V181.361Z" fill="#52A4EC"/>
<path fill-rule="evenodd" clip-rule="evenodd" d="M116.859 189.003L112.341 191.769V190.166L116.859 187.4V189.003Z" fill="#52A4EC"/>
<path fill-rule="evenodd" clip-rule="evenodd" d="M110.406 192.955L104.819 196.37V194.767L110.406 191.349V192.955Z" fill="#52A4EC"/>
<path fill-rule="evenodd" clip-rule="evenodd" d="M117.959 192.296L107.895 198.453V196.849L117.959 190.693V192.296Z" fill="#52A4EC"/>
<path fill-rule="evenodd" clip-rule="evenodd" d="M124.758 188.137L120.477 190.753V189.15L124.758 186.533V188.137Z" fill="#52A4EC"/>
<path fill-rule="evenodd" clip-rule="evenodd" d="M152.041 177.937L146.287 181.46V179.856L152.041 176.333V177.937Z" fill="#52A4EC"/>
<path fill-rule="evenodd" clip-rule="evenodd" d="M152.041 181.895L139.741 189.421V187.817L152.041 180.288V181.895Z" fill="#52A4EC"/>
<path fill-rule="evenodd" clip-rule="evenodd" d="M148.955 187.749L138.898 193.9V192.295L148.955 186.142V187.749Z" fill="#52A4EC"/>
<path fill-rule="evenodd" clip-rule="evenodd" d="M148.955 191.704L138.898 197.855V196.25L148.955 190.101V191.704Z" fill="#52A4EC"/>
<path fill-rule="evenodd" clip-rule="evenodd" d="M141.975 199.941L132.194 205.925V204.321L141.975 198.337V199.941Z" fill="#52A4EC"/>
<path fill-rule="evenodd" clip-rule="evenodd" d="M142.691 183.659L132.58 189.846V188.242L142.691 182.054V183.659Z" fill="#52A4EC"/>
<path fill-rule="evenodd" clip-rule="evenodd" d="M129.992 191.43L124.884 194.556V192.952L129.992 189.826V191.43Z" fill="#52A4EC"/>
<path fill-rule="evenodd" clip-rule="evenodd" d="M121.58 196.578L98.1134 210.936V209.333L121.58 194.973V196.578Z" fill="#52A4EC"/>
<path fill-rule="evenodd" clip-rule="evenodd" d="M136.861 191.182L126.607 197.457V195.854L136.861 189.578V191.182Z" fill="#52A4EC"/>
<path fill-rule="evenodd" clip-rule="evenodd" d="M135.828 195.778L124.373 202.789V201.184L135.828 194.176V195.778Z" fill="#52A4EC"/>
<path fill-rule="evenodd" clip-rule="evenodd" d="M135.828 199.733L128.008 204.521V202.918L135.828 198.13V199.733Z" fill="#52A4EC"/>
<path fill-rule="evenodd" clip-rule="evenodd" d="M121.58 204.498L113.064 209.706V208.103L121.58 202.893V204.498Z" fill="#52A4EC"/>
<path fill-rule="evenodd" clip-rule="evenodd" d="M110.83 211.076L105.651 214.243V212.639L110.83 209.472V211.076Z" fill="#52A4EC"/>
<path fill-rule="evenodd" clip-rule="evenodd" d="M103.135 215.786L98.1138 218.857V217.253L103.135 214.181V215.786Z" fill="#52A4EC"/>
<path fill-rule="evenodd" clip-rule="evenodd" d="M125.773 205.887L110.837 215.028V213.423L125.773 204.284V205.887Z" fill="#52A4EC"/>
<path fill-rule="evenodd" clip-rule="evenodd" d="M108.941 216.187L105.149 218.506V216.903L108.941 214.582V216.187Z" fill="#52A4EC"/>
<path fill-rule="evenodd" clip-rule="evenodd" d="M129.402 207.634L122.131 212.082V210.477L129.402 206.03V207.634Z" fill="#52A4EC"/>
<path opacity="0.39" d="M199.697 250.116C181.98 250.004 167.668 241.622 167.733 231.393C167.797 221.164 182.213 212.963 199.931 213.074C217.648 213.186 231.96 221.568 231.895 231.797C231.831 242.026 217.415 250.227 199.697 250.116Z" fill="#184EAE"/>
<path d="M233.41 130.411C233.73 149.767 238.533 180.763 243.929 183.877C249.324 186.993 253.269 161.047 252.949 141.692C252.629 122.337 248.164 114.3 242.768 111.186C237.373 108.07 233.09 111.056 233.41 130.411Z" fill="url(#paint1_radial_1864_8595)"/>
<path d="M196.84 163.231C224.123 163.231 246.319 150.671 247.13 135.003C247.153 135.586 247.168 136.183 247.168 136.814C247.168 164.61 224.636 229.42 196.839 229.42C169.044 229.42 146.511 164.61 146.511 136.814C146.511 136.183 146.527 135.586 146.549 135.003C147.362 150.671 169.557 163.231 196.84 163.231Z" fill="url(#paint2_radial_1864_8595)"/>
<path d="M196.841 163.231C169.559 163.231 147.362 150.671 146.551 135.003C146.536 134.708 146.513 134.415 146.513 134.118C146.513 118.04 169.046 105.006 196.841 105.006C224.637 105.006 247.17 118.04 247.17 134.118C247.17 134.415 247.146 134.708 247.132 135.003C246.319 150.671 224.124 163.231 196.841 163.231Z" fill="url(#paint3_linear_1864_8595)"/>
<path d="M138.844 169.046C139.164 188.401 143.967 219.397 149.362 222.511C154.758 225.626 158.702 199.682 158.382 180.326C158.062 160.971 153.597 152.934 148.202 149.82C142.805 146.704 138.522 149.689 138.844 169.046Z" fill="url(#paint4_radial_1864_8595)"/>
<path d="M151.103 136.419C151.146 136.466 151.186 136.513 151.229 136.559C151.186 136.512 151.146 136.465 151.103 136.419Z" fill="url(#paint5_radial_1864_8595)"/>
<path d="M149.578 134.615C149.656 134.717 149.737 134.817 149.818 134.918C149.739 134.817 149.658 134.717 149.578 134.615Z" fill="url(#paint6_radial_1864_8595)"/>
<path d="M146.364 129.123C146.408 129.23 146.458 129.336 146.504 129.444C146.458 129.338 146.407 129.23 146.364 129.123Z" fill="url(#paint7_radial_1864_8595)"/>
<path d="M152.918 138.243C152.905 138.231 152.894 138.218 152.881 138.206C152.89 138.213 152.897 138.221 152.906 138.23C152.911 138.234 152.915 138.238 152.918 138.243Z" fill="url(#paint8_radial_1864_8595)"/>
<path d="M147.171 130.867C147.237 130.997 147.302 131.125 147.373 131.253C147.304 131.125 147.239 130.997 147.171 130.867Z" fill="url(#paint9_radial_1864_8595)"/>
<path d="M201.601 66.4598C222.396 70.1714 242.421 85.311 245.964 107.428C246.256 109.245 246.491 110.981 246.678 112.654C246.685 112.668 246.693 112.681 246.7 112.694C246.788 113.564 246.962 115.371 246.977 116.329L246.979 116.328C247.066 122.208 246.19 130.652 241.524 137.404C240.176 139.083 237.637 141.834 234.051 144.045C213.663 155.594 180.806 155.462 160.419 143.691C157.498 142.005 154.998 140.167 152.906 138.227C152.897 138.219 152.888 138.212 152.881 138.203C152.298 137.662 151.747 137.112 151.229 136.556C151.186 136.51 151.147 136.462 151.104 136.416C150.65 135.922 150.223 135.421 149.819 134.916C149.738 134.816 149.657 134.714 149.579 134.614C148.725 133.514 147.989 132.392 147.375 131.252C147.305 131.124 147.239 130.994 147.173 130.866C146.929 130.394 146.707 129.92 146.505 129.444C146.459 129.336 146.409 129.23 146.364 129.123C146.223 128.773 146.098 128.421 145.978 128.068C144.445 124.315 143.869 119.358 143.659 116.067C140.488 82.0359 181.125 62.8072 201.601 66.4598Z" fill="url(#paint10_radial_1864_8595)"/>
<path d="M231.788 132.578C218.492 140.254 199.759 142.863 182.643 140.468L182.673 140.434C174.151 139.632 171.45 132.591 170.878 130.712C170.527 128.524 170.291 126.294 170.052 124.22C169.182 114.915 179.342 114.456 182.674 114.554C199.781 116.94 218.504 114.309 231.79 106.638C234.357 105.156 236.587 103.555 238.499 101.866L238.486 101.835C238.486 101.835 238.715 101.658 239.086 101.335C240.132 100.37 241.081 99.3786 241.919 98.3626C241.925 98.37 241.931 98.3774 241.935 98.3847C242.267 97.9807 242.602 97.5398 242.929 97.0782C243.395 98.1532 243.805 99.2577 244.188 100.377L244.193 100.347C244.704 101.847 245.141 103.385 245.489 104.963C245.669 105.775 245.832 106.595 245.967 107.427C246.259 109.244 246.493 110.979 246.68 112.653C246.688 112.666 246.695 112.679 246.703 112.693C246.729 112.948 246.761 113.287 246.797 113.657C245.889 120.567 240.909 127.312 231.788 132.578Z" fill="url(#paint11_linear_1864_8595)"/>
<path d="M227.956 124.289C226.511 123.443 226.527 120.727 227.993 118.224C229.46 115.721 231.82 114.378 233.265 115.224C234.711 116.071 234.694 118.787 233.228 121.29C231.762 123.793 229.402 125.136 227.956 124.289Z" fill="#48D4FF"/>
<path d="M152.916 138.243C152.903 138.231 152.892 138.218 152.879 138.206C152.888 138.213 152.895 138.221 152.904 138.23C152.909 138.234 152.913 138.238 152.916 138.243Z" fill="url(#paint12_radial_1864_8595)"/>
<path d="M152.904 138.23C152.895 138.222 152.887 138.215 152.879 138.206C152.888 138.213 152.897 138.221 152.904 138.23Z" fill="#606060"/>
<path d="M246.678 112.656C246.726 112.737 246.769 112.818 246.816 112.899C246.827 113.03 246.835 113.179 246.846 113.316C246.832 113.431 246.809 113.546 246.794 113.661C246.759 113.291 246.726 112.952 246.7 112.697C246.692 112.682 246.685 112.669 246.678 112.656Z" fill="#262626"/>
<path d="M152.916 138.243C152.903 138.231 152.892 138.218 152.879 138.206C152.888 138.213 152.895 138.221 152.904 138.23C152.909 138.234 152.913 138.238 152.916 138.243Z" fill="url(#paint13_radial_1864_8595)"/>
<path d="M245.963 107.428C245.83 106.595 245.666 105.777 245.485 104.964C245.665 105.777 245.829 106.597 245.963 107.428Z" fill="#606060"/>
<path d="M152.904 138.23C152.895 138.222 152.887 138.215 152.879 138.206C152.888 138.213 152.897 138.221 152.904 138.23Z" fill="#606060"/>
<path d="M204.333 131.391C202.888 130.545 202.904 127.829 204.37 125.326C205.837 122.823 208.197 121.48 209.642 122.327C211.088 123.173 211.071 125.889 209.605 128.392C208.139 130.895 205.779 132.238 204.333 131.391Z" fill="#48D4FF"/>
<path d="M208.314 186.596C208.314 193.123 212.929 195.749 218.623 192.462C224.316 189.175 228.932 181.218 228.932 174.692C228.932 168.165 224.316 165.539 218.623 168.826C212.929 172.113 208.314 180.07 208.314 186.596Z" fill="url(#paint14_linear_1864_8595)"/>
<path d="M217.977 178.355C217.191 177.895 217.2 176.417 217.998 175.054C218.796 173.691 220.081 172.96 220.867 173.421C221.654 173.881 221.644 175.359 220.846 176.722C220.048 178.084 218.763 178.816 217.977 178.355Z" fill="#48D4FF"/>
<path d="M217.272 187.832C216.486 187.372 216.495 185.894 217.293 184.531C218.091 183.169 219.376 182.437 220.162 182.898C220.948 183.358 220.939 184.836 220.141 186.199C219.343 187.562 218.058 188.293 217.272 187.832Z" fill="#48D4FF"/>
<path d="M318.932 115.862C318.932 95.7201 304.661 71.0016 287.218 60.9301C279.109 56.2483 271.687 55.5287 266.065 58.1181L266.063 58.1136L266.031 58.1328C265.237 58.5 264.478 58.9306 263.76 59.429L258.599 62.3752L259.363 64.0179C256.904 67.7943 255.504 72.9333 255.504 79.2416C255.504 88.9901 258.854 99.8092 264.283 109.522V124.258C264.283 125.373 265.187 126.278 266.303 126.278H276.98C280.197 129.413 283.639 132.104 287.219 134.172C290.925 136.311 294.484 137.616 297.796 138.165L297.913 139.169L302.151 138.446C303.659 138.38 305.094 138.131 306.446 137.715L306.473 137.711V137.706C314.032 135.363 318.932 127.658 318.932 115.862Z" fill="#52A4EC"/>
<path d="M282.364 63.2467C265.285 53.3861 251.311 61.4536 251.311 81.1748C251.311 90.7213 254.592 101.313 259.906 110.824V125.252C259.906 126.344 260.792 127.229 261.883 127.229H272.337C275.487 130.299 278.858 132.934 282.364 134.959C299.443 144.82 313.416 136.752 313.416 117.031C313.416 97.3112 299.443 73.1073 282.364 63.2467Z" fill="#184EAE"/>
<path d="M281.424 71.3673C268.398 63.5475 257.74 69.9458 257.74 85.5853C257.74 101.225 268.398 120.418 281.424 128.238C294.451 136.058 305.109 129.659 305.109 114.02C305.108 98.3803 294.45 79.187 281.424 71.3673Z" fill="url(#paint15_linear_1864_8595)"/>
<path d="M267.523 91.2212C265.951 90.3143 264.665 91.056 264.665 92.8712C264.665 94.6865 265.951 96.9146 267.523 97.8214C269.095 98.7298 270.381 97.9866 270.381 96.1714C270.382 94.3562 269.095 92.128 267.523 91.2212Z" fill="#184EAE"/>
<path d="M280.793 98.597C279.221 97.6902 277.935 98.4319 277.935 100.247C277.935 102.062 279.221 104.29 280.793 105.197C282.365 106.104 283.65 105.362 283.65 103.547C283.65 101.732 282.365 99.5039 280.793 98.597Z" fill="#184EAE"/>
<path d="M294.412 105.973C292.84 105.065 291.554 105.808 291.554 107.623C291.554 109.438 292.84 111.666 294.412 112.573C295.984 113.48 297.27 112.738 297.27 110.923C297.27 109.108 295.984 106.88 294.412 105.973Z" fill="#184EAE"/>
<path d="M355.204 202.618L350.426 205.375L333.282 215.259C331.784 216.123 329.348 216.119 327.84 215.247L291.302 194.152L286.545 191.405C285.833 190.993 285.46 190.463 285.417 189.926C285.37 189.326 285.736 188.718 286.526 188.262L308.447 175.619C309.946 174.755 312.382 174.76 313.89 175.631L355.183 199.475C356.181 200.052 356.519 200.863 356.201 201.596C356.04 201.97 355.709 202.324 355.204 202.618Z" fill="#95C2EC"/>
<path d="M334.434 163.89L334.502 163.901C334.464 164.353 334.439 164.808 334.437 165.262L334.434 163.89Z" fill="#BBD2F9"/>
<path d="M290.608 166.086L294.874 168.549L327.64 187.466C328.992 188.248 331.177 188.252 332.521 187.476L347.895 178.613L352.178 176.14C352.633 175.877 352.929 175.559 353.074 175.224H353.18L353.169 199.363C353.178 199.449 353.178 199.534 353.169 199.618V199.636H353.168C353.109 200.092 352.78 200.537 352.178 200.885L332.521 212.223C331.177 212.999 328.992 212.994 327.64 212.213L290.608 190.833C290.007 190.486 289.673 190.044 289.604 189.592H289.589V164.76H289.597C289.635 165.241 289.97 165.717 290.608 166.086Z" fill="#184EAE"/>
<path d="M352.179 176.138L347.896 178.611L332.521 187.475C331.178 188.251 328.993 188.246 327.641 187.465L294.875 168.547L290.609 166.085C289.971 165.716 289.636 165.24 289.598 164.759C289.555 164.221 289.884 163.677 290.591 163.267L310.249 151.929C311.593 151.153 313.778 151.157 315.13 151.939L352.162 173.32C353.057 173.838 353.359 174.565 353.074 175.223C352.93 175.557 352.633 175.876 352.179 176.138Z" fill="url(#paint16_linear_1864_8595)"/>
<path d="M292.855 170.976L327.064 190.721V208.162L291.857 187.841V170.399L292.855 170.976Z" fill="url(#paint17_linear_1864_8595)"/>
<path d="M317.1 195.18V197.075L318.229 199.123V195.482L317.805 194.714L317.1 195.18ZM313.632 187.328L314.76 189.376L316.885 190.603L318.013 189.856L313.632 187.328ZM313.632 196.734L318.012 199.263L316.884 197.215L314.759 195.988L313.632 196.734ZM314.619 191.9L314.055 192.273L314.619 193.298L317.025 194.687L317.589 194.314L317.025 193.289L314.619 191.9ZM314.554 191.409V189.514L313.426 187.485V191.107L313.849 191.888L314.554 191.409Z" fill="#48D4FF"/>
<path d="M312.158 190.386V186.741L311.03 187.488V189.385L311.735 190.679L312.158 190.386ZM308.548 188.397L307.985 188.77L308.548 189.795L310.955 191.184L311.518 190.811L310.955 189.786L308.548 188.397ZM308.484 187.916V186.021L307.355 183.973V187.615L307.779 188.397L308.484 187.916ZM307.357 189.2V192.846L308.485 192.098V190.202L307.78 188.92L307.357 189.2Z" fill="#48D4FF"/>
<path d="M305.959 185.866V184.468L304.831 183.818V185.216L305.959 185.866ZM305.959 192.303V190.905L304.831 190.255V191.652L305.959 192.303Z" fill="#48D4FF"/>
<path d="M298.846 178.791L299.974 180.839L302.099 182.066L303.227 181.32L298.846 178.791ZM299.767 182.88V180.978L298.639 178.949V182.584L299.062 183.364L299.767 182.88ZM298.641 184.167V187.813L299.769 187.065V185.169L299.064 183.887L298.641 184.167Z" fill="#48D4FF"/>
<path d="M323.196 193.104L325.129 194.22V192.003L323.196 190.887V193.104Z" fill="#48D4FF"/>
<path d="M292.855 170.976L327.064 190.721V208.162L291.857 187.841V170.399L292.855 170.976Z" fill="url(#paint18_linear_1864_8595)"/>
<path d="M315.702 169.317L316.442 169.744L322.123 173.024C322.357 173.16 322.736 173.16 322.969 173.025L328.6 169.774L329.344 169.345C329.422 169.299 329.473 169.245 329.498 169.186H329.518L329.516 170.424C329.518 170.439 329.518 170.454 329.516 170.469V170.471C329.506 170.551 329.448 170.628 329.345 170.688L322.972 174.367C322.739 174.502 322.36 174.502 322.125 174.366L315.705 170.659C315.6 170.598 315.543 170.522 315.531 170.443H315.528V169.084H315.53C315.534 169.171 315.592 169.253 315.702 169.317Z" fill="#184EAE"/>
<path d="M329.342 169.345L328.599 169.774L322.967 173.025C322.734 173.16 322.355 173.16 322.121 173.024L316.441 169.744L315.701 169.317C315.59 169.253 315.532 169.171 315.525 169.087C315.518 168.994 315.575 168.9 315.698 168.829L322.071 165.15C322.304 165.015 322.683 165.015 322.917 165.151L329.338 168.858C329.492 168.948 329.546 169.074 329.495 169.189C329.472 169.245 329.422 169.301 329.342 169.345Z" fill="#52A4EC"/>
<path d="M324.625 174.524L325.365 174.951L334.466 180.244C334.701 180.379 335.08 180.379 335.313 180.245L340.944 176.994L341.687 176.564C341.765 176.519 341.817 176.464 341.842 176.405H341.861L341.86 177.644C341.861 177.659 341.861 177.673 341.86 177.688V177.691C341.85 177.771 341.792 177.847 341.689 177.908L335.316 181.587C335.083 181.721 334.704 181.721 334.469 181.585L324.628 175.866C324.523 175.805 324.466 175.728 324.454 175.65H324.451V174.291H324.452C324.455 174.376 324.514 174.459 324.625 174.524Z" fill="#184EAE"/>
<path d="M341.686 176.564L340.943 176.994L335.311 180.245C335.078 180.379 334.699 180.379 334.465 180.244L325.364 174.951L324.623 174.524C324.513 174.46 324.455 174.378 324.448 174.294C324.44 174.201 324.498 174.106 324.62 174.036L330.994 170.356C331.227 170.222 331.605 170.222 331.84 170.358L341.681 176.078C341.836 176.168 341.889 176.293 341.839 176.408C341.816 176.464 341.764 176.52 341.686 176.564Z" fill="#52A4EC"/>
<path d="M341.758 278.466L339.059 280.025L318.597 291.839C317.75 292.327 316.374 292.324 315.522 291.833L294.879 279.914L292.191 278.363C291.788 278.13 291.578 277.831 291.554 277.527C291.527 277.188 291.734 276.844 292.181 276.588L315.341 263.214C316.187 262.726 317.563 262.729 318.415 263.22L341.746 276.691C342.311 277.017 342.501 277.475 342.321 277.89C342.23 278.1 342.044 278.301 341.758 278.466Z" fill="#95C2EC"/>
<path d="M292.191 270.933L294.879 272.484L315.522 284.403C316.374 284.895 317.752 284.898 318.597 284.409L339.06 272.594L341.758 271.036C342.044 270.871 342.23 270.67 342.323 270.459H342.391L342.385 274.963C342.391 275.016 342.391 275.07 342.385 275.123V275.135H342.383C342.345 275.423 342.138 275.703 341.76 275.923L318.597 289.296C317.75 289.784 316.374 289.781 315.522 289.29L292.191 275.819C291.812 275.601 291.603 275.322 291.559 275.038H291.55V270.098H291.554C291.578 270.4 291.789 270.701 292.191 270.933Z" fill="#184EAE"/>
<path d="M341.759 271.037L339.06 272.596L318.597 284.41C317.751 284.898 316.375 284.895 315.523 284.404L294.88 272.485L292.192 270.934C291.789 270.701 291.579 270.402 291.555 270.098C291.528 269.759 291.735 269.415 292.182 269.159L315.345 255.785C316.191 255.297 317.567 255.3 318.419 255.791L341.75 269.262C342.315 269.588 342.505 270.046 342.325 270.461C342.232 270.671 342.045 270.872 341.759 271.037Z" fill="url(#paint19_linear_1864_8595)"/>
<path d="M308.458 268.014C306.975 269.163 306.494 270.431 307.077 271.819C307.476 272.774 308.337 273.581 309.682 274.174C312.372 275.361 315.277 275.504 318.295 274.581C319.795 274.122 320.882 273.41 321.569 272.512C321.817 272.187 321.98 271.844 322.188 271.5C322.628 271.671 323.167 271.633 323.694 271.631C325.505 271.629 327.315 271.624 329.126 271.62C329.778 271.618 330.304 271.477 330.636 271.14C330.962 270.81 330.927 270.481 330.598 270.16C330.576 270.138 330.557 270.116 330.534 270.092C330.436 270.035 330.335 269.977 330.237 269.919C329.807 269.753 329.327 269.732 328.824 269.735C326.976 269.744 325.129 269.747 323.281 269.747C322.889 269.747 322.513 269.771 322.166 269.9C322.075 269.706 321.998 269.517 321.896 269.331C321.405 268.438 320.51 267.708 319.215 267.147C317.415 266.369 315.39 266.102 313.173 266.333C311.806 266.476 310.594 266.821 309.541 267.351C309.502 267.37 309.457 267.383 309.414 267.399C309.222 267.51 309.03 267.621 308.84 267.731C308.712 267.829 308.582 267.92 308.458 268.014ZM318.615 273.053C316.371 274.354 312.715 274.362 310.473 273.069C308.231 271.777 308.242 269.675 310.499 268.37C312.752 267.068 316.4 267.059 318.642 268.348C320.874 269.635 320.863 271.749 318.615 273.053Z" fill="white"/>
<path d="M304.339 300.858L301.64 302.417L281.178 314.231C280.331 314.719 278.955 314.716 278.103 314.225L257.46 302.306L254.772 300.755C254.369 300.522 254.159 300.222 254.135 299.919C254.108 299.579 254.315 299.236 254.762 298.979L277.925 285.606C278.771 285.118 280.147 285.121 280.999 285.612L304.33 299.082C304.895 299.408 305.085 299.865 304.905 300.281C304.812 300.492 304.625 300.693 304.339 300.858Z" fill="#95C2EC"/>
<path d="M254.656 293.04L257.344 294.591L277.987 306.51C278.839 307.002 280.217 307.005 281.061 306.516L301.524 294.701L304.223 293.143C304.509 292.978 304.695 292.777 304.788 292.566H304.855L304.85 297.07C304.855 297.123 304.855 297.177 304.85 297.23V297.242H304.848C304.81 297.53 304.603 297.81 304.224 298.03L281.061 311.403C280.215 311.891 278.839 311.888 277.987 311.397L254.656 297.926C254.277 297.708 254.068 297.429 254.023 297.145H254.015V292.205H254.019C254.043 292.507 254.253 292.807 254.656 293.04Z" fill="#184EAE"/>
<path d="M304.224 293.143L301.525 294.701L281.062 306.516C280.216 307.004 278.84 307.001 277.988 306.51L257.345 294.591L254.657 293.04C254.254 292.807 254.043 292.507 254.02 292.203C253.993 291.864 254.2 291.521 254.646 291.264L277.809 277.891C278.656 277.403 280.032 277.406 280.884 277.897L304.215 291.367C304.78 291.693 304.97 292.152 304.79 292.566C304.697 292.777 304.51 292.978 304.224 293.143Z" fill="#9FCBFF"/>
<path d="M271.306 295.644C271.334 295.644 271.362 295.642 271.392 295.639L287.877 293.655C288.143 293.622 288.367 293.444 288.457 293.192C288.547 292.939 288.486 292.659 288.302 292.466L283.591 287.556C283.321 287.275 282.876 287.265 282.594 287.535C282.314 287.805 282.303 288.25 282.573 288.532L286.307 292.423L271.223 294.238C270.837 294.286 270.561 294.637 270.609 295.023C270.65 295.381 270.954 295.644 271.306 295.644Z" fill="white"/>
<path d="M266.485 323.308L263.787 324.867L243.324 336.681C242.478 337.17 241.102 337.167 240.25 336.676L219.607 324.756L216.919 323.205C216.516 322.972 216.305 322.673 216.282 322.369C216.255 322.03 216.461 321.686 216.908 321.43L240.071 308.057C240.917 307.569 242.293 307.572 243.146 308.063L266.477 321.533C267.041 321.859 267.232 322.318 267.052 322.732C266.959 322.943 266.771 323.143 266.485 323.308Z" fill="#95C2EC"/>
<path d="M216.636 314.866L219.325 316.418L239.967 328.337C240.82 328.829 242.197 328.832 243.042 328.343L263.505 316.528L266.203 314.97C266.489 314.805 266.675 314.604 266.768 314.393H266.836L266.83 318.897C266.836 318.95 266.836 319.004 266.83 319.057V319.069H266.829C266.79 319.357 266.584 319.637 266.205 319.856L243.042 333.23C242.196 333.718 240.82 333.715 239.967 333.224L216.636 319.753C216.257 319.535 216.048 319.256 216.004 318.972H215.995V314.032H215.999C216.023 314.334 216.234 314.635 216.636 314.866Z" fill="#184EAE"/>
<path d="M266.204 314.971L263.506 316.53L243.043 328.344C242.196 328.832 240.821 328.829 239.968 328.338L219.325 316.419L216.637 314.868C216.235 314.635 216.024 314.336 216 314.032C215.974 313.693 216.18 313.349 216.627 313.093L239.79 299.719C240.636 299.231 242.012 299.234 242.864 299.725L266.195 313.196C266.76 313.522 266.95 313.979 266.77 314.395C266.676 314.605 266.49 314.806 266.204 314.971Z" fill="url(#paint20_linear_1864_8595)"/>
<path d="M245.625 319.936C245.726 319.936 245.828 319.907 245.915 319.848C246.061 319.749 246.147 319.582 246.142 319.405L246.048 316.089L250.899 314.113C251.111 314.026 251.243 313.809 251.218 313.581C251.194 313.352 251.022 313.166 250.796 313.125L244.955 312.066L243.162 308.771C243.088 308.635 242.958 308.54 242.808 308.511C242.656 308.482 242.5 308.521 242.382 308.619L238.871 311.493L232.694 311.434C232.47 311.434 232.274 311.571 232.201 311.782C232.129 311.991 232.198 312.224 232.374 312.36L235.839 315.036L234.045 318.119C233.943 318.295 233.953 318.513 234.07 318.678C234.186 318.843 234.39 318.925 234.589 318.886L240.452 317.749L245.42 319.895C245.486 319.923 245.555 319.936 245.625 319.936ZM248.863 313.827L245.325 315.268C245.126 315.349 244.998 315.545 245.004 315.762L245.085 318.625L240.716 316.738C240.62 316.696 240.515 316.685 240.412 316.705L235.51 317.656L236.96 315.164C237.09 314.94 237.034 314.654 236.829 314.495L234.222 312.482L239.046 312.528C239.167 312.525 239.285 312.488 239.378 312.411L242.551 309.815L244.165 312.778C244.24 312.916 244.373 313.011 244.526 313.039L248.863 313.827Z" fill="#184EAE"/>
<path d="M103.186 331.891C103.187 331.2 104.161 330.64 105.363 330.642L110.005 330.643C110.201 330.643 110.389 330.625 110.566 330.59C111.085 330.49 111.504 330.252 111.705 329.944C111.868 329.695 112.045 329.449 112.237 329.207C112.557 328.804 112.442 328.332 111.898 328.02L108.615 326.129C108.195 325.887 107.983 325.57 107.98 325.252C107.977 324.929 108.188 324.606 108.617 324.36L113.968 321.284C114.818 320.796 116.195 320.796 117.043 321.285L120.35 323.189C120.871 323.488 121.654 323.574 122.331 323.407C122.802 323.291 123.313 323.174 123.751 323.075C124.439 322.921 124.888 322.54 124.888 322.114V319.415C124.888 318.724 125.861 318.165 127.063 318.165H134.627C135.829 318.165 136.802 318.725 136.802 319.415V322.087C136.802 322.528 137.298 322.907 138.017 323.064C138.471 323.162 138.92 323.27 139.362 323.387C140.061 323.572 140.881 323.506 141.427 323.195L144.721 321.31C145.572 320.824 146.949 320.825 147.795 321.315L153.129 324.401C153.583 324.664 153.79 325.015 153.754 325.358C153.723 325.654 153.514 325.945 153.119 326.171L149.801 328.07C149.279 328.369 149.128 328.819 149.416 329.208C149.616 329.48 149.82 329.773 149.99 330.027C150.193 330.329 150.625 330.55 151.146 330.639C151.309 330.667 151.48 330.681 151.657 330.681L156.348 330.689C157.548 330.69 158.52 331.252 158.516 331.944L158.499 335.801L158.498 336.297C158.495 336.988 157.519 337.547 156.318 337.544L151.675 337.537C150.907 337.535 150.246 337.821 149.973 338.234C149.81 338.483 149.631 338.73 149.438 338.972C149.118 339.374 149.232 339.846 149.774 340.159L153.052 342.052C153.899 342.541 153.897 343.333 153.046 343.821L147.686 346.893C146.835 347.381 145.46 347.38 144.612 346.89L141.31 344.982C140.79 344.681 140.008 344.596 139.33 344.762C138.858 344.877 138.349 344.995 137.91 345.093C137.221 345.246 136.771 345.628 136.77 346.053L136.762 348.751C136.761 349.443 135.786 350.001 134.584 350L127.02 349.993C125.82 349.991 124.848 349.431 124.849 348.739L124.857 346.067C124.858 345.625 124.361 345.244 123.643 345.088C123.209 344.994 122.782 344.892 122.362 344.781C121.663 344.597 120.843 344.663 120.299 344.976L117.01 346.864C116.159 347.352 114.784 347.352 113.936 346.862L108.593 343.78C107.745 343.291 107.747 342.499 108.598 342.011L111.91 340.11C112.43 339.811 112.579 339.361 112.29 338.97C111.808 338.32 111.311 337.544 111.287 337.498L105.357 337.495C104.193 337.495 103.248 336.969 103.19 336.308C103.189 336.286 103.185 336.266 103.185 336.244L103.186 331.891ZM120.299 335.191C120.526 335.885 120.939 336.527 121.499 337.1C124.038 339.707 129.609 340.962 134.713 339.831C137.087 339.305 138.993 338.301 140.188 337.069C141.373 335.845 141.856 334.397 141.388 332.968C141.204 332.407 140.899 331.88 140.492 331.395C138.119 328.562 132.291 327.15 126.974 328.328C124.423 328.893 122.412 330.01 121.245 331.369C120.247 332.531 119.867 333.869 120.299 335.191Z" fill="#95C2EC"/>
<path d="M105.589 328.309L111.52 328.312C111.545 328.357 112.04 329.133 112.523 329.783C112.812 330.173 112.663 330.624 112.142 330.923L108.83 332.824C107.981 333.312 107.979 334.104 108.826 334.594L114.168 337.675C115.016 338.165 116.392 338.165 117.243 337.677L120.531 335.789C121.075 335.477 121.895 335.41 122.594 335.595C123.014 335.705 123.442 335.809 123.875 335.901C124.594 336.058 125.091 336.438 125.089 336.881L125.082 339.553C125.079 340.244 126.05 340.804 127.252 340.806L134.817 340.813C136.019 340.815 136.993 340.256 136.995 339.564L137.002 336.866C137.004 336.441 137.453 336.059 138.142 335.906C138.582 335.809 139.092 335.691 139.562 335.576C140.24 335.409 141.022 335.496 141.543 335.795L144.844 337.703C145.692 338.193 147.068 338.194 147.919 337.706L153.279 334.635C154.13 334.147 154.133 333.355 153.285 332.865L150.007 330.972C149.464 330.658 149.35 330.187 149.67 329.785C149.862 329.543 150.041 329.297 150.206 329.048C150.479 328.635 151.139 328.349 151.907 328.35L156.551 328.357C157.753 328.359 158.727 327.8 158.73 327.11L158.732 326.615C158.742 326.663 158.748 326.713 158.748 326.763L158.73 333.119C158.727 333.811 157.751 334.369 156.551 334.366L153.827 334.362L153.894 339.612C153.911 339.702 153.913 339.793 153.897 339.883C153.848 340.16 153.649 340.431 153.279 340.644L147.919 343.715C147.398 344.015 146.686 344.106 146.012 344.038L145.975 344.057V344.034C145.562 343.988 145.163 343.895 144.844 343.711L141.543 341.803C141.022 341.502 140.24 341.416 139.562 341.583C139.09 341.698 138.582 341.816 138.141 341.913C137.452 342.067 137.002 342.449 137.001 342.873L136.993 345.572C136.992 346.263 136.017 346.822 134.815 346.821L127.251 346.813C126.05 346.812 125.079 346.252 125.08 345.56L125.088 342.888C125.089 342.446 124.592 342.065 123.874 341.909C123.44 341.815 123.013 341.713 122.593 341.602C121.894 341.418 121.074 341.484 120.53 341.797L117.241 343.684C116.923 343.867 116.525 343.959 116.113 344.004V344.041L116.056 344.012C115.386 344.075 114.681 343.981 114.165 343.684L108.823 340.602C108.47 340.399 108.274 340.144 108.215 339.88L108.192 339.868L108.193 339.744C108.193 339.725 108.193 339.707 108.195 339.688L108.261 334.319L105.586 334.318C104.386 334.318 103.413 333.757 103.414 333.066L103.42 327.12C103.48 327.782 104.427 328.307 105.589 328.309Z" fill="#184EAE"/>
<path d="M108.852 316.943L112.134 318.832C112.679 319.144 112.794 319.616 112.474 320.019C112.282 320.26 112.103 320.507 111.941 320.756C111.739 321.064 111.32 321.301 110.803 321.402L108.853 320.28C108.464 320.055 108.262 319.768 108.23 319.474H108.194L108.216 316.064C108.221 316.382 108.432 316.699 108.852 316.943Z" fill="#184EAE"/>
<path d="M121.482 322.183C121.917 321.676 122.47 321.203 123.127 320.78C123.14 320.771 123.153 320.763 123.166 320.754C123.259 320.695 123.354 320.637 123.451 320.579C123.476 320.564 123.501 320.55 123.526 320.536C123.613 320.486 123.702 320.436 123.792 320.387C123.824 320.37 123.858 320.352 123.892 320.334C123.976 320.29 124.06 320.246 124.147 320.203C124.187 320.184 124.227 320.165 124.266 320.145C124.349 320.106 124.432 320.067 124.517 320.029C124.561 320.008 124.607 319.989 124.651 319.969C124.734 319.933 124.816 319.898 124.901 319.862C124.949 319.842 124.999 319.823 125.048 319.802C125.131 319.769 125.215 319.737 125.3 319.706C125.352 319.687 125.405 319.666 125.458 319.649C125.543 319.618 125.629 319.59 125.716 319.56C125.771 319.542 125.824 319.523 125.88 319.506C125.968 319.477 126.06 319.449 126.151 319.423C126.206 319.407 126.259 319.391 126.313 319.374C126.412 319.346 126.514 319.318 126.615 319.292C126.663 319.278 126.71 319.265 126.758 319.253C126.909 319.215 127.061 319.18 127.214 319.144C127.365 319.11 127.516 319.079 127.668 319.051C127.693 319.047 127.718 319.041 127.744 319.037C127.888 319.009 128.034 318.984 128.18 318.96C128.208 318.955 128.236 318.951 128.264 318.947C128.412 318.923 128.56 318.901 128.708 318.882C128.723 318.88 128.739 318.877 128.754 318.876C128.898 318.857 129.041 318.84 129.186 318.826C129.205 318.824 129.224 318.821 129.242 318.82C129.389 318.805 129.538 318.792 129.686 318.781C129.714 318.78 129.742 318.777 129.77 318.776C129.917 318.765 130.063 318.756 130.211 318.749C130.233 318.748 130.255 318.748 130.277 318.746C130.427 318.74 130.576 318.734 130.725 318.731C130.73 318.731 130.734 318.731 130.74 318.731C130.892 318.728 131.044 318.728 131.194 318.728C131.218 318.728 131.243 318.728 131.266 318.728C131.412 318.73 131.558 318.733 131.704 318.737C131.728 318.739 131.751 318.739 131.775 318.74C131.925 318.746 132.076 318.753 132.225 318.762C132.229 318.762 132.234 318.762 132.238 318.764C132.388 318.773 132.539 318.784 132.688 318.798C132.703 318.799 132.719 318.801 132.734 318.802C132.881 318.815 133.027 318.83 133.171 318.848C133.192 318.851 133.214 318.852 133.235 318.855C133.381 318.873 133.527 318.892 133.671 318.913C133.683 318.914 133.693 318.916 133.705 318.917C133.856 318.939 134.006 318.963 134.155 318.988C134.303 319.013 134.448 319.041 134.594 319.071C134.609 319.073 134.625 319.076 134.64 319.079C134.783 319.109 134.923 319.138 135.063 319.171C135.075 319.174 135.087 319.177 135.099 319.18C135.389 319.247 135.675 319.323 135.954 319.404C135.96 319.405 135.967 319.407 135.973 319.41C136.112 319.451 136.247 319.492 136.382 319.536C136.392 319.539 136.401 319.542 136.41 319.545C136.826 319.682 137.225 319.836 137.607 320.004C137.613 320.007 137.617 320.008 137.623 320.011C137.75 320.067 137.875 320.125 137.998 320.185C138.372 320.367 138.726 320.564 139.057 320.775C139.058 320.777 139.06 320.777 139.061 320.778C139.39 320.989 139.695 321.215 139.975 321.452C139.977 321.453 139.978 321.453 139.978 321.455C140.257 321.694 140.509 321.946 140.732 322.211C141.139 322.697 141.444 323.223 141.628 323.785C142.096 325.214 141.614 326.662 140.428 327.886C137.889 325.279 132.318 324.024 127.214 325.155C124.84 325.681 122.933 326.685 121.739 327.917C121.179 327.341 120.766 326.702 120.539 326.007C120.104 324.683 120.486 323.344 121.482 322.183Z" fill="#184EAE"/>
<path d="M150.225 320.838C150.055 320.585 149.852 320.291 149.651 320.02C149.364 319.629 149.512 319.18 150.036 318.882L153.354 316.982C153.748 316.757 153.958 316.466 153.989 316.17V319.399C154.006 319.733 153.798 320.069 153.354 320.321L151.381 321.45C150.859 321.362 150.427 321.141 150.225 320.838Z" fill="#184EAE"/>
<path d="M103.422 322.704C103.424 322.014 104.397 321.453 105.599 321.455L110.241 321.456C110.437 321.456 110.626 321.439 110.803 321.403C111.322 321.303 111.741 321.066 111.941 320.757C112.105 320.508 112.282 320.262 112.473 320.02C112.793 319.618 112.678 319.146 112.134 318.833L108.852 316.944C108.432 316.702 108.219 316.385 108.216 316.067C108.213 315.744 108.424 315.421 108.853 315.175L114.205 312.099C115.054 311.611 116.431 311.611 117.279 312.1L120.587 314.004C121.107 314.303 121.89 314.389 122.567 314.222C123.039 314.106 123.549 313.989 123.987 313.89C124.676 313.735 125.124 313.355 125.124 312.929V310.23C125.124 309.539 126.097 308.98 127.299 308.98H134.864C136.065 308.98 137.039 309.54 137.039 310.23V312.902C137.039 313.343 137.534 313.722 138.254 313.878C138.708 313.977 139.156 314.085 139.598 314.201C140.297 314.387 141.117 314.321 141.663 314.01L144.957 312.125C145.808 311.639 147.185 311.64 148.032 312.13L153.365 315.216C153.819 315.478 154.026 315.829 153.99 316.173C153.96 316.469 153.75 316.76 153.355 316.985L150.037 318.885C149.515 319.184 149.365 319.634 149.652 320.023C149.853 320.294 150.056 320.588 150.226 320.841C150.429 321.144 150.861 321.365 151.382 321.453C151.546 321.481 151.717 321.496 151.894 321.496L156.584 321.504C157.785 321.505 158.756 322.067 158.752 322.758L158.736 326.616L158.734 327.111C158.731 327.803 157.755 328.362 156.555 328.359L151.911 328.352C151.143 328.35 150.482 328.636 150.21 329.049C150.046 329.298 149.868 329.544 149.674 329.786C149.354 330.189 149.468 330.661 150.011 330.973L153.289 332.867C154.135 333.356 154.134 334.148 153.283 334.636L147.923 337.708C147.072 338.196 145.696 338.194 144.848 337.705L141.546 335.797C141.026 335.496 140.244 335.41 139.566 335.577C139.094 335.692 138.585 335.81 138.146 335.907C137.457 336.061 137.008 336.443 137.006 336.867L136.999 339.566C136.997 340.257 136.023 340.816 134.821 340.815L127.256 340.807C126.056 340.806 125.084 340.246 125.086 339.554L125.093 336.882C125.094 336.44 124.597 336.059 123.879 335.903C123.446 335.809 123.018 335.707 122.598 335.596C121.899 335.412 121.079 335.478 120.535 335.791L117.247 337.678C116.396 338.166 115.02 338.165 114.172 337.677L108.83 334.595C107.982 334.105 107.983 333.314 108.834 332.825L112.146 330.925C112.667 330.625 112.815 330.176 112.526 329.785C112.044 329.135 111.547 328.359 111.524 328.313L105.593 328.31C104.429 328.31 103.484 327.784 103.427 327.123C103.425 327.101 103.421 327.08 103.421 327.058L103.422 322.704ZM120.536 326.004C120.764 326.699 121.176 327.34 121.737 327.914C124.276 330.521 129.847 331.776 134.951 330.645C137.325 330.118 139.231 329.115 140.426 327.883C141.611 326.659 142.093 325.211 141.626 323.782C141.442 323.22 141.136 322.694 140.729 322.208C138.357 319.376 132.529 317.963 127.212 319.141C124.661 319.706 122.65 320.824 121.483 322.182C120.485 323.344 120.103 324.683 120.536 326.004Z" fill="url(#paint21_linear_1864_8595)"/>
<path d="M72.1228 301.952C72.1243 301.516 72.7377 301.163 73.4956 301.163L76.4242 301.165C76.548 301.165 76.666 301.153 76.7781 301.131C77.1054 301.067 77.3694 300.918 77.4962 300.722C77.5994 300.564 77.7115 300.41 77.8324 300.256C78.0344 300.003 77.9622 299.705 77.6186 299.507L75.5483 298.314C75.2828 298.161 75.1486 297.962 75.1472 297.761C75.1457 297.558 75.2784 297.353 75.5483 297.198L78.9251 295.257C79.4604 294.949 80.3304 294.949 80.8656 295.257L82.9522 296.459C83.281 296.648 83.775 296.702 84.2012 296.596C84.499 296.523 84.8205 296.449 85.0977 296.387C85.5327 296.29 85.8144 296.049 85.8144 295.781V294.079C85.8144 293.643 86.4278 293.29 87.1857 293.29H91.959C92.7169 293.29 93.3304 293.644 93.3304 294.079V295.765C93.3304 296.043 93.643 296.282 94.0971 296.381C94.3847 296.443 94.6663 296.511 94.945 296.585C95.3859 296.701 95.9035 296.66 96.2471 296.464L98.3248 295.275C98.8615 294.968 99.7301 294.97 100.264 295.278L103.629 297.226C103.915 297.393 104.046 297.612 104.024 297.829C104.005 298.016 103.872 298.199 103.623 298.342L101.529 299.54C101.2 299.728 101.106 300.011 101.287 300.258C101.414 300.429 101.542 300.615 101.65 300.774C101.778 300.964 102.051 301.104 102.378 301.16C102.482 301.178 102.589 301.188 102.701 301.188L105.661 301.193C106.419 301.194 107.031 301.548 107.029 301.984L107.019 304.418L107.018 304.73C107.016 305.167 106.4 305.519 105.642 305.518L102.712 305.513C102.227 305.513 101.809 305.693 101.638 305.954C101.535 306.112 101.423 306.267 101.301 306.419C101.098 306.672 101.169 306.97 101.513 307.168L103.58 308.362C104.114 308.67 104.113 309.17 103.576 309.478L100.193 311.416C99.6563 311.724 98.7878 311.723 98.2525 311.415L96.1689 310.211C95.8416 310.022 95.3476 309.968 94.92 310.073C94.6221 310.145 94.3006 310.22 94.0234 310.281C93.5884 310.378 93.3053 310.618 93.3038 310.887L93.2994 312.59C93.2979 313.026 92.683 313.379 91.9251 313.377L87.1518 313.373C86.3939 313.373 85.7804 313.017 85.7819 312.582L85.7864 310.897C85.7878 310.618 85.4737 310.378 85.021 310.279C84.7468 310.22 84.4769 310.155 84.213 310.086C83.7721 309.969 83.2545 310.011 82.9109 310.208L80.8362 311.398C80.2994 311.706 79.4309 311.706 78.8956 311.397L75.5247 309.452C74.9894 309.144 74.9909 308.644 75.5276 308.336L77.6171 307.135C77.9459 306.946 78.0403 306.662 77.8575 306.417C77.5537 306.006 77.2396 305.518 77.2249 305.488L73.4824 305.487C72.748 305.487 72.1523 305.155 72.1154 304.738C72.1139 304.724 72.1125 304.711 72.1125 304.696L72.1228 301.952ZM82.9197 304.034C83.0628 304.472 83.3238 304.876 83.6762 305.239C85.2776 306.883 88.793 307.675 92.0135 306.961C93.5117 306.629 94.715 305.995 95.4685 305.218C96.2161 304.447 96.5214 303.533 96.2265 302.63C96.11 302.275 95.9168 301.943 95.6617 301.638C94.165 299.851 90.4873 298.959 87.1327 299.703C85.5239 300.06 84.2542 300.765 83.5184 301.622C82.8873 302.358 82.6469 303.201 82.9197 304.034Z" fill="#95C2EC"/>
<path d="M73.6386 299.693L77.3811 299.694C77.3959 299.724 77.71 300.212 78.0137 300.623C78.1966 300.87 78.1022 301.153 77.7734 301.342L75.6839 302.542C75.1471 302.85 75.1471 303.35 75.6809 303.658L79.0518 305.603C79.5871 305.911 80.4556 305.913 80.9924 305.605L83.0671 304.415C83.4107 304.217 83.9283 304.176 84.3692 304.292C84.6346 304.362 84.9045 304.426 85.1773 304.485C85.63 304.584 85.9441 304.825 85.9426 305.103L85.9382 306.789C85.9367 307.225 86.5501 307.579 87.3081 307.579L92.0813 307.583C92.8392 307.585 93.4542 307.231 93.4556 306.796L93.4601 305.094C93.4601 304.826 93.7447 304.586 94.1797 304.488C94.4569 304.426 94.7783 304.353 95.0762 304.28C95.5038 304.176 95.9978 304.23 96.3252 304.419L98.4088 305.622C98.9441 305.93 99.8111 305.932 100.349 305.624L103.732 303.686C104.269 303.378 104.27 302.878 103.736 302.57L101.669 301.375C101.327 301.178 101.255 300.88 101.457 300.626C101.578 300.473 101.691 300.318 101.794 300.162C101.967 299.901 102.383 299.721 102.868 299.721L105.798 299.725C106.556 299.727 107.171 299.374 107.174 298.938L107.175 298.625C107.181 298.656 107.186 298.687 107.186 298.72L107.174 302.731C107.172 303.167 106.556 303.52 105.798 303.518L104.08 303.515L104.121 306.827C104.133 306.885 104.133 306.941 104.123 306.998C104.092 307.174 103.967 307.345 103.732 307.479L100.349 309.416C100.021 309.605 99.5708 309.663 99.1461 309.62L99.1225 309.632V309.617C98.8615 309.587 98.6093 309.53 98.4088 309.413L96.3252 308.21C95.9978 308.021 95.5038 307.967 95.0762 308.072C94.7783 308.144 94.4569 308.219 94.1797 308.28C93.7447 308.377 93.4615 308.617 93.4615 308.886L93.4571 310.587C93.4556 311.024 92.8407 311.376 92.0828 311.375L87.3095 311.37C86.5516 311.37 85.9382 311.015 85.9396 310.58L85.9441 308.894C85.9455 308.616 85.6315 308.375 85.1788 308.277C84.9045 308.218 84.6346 308.153 84.3707 308.083C83.9298 307.967 83.4122 308.008 83.0686 308.206L80.9939 309.396C80.7933 309.511 80.5412 309.568 80.2831 309.598V309.621L80.2477 309.602C79.826 309.642 79.3807 309.583 79.0548 309.396L75.6839 307.451C75.4612 307.322 75.3373 307.162 75.3005 306.995L75.2857 306.988L75.2872 306.91C75.2872 306.898 75.2872 306.886 75.2872 306.874L75.33 303.487L73.6416 303.486C72.8836 303.486 72.2702 303.132 72.2717 302.695L72.2746 298.944C72.3085 299.361 72.9043 299.691 73.6386 299.693Z" fill="#184EAE"/>
<path d="M75.6979 292.52L77.7682 293.713C78.1118 293.911 78.184 294.209 77.982 294.463C77.8611 294.616 77.749 294.771 77.6458 294.928C77.519 295.123 77.2536 295.274 76.9277 295.337L75.6979 294.629C75.4516 294.488 75.3248 294.306 75.3042 294.12H75.282L75.2968 291.969C75.2997 292.168 75.4324 292.367 75.6979 292.52Z" fill="#184EAE"/>
<path d="M83.665 295.828C83.665 295.828 83.6665 295.828 83.665 295.828C83.9393 295.508 84.2888 295.209 84.7017 294.942C84.7105 294.936 84.7179 294.931 84.7267 294.926C84.7857 294.889 84.8447 294.85 84.9066 294.815C84.9229 294.806 84.9376 294.797 84.9538 294.787C85.0084 294.755 85.0644 294.724 85.1204 294.693C85.1411 294.681 85.1632 294.67 85.1839 294.659C85.2369 294.631 85.29 294.603 85.3446 294.576C85.3697 294.564 85.3947 294.551 85.4198 294.539C85.4714 294.514 85.5245 294.489 85.5776 294.466C85.6056 294.452 85.6336 294.44 85.6631 294.427C85.7147 294.405 85.7678 294.383 85.8209 294.361C85.8518 294.348 85.8828 294.336 85.9138 294.322C85.9654 294.302 86.0185 294.281 86.073 294.262C86.1055 294.25 86.1394 294.237 86.1718 294.225C86.2249 294.206 86.2795 294.187 86.334 294.169C86.3679 294.157 86.4019 294.146 86.4373 294.135C86.4933 294.118 86.5508 294.1 86.6083 294.082C86.6422 294.072 86.6761 294.061 86.7101 294.051C86.7735 294.033 86.8369 294.016 86.9003 294C86.9298 293.992 86.9593 293.983 86.9902 293.976C87.0846 293.952 87.1804 293.929 87.2778 293.908C87.3736 293.887 87.468 293.868 87.5638 293.849C87.5801 293.846 87.5948 293.843 87.611 293.84C87.7025 293.823 87.7939 293.806 87.8853 293.792C87.903 293.789 87.9207 293.786 87.9384 293.783C88.0313 293.768 88.1257 293.755 88.2186 293.741C88.2289 293.74 88.2377 293.739 88.248 293.739C88.3395 293.727 88.4294 293.716 88.5209 293.706C88.5327 293.705 88.5444 293.703 88.5562 293.702C88.6491 293.693 88.7435 293.684 88.8364 293.677C88.8541 293.675 88.8718 293.674 88.8895 293.672C88.9824 293.665 89.0753 293.66 89.1682 293.656C89.1815 293.656 89.1962 293.654 89.2095 293.654C89.3039 293.65 89.3982 293.647 89.4926 293.646C89.4956 293.646 89.4985 293.646 89.5014 293.646C89.5973 293.644 89.6932 293.644 89.7875 293.644C89.8023 293.644 89.8185 293.644 89.8332 293.644C89.9261 293.646 90.0176 293.647 90.1105 293.65C90.1252 293.65 90.14 293.652 90.1547 293.652C90.2491 293.654 90.3449 293.659 90.4378 293.665C90.4408 293.665 90.4437 293.665 90.4467 293.665C90.541 293.671 90.6354 293.678 90.7298 293.687C90.7386 293.688 90.749 293.688 90.7578 293.69C90.8507 293.699 90.9421 293.708 91.0335 293.718C91.0468 293.719 91.0601 293.721 91.0734 293.722C91.1663 293.733 91.2577 293.744 91.3491 293.758C91.3565 293.759 91.3639 293.759 91.3698 293.761C91.4656 293.774 91.56 293.789 91.6529 293.805C91.7458 293.821 91.8387 293.839 91.9301 293.857C91.9404 293.858 91.9493 293.861 91.9596 293.862C92.0495 293.88 92.138 293.899 92.2265 293.92C92.2339 293.921 92.2412 293.923 92.2486 293.926C92.4315 293.969 92.6114 294.016 92.7883 294.067C92.7927 294.069 92.7957 294.07 92.8001 294.07C92.8871 294.095 92.9726 294.123 93.0582 294.15C93.0641 294.151 93.07 294.154 93.0759 294.156C93.3383 294.243 93.5905 294.339 93.8308 294.445C93.8338 294.446 93.8382 294.448 93.8412 294.449C93.9208 294.485 94.0004 294.522 94.0771 294.558C94.313 294.673 94.5372 294.797 94.7451 294.93C94.7466 294.93 94.7466 294.931 94.7481 294.931C94.956 295.064 95.1491 295.207 95.3246 295.358C95.3261 295.358 95.3261 295.359 95.3276 295.359C95.503 295.51 95.6623 295.669 95.8024 295.837C96.059 296.144 96.2521 296.475 96.3671 296.829C96.6621 297.73 96.3583 298.645 95.6092 299.417C94.0078 297.773 90.4924 296.981 87.2719 297.695C85.7737 298.027 84.5704 298.661 83.8169 299.438C83.463 299.075 83.2035 298.671 83.0604 298.233C82.7965 297.404 83.0368 296.561 83.665 295.828Z" fill="#184EAE"/>
<path d="M101.801 294.98C101.693 294.821 101.565 294.635 101.438 294.464C101.257 294.218 101.351 293.935 101.68 293.746L103.774 292.549C104.023 292.407 104.156 292.223 104.175 292.035V294.073C104.186 294.283 104.054 294.495 103.774 294.656L102.53 295.368C102.202 295.31 101.929 295.17 101.801 294.98Z" fill="#184EAE"/>
<path d="M72.2712 296.155C72.2727 295.719 72.8861 295.366 73.6441 295.366L76.5726 295.368C76.6965 295.368 76.8144 295.356 76.9265 295.334C77.2539 295.271 77.5178 295.122 77.6446 294.926C77.7479 294.768 77.8599 294.613 77.9808 294.46C78.1829 294.206 78.1106 293.908 77.767 293.711L75.6967 292.518C75.4313 292.364 75.2971 292.165 75.2956 291.965C75.2941 291.761 75.4268 291.556 75.6967 291.401L79.0735 289.461C79.6088 289.153 80.4788 289.153 81.0141 289.461L83.1006 290.663C83.4295 290.851 83.9234 290.906 84.3496 290.8C84.6475 290.726 84.9689 290.652 85.2461 290.59C85.6812 290.493 85.9628 290.253 85.9628 289.984V288.283C85.9628 287.846 86.5762 287.494 87.3342 287.494H92.1074C92.8654 287.494 93.4788 287.848 93.4788 288.283V289.968C93.4788 290.247 93.7914 290.486 94.2456 290.584C94.5331 290.646 94.8148 290.714 95.0935 290.788C95.5344 290.904 96.0519 290.863 96.3955 290.667L98.4732 289.478C99.01 289.172 99.8785 289.173 100.412 289.481L103.777 291.429C104.063 291.596 104.195 291.816 104.173 292.032C104.153 292.22 104.021 292.403 103.771 292.546L101.678 293.743C101.349 293.932 101.254 294.215 101.436 294.461C101.562 294.632 101.691 294.818 101.798 294.977C101.927 295.167 102.2 295.308 102.527 295.364C102.63 295.381 102.738 295.392 102.85 295.392L105.809 295.396C106.567 295.397 107.179 295.751 107.178 296.188L107.167 298.621L107.166 298.934C107.164 299.37 106.548 299.722 105.79 299.721L102.86 299.717C102.375 299.717 101.958 299.896 101.787 300.157C101.683 300.315 101.571 300.47 101.449 300.622C101.247 300.876 101.318 301.173 101.661 301.371L103.729 302.565C104.262 302.874 104.261 303.374 103.724 303.682L100.342 305.619C99.8048 305.928 98.9363 305.926 98.401 305.618L96.3174 304.415C95.99 304.226 95.496 304.171 95.0684 304.276C94.7705 304.348 94.4491 304.423 94.1718 304.484C93.7368 304.581 93.4537 304.822 93.4522 305.09L93.4478 306.792C93.4463 307.228 92.8314 307.581 92.0735 307.579L87.3003 307.575C86.5423 307.575 85.9289 307.219 85.9304 306.784L85.9348 305.099C85.9363 304.82 85.6222 304.58 85.1695 304.481C84.8952 304.422 84.6253 304.357 84.3614 304.288C83.9205 304.171 83.4029 304.213 83.0593 304.41L80.9846 305.6C80.4478 305.908 79.5793 305.908 79.044 305.599L75.6731 303.654C75.1378 303.345 75.1393 302.846 75.6761 302.537L77.7656 301.337C78.0944 301.148 78.1888 300.864 78.0059 300.619C77.7021 300.208 77.3881 299.719 77.3733 299.69L73.6308 299.689C72.8964 299.689 72.3007 299.357 72.2639 298.939C72.2624 298.926 72.2609 298.913 72.2609 298.898L72.2712 296.155ZM83.0696 298.238C83.2127 298.675 83.4737 299.08 83.8261 299.442C85.4275 301.086 88.943 301.878 92.1635 301.165C93.6616 300.833 94.8649 300.199 95.6184 299.422C96.366 298.65 96.6713 297.736 96.3764 296.834C96.2599 296.478 96.0667 296.147 95.8116 295.841C94.3149 294.054 90.6373 293.162 87.2826 293.907C85.6738 294.263 84.4042 294.968 83.6683 295.825C83.0372 296.561 82.7969 297.404 83.0696 298.238Z" fill="#9FCBFF"/>
</g>
<defs>
<linearGradient id="paint0_linear_1864_8595" x1="230.804" y1="137.918" x2="87.5901" y2="137.918" gradientUnits="userSpaceOnUse">
<stop stop-color="#407AE6"/>
<stop offset="0.2634" stop-color="#3D77E2"/>
<stop offset="0.5348" stop-color="#346DD5"/>
<stop offset="0.8089" stop-color="#265DC1"/>
<stop offset="1" stop-color="#184EAE"/>
</linearGradient>
<radialGradient id="paint1_radial_1864_8595" cx="0" cy="0" r="1" gradientUnits="userSpaceOnUse" gradientTransform="translate(249.375 127.279) rotate(-150) scale(60.1485 42.6822)">
<stop stop-color="#E3E6FA"/>
<stop offset="1" stop-color="#FCFCFC"/>
</radialGradient>
<radialGradient id="paint2_radial_1864_8595" cx="0" cy="0" r="1" gradientUnits="userSpaceOnUse" gradientTransform="translate(200.124 168.546) rotate(180) scale(51.4308 51.4308)">
<stop stop-color="#FCFCFC"/>
<stop offset="0.3981" stop-color="#F8F8FC"/>
<stop offset="0.8076" stop-color="#ECEDFB"/>
<stop offset="1" stop-color="#E3E6FA"/>
</radialGradient>
<linearGradient id="paint3_linear_1864_8595" x1="192.977" y1="123.241" x2="205.68" y2="158.93" gradientUnits="userSpaceOnUse">
<stop stop-color="#FCFCFC"/>
<stop offset="0.3981" stop-color="#F8F8FC"/>
<stop offset="0.8076" stop-color="#ECEDFB"/>
<stop offset="1" stop-color="#E3E6FA"/>
</linearGradient>
<radialGradient id="paint4_radial_1864_8595" cx="0" cy="0" r="1" gradientUnits="userSpaceOnUse" gradientTransform="translate(148.102 222.987) rotate(180) scale(63.5405 63.5405)">
<stop stop-color="#E3E6FA"/>
<stop offset="1" stop-color="#FCFCFC"/>
</radialGradient>
<radialGradient id="paint5_radial_1864_8595" cx="0" cy="0" r="1" gradientUnits="userSpaceOnUse" gradientTransform="translate(196.493 90.5134) rotate(180) scale(50.8138 50.8159)">
<stop stop-color="#FCFCFC"/>
<stop offset="0.3981" stop-color="#F8F8FC"/>
<stop offset="0.8076" stop-color="#ECEDFB"/>
<stop offset="1" stop-color="#E3E6FA"/>
</radialGradient>
<radialGradient id="paint6_radial_1864_8595" cx="0" cy="0" r="1" gradientUnits="userSpaceOnUse" gradientTransform="translate(196.496 90.5142) rotate(180) scale(50.8154 50.815)">
<stop stop-color="#FCFCFC"/>
<stop offset="0.3981" stop-color="#F8F8FC"/>
<stop offset="0.8076" stop-color="#ECEDFB"/>
<stop offset="1" stop-color="#E3E6FA"/>
</radialGradient>
<radialGradient id="paint7_radial_1864_8595" cx="0" cy="0" r="1" gradientUnits="userSpaceOnUse" gradientTransform="translate(196.5 90.5141) rotate(180) scale(50.8192 50.8151)">
<stop stop-color="#FCFCFC"/>
<stop offset="0.3981" stop-color="#F8F8FC"/>
<stop offset="0.8076" stop-color="#ECEDFB"/>
<stop offset="1" stop-color="#E3E6FA"/>
</radialGradient>
<radialGradient id="paint8_radial_1864_8595" cx="0" cy="0" r="1" gradientUnits="userSpaceOnUse" gradientTransform="translate(196.496 90.514) rotate(180) scale(50.8153)">
<stop stop-color="#FCFCFC"/>
<stop offset="0.3981" stop-color="#F8F8FC"/>
<stop offset="0.8076" stop-color="#ECEDFB"/>
<stop offset="1" stop-color="#E3E6FA"/>
</radialGradient>
<radialGradient id="paint9_radial_1864_8595" cx="0" cy="0" r="1" gradientUnits="userSpaceOnUse" gradientTransform="translate(196.495 90.514) rotate(180) scale(50.8151 50.8152)">
<stop stop-color="#FCFCFC"/>
<stop offset="0.3981" stop-color="#F8F8FC"/>
<stop offset="0.8076" stop-color="#ECEDFB"/>
<stop offset="1" stop-color="#E3E6FA"/>
</radialGradient>
<radialGradient id="paint10_radial_1864_8595" cx="0" cy="0" r="1" gradientUnits="userSpaceOnUse" gradientTransform="translate(196.495 90.514) rotate(180) scale(50.8153 50.8153)">
<stop stop-color="#FCFCFC"/>
<stop offset="0.3981" stop-color="#F8F8FC"/>
<stop offset="0.8076" stop-color="#ECEDFB"/>
<stop offset="1" stop-color="#E3E6FA"/>
</radialGradient>
<linearGradient id="paint11_linear_1864_8595" x1="208.062" y1="90.3763" x2="208.667" y2="141.188" gradientUnits="userSpaceOnUse">
<stop stop-color="#407AE6"/>
<stop offset="0.2634" stop-color="#3D77E2"/>
<stop offset="0.5348" stop-color="#346DD5"/>
<stop offset="0.8089" stop-color="#265DC1"/>
<stop offset="1" stop-color="#184EAE"/>
</linearGradient>
<radialGradient id="paint12_radial_1864_8595" cx="0" cy="0" r="1" gradientUnits="userSpaceOnUse" gradientTransform="translate(152.898 138.225) rotate(180) scale(0.0187273)">
<stop stop-color="white"/>
<stop offset="0.1732" stop-color="#FBFBFB"/>
<stop offset="0.3517" stop-color="#EEEEEE"/>
<stop offset="0.5327" stop-color="#DADADA"/>
<stop offset="0.7154" stop-color="#BDBDBD"/>
<stop offset="0.8976" stop-color="#989898"/>
<stop offset="1" stop-color="#808080"/>
</radialGradient>
<radialGradient id="paint13_radial_1864_8595" cx="0" cy="0" r="1" gradientUnits="userSpaceOnUse" gradientTransform="translate(152.898 138.225) rotate(180) scale(0.0187273)">
<stop stop-color="white"/>
<stop offset="0.1732" stop-color="#FBFBFB"/>
<stop offset="0.3517" stop-color="#EEEEEE"/>
<stop offset="0.5327" stop-color="#DADADA"/>
<stop offset="0.7154" stop-color="#BDBDBD"/>
<stop offset="0.8976" stop-color="#989898"/>
<stop offset="1" stop-color="#808080"/>
</radialGradient>
<linearGradient id="paint14_linear_1864_8595" x1="224.392" y1="169.747" x2="215.319" y2="186.886" gradientUnits="userSpaceOnUse">
<stop stop-color="#407AE6"/>
<stop offset="0.2634" stop-color="#3D77E2"/>
<stop offset="0.5348" stop-color="#346DD5"/>
<stop offset="0.8089" stop-color="#265DC1"/>
<stop offset="1" stop-color="#184EAE"/>
</linearGradient>
<linearGradient id="paint15_linear_1864_8595" x1="294.914" y1="128.131" x2="268.973" y2="73.6554" gradientUnits="userSpaceOnUse">
<stop stop-color="#FCFCFC"/>
<stop offset="0.3981" stop-color="#F8F8FC"/>
<stop offset="0.8076" stop-color="#ECEDFB"/>
<stop offset="1" stop-color="#E3E6FA"/>
</linearGradient>
<linearGradient id="paint16_linear_1864_8595" x1="353.178" y1="169.703" x2="289.594" y2="169.703" gradientUnits="userSpaceOnUse">
<stop stop-color="#407AE6"/>
<stop offset="0.2634" stop-color="#3D77E2"/>
<stop offset="0.5348" stop-color="#346DD5"/>
<stop offset="0.8089" stop-color="#265DC1"/>
<stop offset="1" stop-color="#184EAE"/>
</linearGradient>
<linearGradient id="paint17_linear_1864_8595" x1="326.235" y1="199.157" x2="291.193" y2="178.525" gradientUnits="userSpaceOnUse">
<stop stop-color="#407AE6"/>
<stop offset="0.2634" stop-color="#3D77E2"/>
<stop offset="0.5348" stop-color="#346DD5"/>
<stop offset="0.8089" stop-color="#265DC1"/>
<stop offset="1" stop-color="#184EAE"/>
</linearGradient>
<linearGradient id="paint18_linear_1864_8595" x1="326.353" y1="188.811" x2="292.052" y2="189.764" gradientUnits="userSpaceOnUse">
<stop stop-color="#407AE6" stop-opacity="0"/>
<stop offset="0.2066" stop-color="#407EE7" stop-opacity="0.2066"/>
<stop offset="0.4195" stop-color="#418BEB" stop-opacity="0.4195"/>
<stop offset="0.6353" stop-color="#439FF0" stop-opacity="0.6353"/>
<stop offset="0.8518" stop-color="#46BCF8" stop-opacity="0.8518"/>
<stop offset="1" stop-color="#48D4FF"/>
</linearGradient>
<linearGradient id="paint19_linear_1864_8595" x1="342.388" y1="270.097" x2="291.55" y2="270.097" gradientUnits="userSpaceOnUse">
<stop stop-color="#407AE6"/>
<stop offset="0.2634" stop-color="#3D77E2"/>
<stop offset="0.5348" stop-color="#346DD5"/>
<stop offset="0.8089" stop-color="#265DC1"/>
<stop offset="1" stop-color="#184EAE"/>
</linearGradient>
<linearGradient id="paint20_linear_1864_8595" x1="266.833" y1="314.031" x2="215.995" y2="314.031" gradientUnits="userSpaceOnUse">
<stop stop-color="#FCFCFC"/>
<stop offset="0.3981" stop-color="#F8F8FC"/>
<stop offset="0.8076" stop-color="#ECEDFB"/>
<stop offset="1" stop-color="#E3E6FA"/>
</linearGradient>
<linearGradient id="paint21_linear_1864_8595" x1="158.75" y1="324.895" x2="103.416" y2="324.895" gradientUnits="userSpaceOnUse">
<stop stop-color="#407AE6"/>
<stop offset="0.2634" stop-color="#3D77E2"/>
<stop offset="0.5348" stop-color="#346DD5"/>
<stop offset="0.8089" stop-color="#265DC1"/>
<stop offset="1" stop-color="#184EAE"/>
</linearGradient>
<clipPath id="clip0_1864_8595">
<rect width="356.202" height="350" fill="white" transform="matrix(-1 0 0 1 356.316 0)"/>
</clipPath>
</defs>
</svg>
