<svg width="49" height="48" viewBox="0 0 49 48" fill="none" xmlns="http://www.w3.org/2000/svg">
<g clip-path="url(#clip0_1939_9949)">
<path d="M48.0315 24.001C48.0315 10.7461 37.3169 0.000976562 24.0997 0.000976562C10.8826 0.000976562 0.167969 10.7461 0.167969 24.001C0.167969 37.2558 10.8826 48.001 24.0997 48.001C37.3169 48.001 48.0315 37.2558 48.0315 24.001Z" fill="#16497D"/>
<path d="M17.8822 28.6164H18.4818C18.8317 28.6164 19.051 28.8264 19.051 29.153C19.051 29.4865 18.8434 29.6895 18.4888 29.6895H17.8822V28.6164ZM17.8822 30.2004H18.4468L19.0743 31.4321H19.8721L19.163 30.0954C19.5502 29.9438 19.7742 29.5705 19.7742 29.139C19.7742 28.4741 19.3309 28.0659 18.5564 28.0659H17.1777V31.4321H17.8822V30.2004ZM22.4686 30.8489H20.9429V29.9998H22.3823V29.4586H20.9429V28.6467H22.4686V28.0659H20.2384V31.4321H22.4686V30.8489ZM25.1817 31.4321H25.9305L24.7594 28.0659H23.9313L22.7625 31.4321H23.4857L23.7423 30.6156H24.9251L25.1817 31.4321ZM24.3255 28.7097H24.3418L24.7734 30.0884H23.8939L24.3255 28.7097ZM26.2758 28.0659V31.4321H27.5611C28.5713 31.4321 29.1661 30.8046 29.1661 29.7362C29.1661 28.6677 28.5713 28.0659 27.5611 28.0659H26.2758ZM26.9803 28.6467H27.4772C28.0977 28.6467 28.4476 29.034 28.4476 29.7385C28.4476 30.4663 28.107 30.8489 27.4772 30.8489H26.9803V28.6467ZM31.0814 31.4321V30.1747L32.2548 28.0659H31.499L30.7431 29.5029H30.7268L29.9733 28.0659H29.2058L30.3769 30.1747V31.4321H31.0814Z" fill="white"/>
<path d="M18.4256 22.7074V22.0231H15.7595V22.8985H17.3058L17.3014 23.0052C17.2836 23.9027 16.6126 24.5159 15.6439 24.5159C14.4886 24.5159 13.7688 23.6139 13.7688 22.1387C13.7688 20.6945 14.4575 19.837 15.6128 19.837C16.3993 19.837 16.9948 20.2724 17.2125 21.01H18.3767C18.1678 19.7259 17.0658 18.8638 15.6084 18.8638C13.7555 18.8638 12.5957 20.1169 12.5957 22.152C12.5957 24.2182 13.7599 25.4891 15.6306 25.4891C17.3858 25.4891 18.4256 24.4448 18.4256 22.7074ZM19.3631 18.9705V25.3824H21.7048C23.6244 25.3824 24.7531 24.1916 24.7531 22.1609C24.7531 20.1302 23.62 18.9705 21.7048 18.9705H19.3631ZM20.5095 19.9392H21.5849C22.8646 19.9392 23.5844 20.7301 23.5844 22.1653C23.5844 23.6272 22.8735 24.4137 21.5849 24.4137H20.5095V19.9392ZM25.664 18.9705V25.3824H26.8104V23.2629H28.1079C29.4054 23.2629 30.3163 22.3964 30.3163 21.1167C30.3163 19.837 29.4321 18.9705 28.1568 18.9705H25.664ZM26.8104 19.9081H27.8546C28.6767 19.9081 29.1521 20.348 29.1521 21.1167C29.1521 21.8943 28.6722 22.3386 27.8502 22.3386H26.8104V19.9081ZM32.3026 19.8992H33.5734C34.2977 19.8992 34.7465 20.3169 34.7465 20.9923C34.7465 21.6854 34.3243 22.0898 33.5956 22.0898H32.3026V19.8992ZM32.3026 22.9696H33.5423L34.8042 25.3824H36.1106L34.7109 22.7963C35.4752 22.5208 35.9196 21.8143 35.9196 20.9656C35.9196 19.7392 35.0886 18.9705 33.7023 18.9705H31.1561V25.3824H32.3026V22.9696Z" fill="white"/>
<path d="M6.48399 12.1565L5.85898 13.4264C5.85396 13.4364 5.84661 13.445 5.83755 13.4516C5.82849 13.4582 5.81799 13.4625 5.80693 13.4641L4.40983 13.6678C4.39725 13.6699 4.38549 13.6754 4.37582 13.6837C4.36615 13.692 4.35894 13.7029 4.35499 13.715C4.35104 13.7272 4.35049 13.7402 4.3534 13.7527C4.35631 13.7651 4.36257 13.7765 4.37149 13.7857L5.38267 14.7741C5.39062 14.782 5.39656 14.7916 5.4 14.8023C5.40344 14.813 5.40427 14.8243 5.40242 14.8354L5.16403 16.2311C5.16212 16.2438 5.16372 16.2567 5.16866 16.2685C5.17359 16.2803 5.18166 16.2906 5.19199 16.2981C5.20233 16.3056 5.21453 16.3102 5.22725 16.3112C5.23998 16.3122 5.25275 16.3098 5.26417 16.304L6.51397 15.6451C6.5239 15.6399 6.53494 15.6372 6.54615 15.6372C6.55735 15.6372 6.56839 15.6399 6.57833 15.6451L7.82812 16.304C7.83954 16.3098 7.85231 16.3122 7.86504 16.3112C7.87777 16.3102 7.88996 16.3056 7.9003 16.2981C7.91063 16.2906 7.91871 16.2803 7.92364 16.2685C7.92857 16.2567 7.93017 16.2438 7.92826 16.2311L7.68964 14.8356C7.68779 14.8245 7.68862 14.8132 7.69206 14.8025C7.6955 14.7919 7.70144 14.7822 7.70939 14.7743L8.72033 13.7859C8.72926 13.7768 8.73552 13.7654 8.73843 13.7529C8.74134 13.7404 8.74079 13.7274 8.73684 13.7153C8.73288 13.7031 8.72568 13.6923 8.71601 13.6839C8.70634 13.6756 8.69458 13.6701 8.682 13.668L7.28466 13.4643C7.2736 13.4627 7.2631 13.4584 7.25404 13.4518C7.24499 13.4453 7.23764 13.4366 7.23262 13.4266L6.60783 12.1565C6.60196 12.1451 6.59308 12.1355 6.58216 12.1288C6.57124 12.1222 6.5587 12.1187 6.54591 12.1187C6.53313 12.1187 6.52059 12.1222 6.50967 12.1288C6.49875 12.1355 6.48986 12.1451 6.48399 12.1565Z" fill="#FFE143"/>
<path d="M13.6871 4.2336L13.0621 5.50351C13.0571 5.51352 13.0498 5.52218 13.0407 5.52875C13.0316 5.53532 13.0211 5.53961 13.0101 5.54125L11.613 5.74491C11.6004 5.747 11.5886 5.75252 11.579 5.76086C11.5693 5.76919 11.5621 5.78003 11.5581 5.79219C11.5542 5.80435 11.5536 5.81736 11.5566 5.82981C11.5595 5.84227 11.5657 5.85368 11.5746 5.86281L12.5858 6.85124C12.5938 6.85911 12.5997 6.86879 12.6032 6.87946C12.6066 6.89013 12.6074 6.90146 12.6056 6.91252L12.3672 8.30825C12.3653 8.32091 12.3669 8.33386 12.3718 8.34567C12.3767 8.35748 12.3848 8.36771 12.3951 8.37524C12.4055 8.38276 12.4177 8.3873 12.4304 8.38835C12.4431 8.38939 12.4559 8.38691 12.4673 8.38118L13.7171 7.72223C13.7271 7.71704 13.7381 7.71433 13.7493 7.71433C13.7605 7.71433 13.7715 7.71704 13.7815 7.72223L15.0313 8.38118C15.0427 8.38691 15.0555 8.38939 15.0682 8.38835C15.0809 8.3873 15.0931 8.38276 15.1035 8.37524C15.1138 8.36771 15.1219 8.35748 15.1268 8.34567C15.1317 8.33386 15.1333 8.32091 15.1314 8.30825L14.8928 6.91275C14.8909 6.9017 14.8918 6.89036 14.8952 6.87969C14.8987 6.86903 14.9046 6.85935 14.9125 6.85147L15.9235 5.86304C15.9324 5.85391 15.9387 5.8425 15.9416 5.83005C15.9445 5.8176 15.9439 5.80458 15.94 5.79242C15.936 5.78027 15.9288 5.76943 15.9192 5.76109C15.9095 5.75275 15.8977 5.74724 15.8852 5.74514L14.4878 5.54149C14.4768 5.53984 14.4663 5.53555 14.4572 5.52898C14.4481 5.52241 14.4408 5.51376 14.4358 5.50374L13.811 4.2336C13.8051 4.22221 13.7962 4.21266 13.7853 4.206C13.7744 4.19933 13.7619 4.1958 13.7491 4.1958C13.7363 4.1958 13.7237 4.19933 13.7128 4.206C13.7019 4.21266 13.693 4.22221 13.6871 4.2336Z" fill="#FFE143"/>
<path d="M23.9098 1.90353L23.2848 3.17343C23.2798 3.18345 23.2724 3.1921 23.2634 3.19867C23.2543 3.20524 23.2438 3.20953 23.2327 3.21118L21.8356 3.41483C21.8231 3.41692 21.8113 3.42244 21.8016 3.43078C21.7919 3.43912 21.7847 3.44995 21.7808 3.46211C21.7768 3.47427 21.7763 3.48729 21.7792 3.49974C21.7821 3.51219 21.7884 3.5236 21.7973 3.53273L22.8085 4.52116C22.8164 4.52904 22.8224 4.53872 22.8258 4.54938C22.8292 4.56005 22.8301 4.57138 22.8282 4.58244L22.5898 5.97817C22.5879 5.99083 22.5895 6.00378 22.5945 6.01559C22.5994 6.02741 22.6075 6.03763 22.6178 6.04516C22.6281 6.05269 22.6403 6.05722 22.6531 6.05827C22.6658 6.05932 22.6786 6.05684 22.69 6.0511L23.9398 5.39215C23.9497 5.38696 23.9607 5.38425 23.9719 5.38425C23.9831 5.38425 23.9942 5.38696 24.0041 5.39215L25.2539 6.0511C25.2653 6.05684 25.2781 6.05932 25.2908 6.05827C25.3036 6.05722 25.3158 6.05269 25.3261 6.04516C25.3364 6.03763 25.3445 6.02741 25.3494 6.01559C25.3544 6.00378 25.356 5.99083 25.3541 5.97817L25.1154 4.58267C25.1136 4.57162 25.1144 4.56028 25.1179 4.54961C25.1213 4.53895 25.1272 4.52927 25.1352 4.52139L26.1461 3.53296C26.1551 3.52383 26.1613 3.51242 26.1642 3.49997C26.1671 3.48752 26.1666 3.4745 26.1626 3.46235C26.1587 3.45019 26.1515 3.43935 26.1418 3.43101C26.1321 3.42267 26.1204 3.41716 26.1078 3.41506L24.7105 3.21141C24.6994 3.20976 24.6889 3.20548 24.6798 3.19891C24.6708 3.19234 24.6634 3.18368 24.6584 3.17366L24.0336 1.90353C24.0278 1.89214 24.0189 1.88258 24.008 1.87592C23.997 1.86925 23.9845 1.86572 23.9717 1.86572C23.9589 1.86572 23.9464 1.86925 23.9355 1.87592C23.9245 1.88258 23.9157 1.89214 23.9098 1.90353Z" fill="#FFE143"/>
<path d="M34.1324 4.2336L33.5074 5.50351C33.5024 5.51352 33.4951 5.52218 33.486 5.52875C33.4769 5.53532 33.4664 5.53961 33.4554 5.54125L32.0583 5.74491C32.0457 5.747 32.0339 5.75252 32.0243 5.76086C32.0146 5.76919 32.0074 5.78003 32.0034 5.79219C31.9995 5.80435 31.9989 5.81736 32.0018 5.82981C32.0047 5.84227 32.011 5.85368 32.0199 5.86281L33.0311 6.85124C33.0391 6.85911 33.045 6.86879 33.0484 6.87946C33.0519 6.89013 33.0527 6.90146 33.0509 6.91252L32.8125 8.30825C32.8106 8.32091 32.8122 8.33386 32.8171 8.34567C32.822 8.35748 32.8301 8.36771 32.8404 8.37524C32.8508 8.38276 32.863 8.3873 32.8757 8.38835C32.8884 8.38939 32.9012 8.38691 32.9126 8.38118L34.1624 7.72223C34.1723 7.71704 34.1834 7.71433 34.1946 7.71433C34.2058 7.71433 34.2168 7.71704 34.2268 7.72223L35.4766 8.38118C35.488 8.38691 35.5008 8.38939 35.5135 8.38835C35.5262 8.3873 35.5384 8.38276 35.5487 8.37524C35.5591 8.36771 35.5671 8.35748 35.5721 8.34567C35.577 8.33386 35.5786 8.32091 35.5767 8.30825L35.3381 6.91275C35.3362 6.9017 35.3371 6.89036 35.3405 6.87969C35.3439 6.86903 35.3499 6.85935 35.3578 6.85147L36.3688 5.86304C36.3777 5.85391 36.384 5.8425 36.3869 5.83005C36.3898 5.8176 36.3892 5.80458 36.3853 5.79242C36.3813 5.78027 36.3741 5.76943 36.3645 5.76109C36.3548 5.75275 36.343 5.74724 36.3304 5.74514L34.9331 5.54149C34.922 5.53984 34.9115 5.53555 34.9025 5.52898C34.8934 5.52241 34.8861 5.51376 34.8811 5.50374L34.2563 4.2336C34.2504 4.22221 34.2415 4.21266 34.2306 4.206C34.2197 4.19933 34.2071 4.1958 34.1944 4.1958C34.1816 4.1958 34.169 4.19933 34.1581 4.206C34.1472 4.21266 34.1383 4.22221 34.1324 4.2336Z" fill="#FFE143"/>
<path d="M41.3356 12.1565L40.7105 13.4264C40.7055 13.4364 40.6982 13.445 40.6891 13.4516C40.6801 13.4582 40.6696 13.4625 40.6585 13.4641L39.2614 13.6678C39.2488 13.6699 39.2371 13.6754 39.2274 13.6837C39.2177 13.692 39.2105 13.7029 39.2066 13.715C39.2026 13.7272 39.2021 13.7402 39.205 13.7527C39.2079 13.7651 39.2141 13.7765 39.2231 13.7857L40.2342 14.7741C40.2422 14.782 40.2481 14.7916 40.2516 14.8023C40.255 14.813 40.2558 14.8243 40.254 14.8354L40.0156 16.2311C40.0137 16.2438 40.0153 16.2567 40.0202 16.2685C40.0252 16.2803 40.0332 16.2906 40.0436 16.2981C40.0539 16.3056 40.0661 16.3102 40.0788 16.3112C40.0916 16.3122 40.1043 16.3098 40.1157 16.304L41.3655 15.6451C41.3755 15.6399 41.3865 15.6372 41.3977 15.6372C41.4089 15.6372 41.42 15.6399 41.4299 15.6451L42.6797 16.304C42.6911 16.3098 42.7039 16.3122 42.7166 16.3112C42.7293 16.3102 42.7415 16.3056 42.7519 16.2981C42.7622 16.2906 42.7703 16.2803 42.7752 16.2685C42.7801 16.2567 42.7817 16.2438 42.7798 16.2311L42.5412 14.8356C42.5394 14.8245 42.5402 14.8132 42.5436 14.8025C42.5471 14.7919 42.553 14.7822 42.561 14.7743L43.5719 13.7859C43.5808 13.7768 43.5871 13.7654 43.59 13.7529C43.5929 13.7404 43.5924 13.7274 43.5884 13.7153C43.5845 13.7031 43.5772 13.6923 43.5676 13.6839C43.5579 13.6756 43.5461 13.6701 43.5336 13.668L42.1362 13.4643C42.1252 13.4627 42.1147 13.4584 42.1056 13.4518C42.0966 13.4453 42.0892 13.4366 42.0842 13.4266L41.4594 12.1565C41.4535 12.1451 41.4447 12.1355 41.4337 12.1288C41.4228 12.1222 41.4103 12.1187 41.3975 12.1187C41.3847 12.1187 41.3722 12.1222 41.3612 12.1288C41.3503 12.1355 41.3414 12.1451 41.3356 12.1565Z" fill="#FFE143"/>
<path d="M44.1246 22.1755L43.4995 23.4454C43.4945 23.4554 43.4872 23.4641 43.4781 23.4706C43.4691 23.4772 43.4586 23.4815 43.4475 23.4831L42.0504 23.6868C42.0378 23.6889 42.0261 23.6944 42.0164 23.7028C42.0067 23.7111 41.9995 23.7219 41.9956 23.7341C41.9916 23.7462 41.9911 23.7593 41.994 23.7717C41.9969 23.7842 42.0031 23.7956 42.0121 23.8047L43.0232 24.7931C43.0312 24.801 43.0371 24.8107 43.0406 24.8214C43.044 24.832 43.0448 24.8434 43.043 24.8544L42.8046 26.2501C42.8027 26.2628 42.8043 26.2758 42.8092 26.2876C42.8142 26.2994 42.8222 26.3096 42.8326 26.3171C42.8429 26.3247 42.8551 26.3292 42.8678 26.3302C42.8805 26.3313 42.8933 26.3288 42.9047 26.3231L44.1545 25.6641C44.1645 25.6589 44.1755 25.6562 44.1867 25.6562C44.1979 25.6562 44.209 25.6589 44.2189 25.6641L45.4687 26.3231C45.4801 26.3288 45.4929 26.3313 45.5056 26.3302C45.5183 26.3292 45.5305 26.3247 45.5409 26.3171C45.5512 26.3096 45.5593 26.2994 45.5642 26.2876C45.5691 26.2758 45.5707 26.2628 45.5688 26.2501L45.3302 24.8546C45.3284 24.8436 45.3292 24.8323 45.3326 24.8216C45.3361 24.8109 45.342 24.8012 45.35 24.7934L46.3609 23.8049C46.3698 23.7958 46.3761 23.7844 46.379 23.7719C46.3819 23.7595 46.3814 23.7465 46.3774 23.7343C46.3735 23.7222 46.3662 23.7113 46.3566 23.703C46.3469 23.6946 46.3351 23.6891 46.3226 23.687L44.9252 23.4834C44.9142 23.4817 44.9037 23.4774 44.8946 23.4709C44.8856 23.4643 44.8782 23.4557 44.8732 23.4456L44.2484 22.1755C44.2425 22.1641 44.2336 22.1546 44.2227 22.1479C44.2118 22.1412 44.1993 22.1377 44.1865 22.1377C44.1737 22.1377 44.1612 22.1412 44.1502 22.1479C44.1393 22.1546 44.1304 22.1641 44.1246 22.1755Z" fill="#FFE143"/>
<path d="M41.3356 31.9621L40.7105 33.232C40.7055 33.242 40.6982 33.2507 40.6891 33.2573C40.6801 33.2638 40.6696 33.2681 40.6585 33.2698L39.2614 33.4734C39.2488 33.4755 39.2371 33.481 39.2274 33.4894C39.2177 33.4977 39.2105 33.5085 39.2066 33.5207C39.2026 33.5329 39.2021 33.5459 39.205 33.5583C39.2079 33.5708 39.2141 33.5822 39.2231 33.5913L40.2342 34.5798C40.2422 34.5876 40.2481 34.5973 40.2516 34.608C40.255 34.6186 40.2558 34.63 40.254 34.641L40.0156 36.0368C40.0137 36.0494 40.0153 36.0624 40.0202 36.0742C40.0252 36.086 40.0332 36.0962 40.0436 36.1038C40.0539 36.1113 40.0661 36.1158 40.0788 36.1169C40.0916 36.1179 40.1043 36.1154 40.1157 36.1097L41.3655 35.4507C41.3755 35.4456 41.3865 35.4428 41.3977 35.4428C41.4089 35.4428 41.42 35.4456 41.4299 35.4507L42.6797 36.1097C42.6911 36.1154 42.7039 36.1179 42.7166 36.1169C42.7293 36.1158 42.7415 36.1113 42.7519 36.1038C42.7622 36.0962 42.7703 36.086 42.7752 36.0742C42.7801 36.0624 42.7817 36.0494 42.7798 36.0368L42.5412 34.6413C42.5394 34.6302 42.5402 34.6189 42.5436 34.6082C42.5471 34.5975 42.553 34.5879 42.561 34.58L43.5719 33.5916C43.5808 33.5824 43.5871 33.571 43.59 33.5586C43.5929 33.5461 43.5924 33.5331 43.5884 33.5209C43.5845 33.5088 43.5772 33.4979 43.5676 33.4896C43.5579 33.4813 43.5461 33.4758 43.5336 33.4737L42.1362 33.27C42.1252 33.2684 42.1147 33.2641 42.1056 33.2575C42.0966 33.2509 42.0892 33.2423 42.0842 33.2323L41.4594 31.9621C41.4535 31.9507 41.4447 31.9412 41.4337 31.9345C41.4228 31.9278 41.4103 31.9243 41.3975 31.9243C41.3847 31.9243 41.3722 31.9278 41.3612 31.9345C41.3503 31.9412 41.3414 31.9507 41.3356 31.9621Z" fill="#FFE143"/>
<path d="M34.1324 38.9524L33.5074 40.2223C33.5024 40.2323 33.4951 40.2409 33.486 40.2475C33.4769 40.2541 33.4664 40.2583 33.4554 40.2599L32.0583 40.4636C32.0457 40.4657 32.0339 40.4712 32.0243 40.4795C32.0146 40.4878 32.0074 40.4987 32.0034 40.5108C31.9995 40.523 31.9989 40.536 32.0018 40.5485C32.0047 40.5609 32.011 40.5724 32.0199 40.5816L33.0311 41.57C33.0391 41.5779 33.045 41.5875 33.0484 41.5982C33.0519 41.6089 33.0527 41.6202 33.0509 41.6313L32.8125 43.027C32.8106 43.0397 32.8122 43.0526 32.8171 43.0644C32.822 43.0761 32.8301 43.0865 32.8404 43.094C32.8508 43.1015 32.863 43.106 32.8757 43.1071C32.8884 43.1081 32.9012 43.1056 32.9126 43.0998L34.1624 42.441C34.1723 42.4358 34.1834 42.4331 34.1946 42.4331C34.2058 42.4331 34.2168 42.4358 34.2268 42.441L35.4766 43.0998C35.488 43.1056 35.5008 43.1081 35.5135 43.1071C35.5262 43.106 35.5384 43.1015 35.5487 43.094C35.5591 43.0865 35.5671 43.0761 35.5721 43.0644C35.577 43.0526 35.5786 43.0397 35.5767 43.027L35.3381 41.6315C35.3362 41.6204 35.3371 41.6091 35.3405 41.5984C35.3439 41.5878 35.3499 41.5781 35.3578 41.5702L36.3688 40.5817C36.3777 40.5726 36.384 40.5612 36.3869 40.5488C36.3898 40.5363 36.3892 40.5233 36.3853 40.5112C36.3813 40.499 36.3741 40.4882 36.3645 40.4798C36.3548 40.4715 36.343 40.466 36.3304 40.4639L34.9331 40.2602C34.922 40.2586 34.9115 40.2543 34.9025 40.2477C34.8934 40.2412 34.8861 40.2325 34.8811 40.2225L34.2563 38.9524C34.2504 38.941 34.2415 38.9314 34.2306 38.9247C34.2197 38.9181 34.2071 38.9146 34.1944 38.9146C34.1816 38.9146 34.169 38.9181 34.1581 38.9247C34.1472 38.9314 34.1383 38.941 34.1324 38.9524Z" fill="#FFE143"/>
<path d="M23.9098 42.2146L23.2848 43.4845C23.2798 43.4945 23.2724 43.5031 23.2634 43.5097C23.2543 43.5163 23.2438 43.5206 23.2327 43.5222L21.8356 43.7259C21.8231 43.728 21.8113 43.7335 21.8016 43.7418C21.7919 43.7502 21.7847 43.761 21.7808 43.7731C21.7768 43.7853 21.7763 43.7983 21.7792 43.8108C21.7821 43.8232 21.7884 43.8346 21.7973 43.8438L22.8085 44.8322C22.8164 44.8401 22.8224 44.8498 22.8258 44.8604C22.8292 44.8711 22.8301 44.8824 22.8282 44.8935L22.5898 46.2892C22.5879 46.3019 22.5895 46.3148 22.5945 46.3266C22.5994 46.3384 22.6075 46.3487 22.6178 46.3562C22.6281 46.3637 22.6403 46.3683 22.6531 46.3693C22.6658 46.3704 22.6786 46.3679 22.69 46.3621L23.9398 45.7032C23.9497 45.698 23.9607 45.6953 23.9719 45.6953C23.9831 45.6953 23.9942 45.698 24.0041 45.7032L25.2539 46.3621C25.2653 46.3679 25.2781 46.3704 25.2908 46.3693C25.3036 46.3683 25.3158 46.3637 25.3261 46.3562C25.3364 46.3487 25.3445 46.3384 25.3494 46.3266C25.3544 46.3148 25.356 46.3019 25.3541 46.2892L25.1154 44.8937C25.1136 44.8827 25.1144 44.8713 25.1179 44.8606C25.1213 44.85 25.1272 44.8403 25.1352 44.8324L26.1461 43.844C26.1551 43.8349 26.1613 43.8235 26.1642 43.811C26.1671 43.7986 26.1666 43.7855 26.1626 43.7734C26.1587 43.7612 26.1515 43.7504 26.1418 43.742C26.1321 43.7337 26.1204 43.7282 26.1078 43.7261L24.7105 43.5224C24.6994 43.5208 24.6889 43.5165 24.6798 43.5099C24.6708 43.5034 24.6634 43.4947 24.6584 43.4847L24.0336 42.2146C24.0278 42.2032 24.0189 42.1936 24.008 42.187C23.997 42.1803 23.9845 42.1768 23.9717 42.1768C23.9589 42.1768 23.9464 42.1803 23.9355 42.187C23.9245 42.1936 23.9157 42.2032 23.9098 42.2146Z" fill="#FFE143"/>
<path d="M13.6871 38.9524L13.0621 40.2223C13.0571 40.2323 13.0498 40.2409 13.0407 40.2475C13.0316 40.2541 13.0211 40.2583 13.0101 40.2599L11.613 40.4636C11.6004 40.4657 11.5886 40.4712 11.579 40.4795C11.5693 40.4878 11.5621 40.4987 11.5581 40.5108C11.5542 40.523 11.5536 40.536 11.5566 40.5485C11.5595 40.5609 11.5657 40.5724 11.5746 40.5816L12.5858 41.57C12.5938 41.5779 12.5997 41.5875 12.6032 41.5982C12.6066 41.6089 12.6074 41.6202 12.6056 41.6313L12.3672 43.027C12.3653 43.0397 12.3669 43.0526 12.3718 43.0644C12.3767 43.0761 12.3848 43.0865 12.3951 43.094C12.4055 43.1015 12.4177 43.106 12.4304 43.1071C12.4431 43.1081 12.4559 43.1056 12.4673 43.0998L13.7171 42.441C13.7271 42.4358 13.7381 42.4331 13.7493 42.4331C13.7605 42.4331 13.7715 42.4358 13.7815 42.441L15.0313 43.0998C15.0427 43.1056 15.0555 43.1081 15.0682 43.1071C15.0809 43.106 15.0931 43.1015 15.1035 43.094C15.1138 43.0865 15.1219 43.0761 15.1268 43.0644C15.1317 43.0526 15.1333 43.0397 15.1314 43.027L14.8928 41.6315C14.8909 41.6204 14.8918 41.6091 14.8952 41.5984C14.8987 41.5878 14.9046 41.5781 14.9125 41.5702L15.9235 40.5817C15.9324 40.5726 15.9387 40.5612 15.9416 40.5488C15.9445 40.5363 15.9439 40.5233 15.94 40.5112C15.936 40.499 15.9288 40.4882 15.9192 40.4798C15.9095 40.4715 15.8977 40.466 15.8852 40.4639L14.4878 40.2602C14.4768 40.2586 14.4663 40.2543 14.4572 40.2477C14.4481 40.2412 14.4408 40.2325 14.4358 40.2225L13.811 38.9524C13.8051 38.941 13.7962 38.9314 13.7853 38.9247C13.7744 38.9181 13.7619 38.9146 13.7491 38.9146C13.7363 38.9146 13.7237 38.9181 13.7128 38.9247C13.7019 38.9314 13.693 38.941 13.6871 38.9524Z" fill="#FFE143"/>
<path d="M6.48399 31.9621L5.85898 33.232C5.85396 33.242 5.84661 33.2507 5.83755 33.2573C5.82849 33.2638 5.81799 33.2681 5.80693 33.2698L4.40983 33.4734C4.39725 33.4755 4.38549 33.481 4.37582 33.4894C4.36615 33.4977 4.35894 33.5085 4.35499 33.5207C4.35104 33.5329 4.35049 33.5459 4.3534 33.5583C4.35631 33.5708 4.36257 33.5822 4.37149 33.5913L5.38267 34.5798C5.39062 34.5876 5.39656 34.5973 5.4 34.608C5.40344 34.6186 5.40427 34.63 5.40242 34.641L5.16403 36.0368C5.16212 36.0494 5.16372 36.0624 5.16866 36.0742C5.17359 36.086 5.18166 36.0962 5.19199 36.1038C5.20233 36.1113 5.21453 36.1158 5.22725 36.1169C5.23998 36.1179 5.25275 36.1154 5.26417 36.1097L6.51397 35.4507C6.5239 35.4456 6.53494 35.4428 6.54615 35.4428C6.55735 35.4428 6.56839 35.4456 6.57833 35.4507L7.82812 36.1097C7.83954 36.1154 7.85231 36.1179 7.86504 36.1169C7.87777 36.1158 7.88996 36.1113 7.9003 36.1038C7.91063 36.0962 7.91871 36.086 7.92364 36.0742C7.92857 36.0624 7.93017 36.0494 7.92826 36.0368L7.68964 34.6413C7.68779 34.6302 7.68862 34.6189 7.69206 34.6082C7.6955 34.5975 7.70144 34.5879 7.70939 34.58L8.72033 33.5916C8.72926 33.5824 8.73552 33.571 8.73843 33.5586C8.74134 33.5461 8.74079 33.5331 8.73684 33.5209C8.73288 33.5088 8.72568 33.4979 8.71601 33.4896C8.70634 33.4813 8.69458 33.4758 8.682 33.4737L7.28466 33.27C7.2736 33.2684 7.2631 33.2641 7.25404 33.2575C7.24499 33.2509 7.23764 33.2423 7.23262 33.2323L6.60783 31.9621C6.60196 31.9507 6.59308 31.9412 6.58216 31.9345C6.57124 31.9278 6.5587 31.9243 6.54591 31.9243C6.53313 31.9243 6.52059 31.9278 6.50967 31.9345C6.49875 31.9412 6.48986 31.9507 6.48399 31.9621Z" fill="#FFE143"/>
<path d="M3.92736 22.1755L3.30235 23.4454C3.29733 23.4554 3.28998 23.4641 3.28092 23.4706C3.27186 23.4772 3.26136 23.4815 3.2503 23.4831L1.8532 23.6868C1.84062 23.6889 1.82885 23.6944 1.81918 23.7028C1.80951 23.7111 1.80231 23.7219 1.79836 23.7341C1.7944 23.7462 1.79385 23.7593 1.79676 23.7717C1.79967 23.7842 1.80593 23.7956 1.81486 23.8047L2.82603 24.7931C2.83398 24.801 2.83993 24.8107 2.84337 24.8214C2.8468 24.832 2.84763 24.8434 2.84578 24.8544L2.6074 26.2501C2.60549 26.2628 2.60709 26.2758 2.61202 26.2876C2.61695 26.2994 2.62503 26.3096 2.63536 26.3171C2.64569 26.3247 2.65789 26.3292 2.67062 26.3302C2.68335 26.3313 2.69612 26.3288 2.70754 26.3231L3.95733 25.6641C3.96727 25.6589 3.97831 25.6562 3.98951 25.6562C4.00072 25.6562 4.01175 25.6589 4.02169 25.6641L5.27149 26.3231C5.28291 26.3288 5.29568 26.3313 5.3084 26.3302C5.32113 26.3292 5.33333 26.3247 5.34366 26.3171C5.354 26.3096 5.36207 26.2994 5.367 26.2876C5.37193 26.2758 5.37353 26.2628 5.37163 26.2501L5.13301 24.8546C5.13116 24.8436 5.13199 24.8323 5.13543 24.8216C5.13886 24.8109 5.14481 24.8012 5.15276 24.7934L6.1637 23.8049C6.17263 23.7958 6.17889 23.7844 6.1818 23.7719C6.18471 23.7595 6.18416 23.7465 6.1802 23.7343C6.17625 23.7222 6.16905 23.7113 6.15938 23.703C6.14971 23.6946 6.13794 23.6891 6.12536 23.687L4.72803 23.4834C4.71697 23.4817 4.70647 23.4774 4.69741 23.4709C4.68835 23.4643 4.681 23.4557 4.67598 23.4456L4.0512 22.1755C4.04533 22.1641 4.03645 22.1546 4.02553 22.1479C4.01461 22.1412 4.00207 22.1377 3.98928 22.1377C3.97649 22.1377 3.96396 22.1412 3.95303 22.1479C3.94211 22.1546 3.93323 22.1641 3.92736 22.1755Z" fill="#FFE143"/>
</g>
<defs>
<clipPath id="clip0_1939_9949">
<rect width="49" height="48" fill="white"/>
</clipPath>
</defs>
</svg>
