<svg width="34" height="36" viewBox="0 0 34 36" fill="none" xmlns="http://www.w3.org/2000/svg">
<path d="M5.48637 6.27878C4.11794 8.87156 3.09367 11.6135 2.41583 14.4638C1.58494 17.8781 6.80294 19.3363 7.62149 15.9253C8.20247 13.5033 9.00649 11.2227 10.1783 9.03127C11.7973 5.94222 7.11769 3.18642 5.48637 6.27878Z" fill="#FFC847"/>
<path d="M22.5875 13.8863C21.9067 12.7277 20.0559 11.9899 18.8988 12.9034C17.2041 14.2292 15.795 15.8807 14.1003 17.2064C12.9399 18.1074 12.3296 19.5316 13.1548 20.9331C13.8355 22.0917 15.6864 22.8295 16.8435 21.916C18.5382 20.5902 19.9472 18.9387 21.6419 17.613C22.799 16.6994 23.4127 15.2879 22.5875 13.8863Z" fill="#FFC847"/>
<path d="M29.3873 24.3079C27.1301 25.1139 24.7634 25.5603 22.4525 26.1661C19.0929 27.0529 20.5043 32.3205 23.8673 31.4462C26.1782 30.8404 28.5449 30.394 30.8021 29.588C32.191 29.0952 33.1073 27.7768 32.6983 26.2503C32.3362 24.899 30.7762 23.8151 29.3873 24.3079Z" fill="#FFC847"/>
</svg>
