<svg width="49" height="48" viewBox="0 0 49 48" fill="none" xmlns="http://www.w3.org/2000/svg">
<g clip-path="url(#clip0_1942_9975)">
<path d="M24.0554 48.0024C37.3107 48.0024 48.0562 37.2569 48.0562 24.0017C48.0562 10.7465 37.3107 0.000976562 24.0554 0.000976562C10.8002 0.000976562 0.0546875 10.7465 0.0546875 24.0017C0.0546875 37.2569 10.8002 48.0024 24.0554 48.0024Z" fill="#105BAB"/>
<path d="M19.0486 40.2608H15.6523C15.6933 39.9216 15.8151 39.5972 16.0075 39.3149C16.2025 39.0224 16.5724 38.674 17.1172 38.2695C17.3524 38.1104 17.5661 37.9217 17.7532 37.7081C17.8391 37.6052 17.8903 37.4778 17.8994 37.344C17.9003 37.2842 17.8885 37.2249 17.8648 37.17C17.8411 37.115 17.8061 37.0657 17.762 37.0253C17.6657 36.9391 17.541 36.8914 17.4118 36.8914C17.2826 36.8914 17.1579 36.9391 17.0617 37.0253C16.9506 37.162 16.8861 37.3305 16.8775 37.5063L15.7429 37.4142C15.7687 37.1506 15.8526 36.8959 15.9885 36.6686C16.1119 36.4852 16.2862 36.3419 16.49 36.2563C16.7759 36.1477 17.0807 36.098 17.3862 36.1101C17.7015 36.097 18.0164 36.1431 18.3146 36.246C18.5275 36.3291 18.71 36.4749 18.838 36.6642C18.964 36.8506 19.0303 37.0708 19.0281 37.2958C19.0263 37.5493 18.9506 37.7967 18.8103 38.0078C18.5928 38.3018 18.3238 38.5539 18.0164 38.752C17.7883 38.9099 17.6362 39.0195 17.5588 39.0824C17.4813 39.1453 17.3921 39.2286 17.2883 39.3295H19.0559L19.0486 40.2608Z" fill="white"/>
<path d="M19.2949 36.1875H22.5933V36.9521C22.3167 37.1992 22.0747 37.4825 21.8739 37.7943C21.634 38.1752 21.448 38.5875 21.3213 39.0195C21.2035 39.4239 21.131 39.8403 21.1049 40.2607H19.9762C20.0436 39.687 20.1862 39.1247 20.4002 38.5882C20.635 38.0676 20.94 37.5815 21.3067 37.1437H19.2949V36.1875Z" fill="white"/>
<path d="M22.813 38.2083C22.813 37.4334 22.9524 36.8915 23.2312 36.5825C23.5104 36.2726 23.9359 36.119 24.5061 36.119C24.7354 36.1121 24.9642 36.1463 25.1815 36.2199C25.3412 36.2774 25.4875 36.367 25.6114 36.4831C25.7158 36.5833 25.8045 36.6986 25.8745 36.8252C25.941 36.9577 25.9901 37.0983 26.0207 37.2433C26.0975 37.5542 26.1358 37.8734 26.1348 38.1937C26.1348 38.9335 26.01 39.4744 25.7605 39.8165C25.511 40.1586 25.0801 40.3302 24.468 40.3312C24.1822 40.3425 23.8977 40.2864 23.6376 40.1674C23.4245 40.0561 23.2449 39.8901 23.1171 39.6864C23.0043 39.4967 22.9265 39.2882 22.8876 39.0709C22.8334 38.7866 22.8084 38.4976 22.813 38.2083ZM23.9359 38.2083C23.9359 38.7258 23.9826 39.0855 24.0733 39.2712C24.1041 39.3528 24.1585 39.4234 24.2296 39.4739C24.3007 39.5244 24.3852 39.5526 24.4724 39.5548C24.5819 39.5551 24.6871 39.512 24.7648 39.4349C24.8628 39.3279 24.9278 39.1949 24.952 39.0519C24.9995 38.7837 25.0196 38.5113 25.0119 38.239C25.0119 37.698 24.9632 37.3345 24.8657 37.1483C24.8334 37.0655 24.7767 36.9944 24.703 36.9445C24.6294 36.8946 24.5423 36.8683 24.4534 36.8691C24.3646 36.8676 24.2776 36.8942 24.2049 36.9452C24.1322 36.9961 24.0774 37.0688 24.0484 37.1527C23.9744 37.3447 23.9368 37.6975 23.9359 38.2112V38.2083Z" fill="white"/>
<path d="M26.3537 38.2083C26.3537 37.4334 26.4935 36.8915 26.7733 36.5825C27.0511 36.2726 27.4765 36.119 28.0467 36.119C28.2761 36.1121 28.5048 36.1463 28.7222 36.2199C28.8819 36.2774 29.0281 36.367 29.152 36.4831C29.2564 36.5833 29.3451 36.6986 29.4152 36.8252C29.4841 36.9574 29.5357 37.0979 29.5687 37.2433C29.6455 37.5542 29.6838 37.8734 29.6827 38.1937C29.6827 38.9335 29.558 39.4744 29.3084 39.8165C29.0589 40.1586 28.6281 40.3302 28.016 40.3312C27.7302 40.3425 27.4457 40.2864 27.1856 40.1674C26.9725 40.0561 26.7928 39.8901 26.6651 39.6864C26.5522 39.4968 26.4749 39.2882 26.437 39.0709C26.3791 38.7871 26.3512 38.4979 26.3537 38.2083ZM27.4765 38.2083C27.4765 38.7258 27.5233 39.0855 27.6139 39.2712C27.6447 39.3528 27.6991 39.4234 27.7702 39.4739C27.8413 39.5244 27.9259 39.5526 28.0131 39.5548C28.1226 39.5551 28.2277 39.512 28.3055 39.4349C28.404 39.3283 28.4691 39.1951 28.4926 39.0519C28.5402 38.7837 28.5602 38.5113 28.5526 38.239C28.5526 37.698 28.5058 37.334 28.4151 37.1483C28.3831 37.0652 28.3264 36.9938 28.2528 36.9436C28.1791 36.8935 28.0919 36.867 28.0028 36.8676C27.9141 36.8661 27.8271 36.8928 27.7543 36.9437C27.6816 36.9947 27.6268 37.0673 27.5979 37.1512C27.5179 37.3442 27.4775 37.6975 27.4765 38.2112V38.2083Z" fill="white"/>
<path d="M32.4594 36.1191V40.2611H31.3146V37.5461C31.1479 37.6775 30.9692 37.793 30.781 37.8911C30.5712 37.9929 30.353 38.0766 30.1289 38.1411V37.2127C30.4534 37.121 30.7579 36.9692 31.0266 36.7654C31.2398 36.5915 31.4107 36.3716 31.5266 36.1221L32.4594 36.1191Z" fill="white"/>
<path d="M12.7203 28.3879C12.5365 28.3616 12.3499 28.3616 12.1662 28.3879C13.4636 30.3816 15.2606 32.0006 17.3783 33.0839L17.3944 33.0664L17.4134 33.119C18.7845 33.8049 20.2579 34.2637 21.7761 34.4773C27.0906 35.1834 32.1653 32.8953 35.1084 28.3879C34.9236 28.3703 34.7376 28.3703 34.5528 28.3879C33.8151 29.4639 32.9235 30.426 31.9065 31.2432L31.734 31.2272C31.2954 30.9523 30.8305 30.7257 30.4182 30.4523C30.9816 29.8042 31.4866 29.1075 31.927 28.3703H31.389C30.9504 29.0063 30.5118 29.6759 29.9343 30.2447C29.2072 29.9337 28.461 29.6695 27.7003 29.4537L27.614 29.385C27.7354 29.04 27.959 28.7139 28.0292 28.3703H27.5643L27.095 29.2987C26.0441 29.0833 24.9788 28.9455 23.9077 28.8864C23.858 28.7315 23.9297 28.5078 23.858 28.3703H23.4077C23.3726 28.575 23.4589 28.7315 23.3566 28.9025C22.3088 28.948 21.2662 29.0746 20.238 29.2812L19.7717 28.3703C19.5977 28.3703 19.4076 28.3353 19.2863 28.3864L19.7249 29.4011L19.6737 29.4537C18.8968 29.6782 18.1338 29.9482 17.3885 30.2622L17.3184 30.2271C16.8293 29.6957 16.3834 29.1262 15.985 28.5239C15.9002 28.2314 15.5464 28.404 15.3622 28.3777C15.7774 29.1335 16.3315 29.8061 16.8871 30.4932C16.4273 30.7864 15.953 31.0563 15.466 31.3017C14.3999 30.4845 13.4727 29.5006 12.7203 28.3879ZM30.0176 30.8733C30.4885 31.0689 30.9358 31.317 31.351 31.6131C30.3831 32.3865 29.2573 32.9041 28.1126 33.3325L27.2997 33.5913C27.1626 33.5148 27.0351 33.4226 26.9195 33.3164L26.9517 33.2638C28.0706 32.5997 29.1008 31.7965 30.0176 30.8733ZM27.3348 29.9274L27.3859 29.8923C28.1171 30.0556 28.8266 30.3039 29.5 30.6321C28.9252 31.2558 28.2795 31.8103 27.576 32.2842C27.1783 32.5254 26.7792 32.7828 26.364 32.9889L25.6183 32.6629L25.671 32.543C26.2901 31.7159 26.8462 30.8436 27.3348 29.9333V29.9274ZM23.9253 29.4113C24.8984 29.4211 25.8676 29.5368 26.8157 29.7563L26.8303 29.809C26.3286 30.751 25.7424 31.6456 25.0788 32.4816C24.7864 32.5152 24.5086 32.3953 24.2119 32.3778L23.9194 32.3441C23.8902 31.3266 23.8712 30.4347 23.9253 29.4113ZM26.5716 33.7126L26.4502 33.8164C24.5669 34.2266 22.6162 34.2147 20.7381 33.7813L20.8755 33.6264C22.4867 32.581 24.997 32.581 26.5716 33.717V33.7126ZM20.5772 29.7213C21.502 29.5295 22.4429 29.4257 23.3873 29.4113L23.4033 32.3193C23.0408 32.4056 22.6416 32.4056 22.2951 32.4918C21.6006 31.6576 20.9968 30.7519 20.4939 29.79L20.5772 29.7213ZM17.7891 30.6511C18.4662 30.3296 19.1733 30.0759 19.9003 29.8938L19.972 29.9113C20.501 30.8573 21.0869 31.7703 21.7264 32.6453C21.4822 32.7915 21.1898 32.8705 20.9457 33.0079C19.7734 32.4218 18.7083 31.6423 17.795 30.7023L17.7891 30.6511ZM15.9704 31.6146C16.3779 31.3401 16.8066 31.0986 17.2526 30.8924C18.1993 31.813 19.2446 32.6264 20.3696 33.3179L20.0231 33.5927C18.5645 33.207 17.1903 32.5535 15.9704 31.6658V31.6146ZM24.3157 16.0615C24.4019 15.8539 24.3332 15.5629 24.3698 15.3568C25.1476 15.3217 26.1008 15.3217 26.8786 15.3378C26.8961 16.7662 26.9473 18.0045 26.9151 19.4169C26.0833 19.449 25.2002 19.4329 24.4297 19.4329C23.7206 18.3145 22.475 17.9022 21.2629 17.7297C20.6913 17.7136 19.9281 17.5411 19.5991 18.1083C19.5863 18.1957 19.5974 18.2849 19.6311 18.3664C19.6648 18.448 19.7199 18.519 19.7907 18.5718L20.1079 18.7385L24.2996 19.9593C25.7017 20.3219 27.0862 21.6465 27.2763 23.1085C27.3784 23.8224 27.2609 24.5504 26.9394 25.1959C26.6179 25.8415 26.1077 26.3739 25.4765 26.7226C23.6943 27.6496 21.3726 27.4785 19.5714 26.7226C19.279 26.5662 18.9866 26.3951 18.6941 26.2562L18.6591 27.0838L16.061 27.0998C16.0098 25.7226 16.0274 24.1231 16.061 22.7298L18.4003 22.7123C18.5465 22.8848 18.6269 23.0909 18.7643 23.2635C19.9413 24.5018 21.7074 24.8454 23.3346 24.398C23.456 24.3293 23.6153 24.243 23.6153 24.0895C23.6475 23.898 23.4399 23.7445 23.282 23.6758C21.7264 23.1421 20.1152 22.7459 18.5728 22.1947C17.4485 21.7663 16.2716 20.854 16.0449 19.6157C15.7525 18.3072 16.0976 16.8276 17.2233 16.0015C18.9544 14.7471 21.6211 14.8319 23.5262 15.6419L24.3157 16.0615ZM30.2062 15.9401C28.9401 16.5937 28.1082 17.8861 27.8509 19.2092C27.3815 21.4023 27.5029 23.993 29.1667 25.6276C31.1083 27.3469 33.93 27.7256 36.4403 27.0209C36.7026 26.966 36.957 26.8786 37.1976 26.7606L37.2722 26.7285C38.0892 26.3886 38.8044 25.8432 39.3483 25.1451C40.6319 23.2532 40.7182 20.4125 39.9331 18.2735C39.6246 17.4475 38.9828 16.7077 38.205 16.1741C35.9578 14.7413 32.5264 14.6448 30.2106 15.9445L30.2062 15.9401ZM35.699 18.6595C35.9637 19.0543 35.9461 19.5718 36.0002 20.0353C35.9812 21.0163 36.0675 22.1845 35.892 23.1831C35.8514 23.4037 35.7563 23.6108 35.6153 23.7854C35.4744 23.9601 35.2921 24.0967 35.085 24.1831C34.7132 24.3267 34.3149 24.3886 33.9171 24.3646C33.5192 24.3407 33.1312 24.2314 32.7794 24.0442C32.2326 23.6655 32.1653 23.031 32.0937 22.4272C32.0396 21.2385 31.9475 19.9841 32.2867 18.8978C32.5513 18.2282 33.2735 18.0557 33.9241 18.0045C34.6142 18.0075 35.2824 18.1127 35.7034 18.6639L35.699 18.6595ZM24.7338 7.71621L24.7163 7.7513L24.6841 7.71621C24.1718 7.65973 23.6551 7.65385 23.1416 7.69866C22.9281 7.68815 22.714 7.69402 22.5013 7.71621C20.4158 7.86973 18.3942 8.504 16.5948 9.56933C14.7955 10.6347 13.2671 12.1021 12.1296 13.8567C12.3036 13.8392 12.5097 13.9065 12.6837 13.8392C13.1113 13.2394 13.5798 12.6698 14.0858 12.1345C14.4984 11.7083 14.9508 11.3225 15.4367 10.9824C15.8885 11.2748 16.39 11.516 16.8213 11.7909C16.2847 12.462 15.7321 13.133 15.3329 13.8567C15.5034 13.8986 15.6815 13.8986 15.852 13.8567C16.2838 13.2006 16.7731 12.5841 17.314 12.0146C18.0596 12.2894 18.7862 12.5819 19.548 12.788L19.6167 12.8567L19.1781 13.8567C19.3448 13.8816 19.5143 13.8816 19.681 13.8567C19.8375 13.5643 19.9573 13.2354 20.1299 12.9444C21.1607 13.1687 22.21 13.2974 23.2645 13.329C23.4034 13.4474 23.301 13.7076 23.3522 13.8626H23.8186C23.8712 13.6886 23.8039 13.5 23.8712 13.345C24.8911 13.3086 25.9053 13.1765 26.9005 12.9503L26.9868 12.9664L27.4532 13.8626C27.6111 13.8626 27.8187 13.8962 27.94 13.826L27.5014 12.8304L27.5365 12.7938C28.3218 12.5711 29.0911 12.2956 29.8392 11.9693C30.3835 12.5643 30.882 13.1997 31.3305 13.8699C31.5034 13.886 31.6777 13.8737 31.8466 13.8334C31.6347 13.449 31.386 13.0862 31.1039 12.75C30.8747 12.4206 30.6195 12.1102 30.3407 11.8216V11.7353L31.5527 11.0306L31.7282 10.9619C32.7841 11.7697 33.7062 12.7387 34.4607 13.8334C34.6683 13.8334 34.8437 13.9035 35.0163 13.8173C33.8755 12.0894 32.3575 10.643 30.5767 9.58698C28.7958 8.53092 26.7985 7.89277 24.7353 7.7206L24.7338 7.71621ZM17.2219 11.3844C16.7535 11.2025 16.3111 10.9596 15.906 10.6622V10.6286C16.9935 9.82897 18.2045 9.21262 19.491 8.80396L19.6459 8.70308V8.73524C19.7834 8.77033 19.8886 8.61536 20.01 8.71916L20.3199 8.95893C19.2004 9.64996 18.1613 10.4635 17.2219 11.3844ZM19.8711 12.3318L19.8024 12.3494C19.0978 12.1682 18.4085 11.9321 17.7409 11.6432L17.776 11.5394C18.6892 10.6488 19.7227 9.89047 20.8463 9.28643C21.1065 9.38877 21.3653 9.4765 21.6255 9.59638L21.5743 9.73381C20.9091 10.5584 20.3916 11.4546 19.8711 12.3318ZM23.3244 12.7953C22.839 12.864 22.4077 12.7792 21.9223 12.7441C21.453 12.6754 20.8653 12.6243 20.3989 12.4693C20.9011 11.5073 21.5044 10.6015 22.1986 9.76744L23.3083 9.92388C23.3522 10.8172 23.3244 11.8494 23.3244 12.7953ZM20.9354 8.71916L20.6577 8.49401C22.494 8.06417 24.6578 8.03054 26.4751 8.49401V8.5291C24.9619 9.63147 22.5203 9.73381 20.9281 8.71916H20.9354ZM23.8595 12.8129C23.8244 11.9035 23.842 10.8874 23.8595 9.94142C24.2075 9.88879 24.5905 9.83762 24.9312 9.78644C25.6096 10.6461 26.266 11.5248 26.7178 12.4707C25.7798 12.6967 24.8184 12.811 23.8537 12.8114L23.8595 12.8129ZM29.3845 11.6111C28.7058 11.9233 27.9969 12.1653 27.269 12.3333C26.7272 11.3997 26.1322 10.4981 25.4867 9.63293C25.7309 9.49404 26.0248 9.39024 26.2836 9.25427C27.4443 9.8507 28.502 10.6291 29.4167 11.5599L29.3845 11.6111ZM31.2018 10.6637L30.0088 11.3362H29.9196C28.9994 10.4124 27.9617 9.61366 26.8333 8.9604L27.1652 8.66799C28.6282 9.05389 30.0072 9.70721 31.2325 10.5949L31.2018 10.6637ZM9.43509 23.9813V18.1332C8.86343 18.082 8.30932 18.101 7.72013 18.082C7.70258 17.1132 7.70258 16.1443 7.72013 15.1755L8.79325 15.1565L15.3227 15.1755C15.3739 16.0703 15.3578 17.1185 15.3388 18.0996L13.6253 18.1156L13.5902 18.1683L13.5726 24.2065C14.1267 24.2752 14.7671 24.2226 15.3388 24.2576V27.0969H7.69819C7.6631 26.1505 7.6631 25.2041 7.69819 24.2576L9.4117 24.2226L9.43509 23.9813Z" fill="white"/>
</g>
<defs>
<clipPath id="clip0_1942_9975">
<rect width="49" height="48" fill="white"/>
</clipPath>
</defs>
</svg>
