<svg width="53" height="60" viewBox="0 0 53 60" fill="none" xmlns="http://www.w3.org/2000/svg">
<path d="M25.9651 60C25.8956 60 25.8307 59.9814 25.7728 59.949C25.6523 59.8795 25.5781 59.7497 25.5781 59.6107L25.6615 30.2213C25.6615 30.0846 25.7357 29.9548 25.8562 29.8853L51.7816 14.8198C51.8419 14.7851 51.9091 14.7665 51.9786 14.7665C52.0458 14.7665 52.113 14.7851 52.1709 14.8175C52.2937 14.887 52.3679 15.0168 52.3679 15.1558L52.2844 44.5429C52.2844 44.6797 52.2103 44.8094 52.0898 44.8789L26.1597 59.9467C26.1018 59.9814 26.0346 60 25.9651 60ZM26.4354 30.446L26.3543 58.9365L51.5036 44.3228L51.5847 15.8324L26.4354 30.446Z" fill="#032368"/>
<path d="M26.0488 30.6105C25.9816 30.6105 25.9145 30.592 25.8565 30.5596L0.278617 15.793C0.160447 15.7235 0.0839844 15.5961 0.0839844 15.457C0.0839844 15.3203 0.15813 15.1906 0.2763 15.1211L26.2018 0.0532921C26.262 0.0185364 26.3292 0 26.3987 0C26.4659 0 26.5331 0.0185364 26.591 0.0509751L52.1689 14.8198C52.2894 14.8894 52.3636 15.0168 52.3636 15.1558C52.3636 15.2925 52.2894 15.4223 52.1713 15.4895L26.2435 30.5573C26.1856 30.592 26.116 30.6105 26.0488 30.6105ZM1.24483 15.4547L26.0465 29.7741L51.2004 15.1581L26.3987 0.838772L1.24483 15.4547Z" fill="#032368"/>
<path d="M18.9737 33.9703H18.3828L7.77539 40.1336V40.845H8.29441L8.19478 40.787L18.9737 34.5241V33.9703Z" fill="#032368"/>
<path d="M25.9649 60C25.8953 60 25.8305 59.9814 25.7725 59.949L0.194632 45.1801C0.0741456 45.1129 0 44.9832 0 44.8441L0.0834138 15.4547C0.0834138 15.318 0.157559 15.1882 0.278046 15.1187C0.338289 15.084 0.403167 15.0654 0.472678 15.0654C0.539873 15.0654 0.607067 15.084 0.664993 15.1164L26.2429 29.883C26.3634 29.9525 26.4375 30.0822 26.4352 30.2189L26.3518 59.6107C26.3518 59.7497 26.2777 59.8772 26.1572 59.9467C26.1016 59.9814 26.0344 60 25.9649 60ZM0.776212 44.6217L25.5779 58.9411L25.659 30.446L0.857308 16.1266L0.776212 44.6217Z" fill="#032368"/>
<path d="M19.1727 48.0278C19.1403 48.0278 19.1102 48.0185 19.0824 48.0046L7.13333 41.1068C7.07772 41.0743 7.04297 41.0141 7.04297 40.9492L7.08236 27.2207C7.08236 27.1558 7.11711 27.0956 7.17272 27.0631C7.20053 27.0469 7.23065 27.04 7.26309 27.04C7.29553 27.04 7.32565 27.0492 7.35345 27.0631L19.3025 33.961C19.3581 33.9934 19.3928 34.0537 19.3928 34.1186L19.3535 47.8494C19.3535 47.9143 19.3187 47.9745 19.2631 48.007C19.2353 48.0209 19.2028 48.0278 19.1727 48.0278ZM7.85394 40.5878L18.5448 46.7604L18.5796 34.4777L7.88869 28.3051L7.85394 40.5878Z" fill="#032368"/>
<path d="M52.3555 15.1072L50.7197 16.0572L26.1057 40.6295L26.1033 41.8969L52.3625 15.6795L52.3648 15.1582C52.3625 15.1396 52.3578 15.1234 52.3555 15.1072ZM26.0547 58.8994L52.3138 32.6774L52.3184 31.4099L26.0593 57.632L26.0547 58.8994ZM44.9294 48.5051L52.2906 41.1717L52.2953 39.9066L41.9126 50.2591L44.9294 48.5051ZM34.8085 54.3835L52.3022 36.9268L52.3069 35.6594L31.7917 56.1375L34.8085 54.3835ZM31.896 26.375L26.1335 32.1282L26.1265 33.398L34.9267 24.614L31.896 26.375ZM26.0779 50.3982L52.337 24.1761L52.3416 22.9087L26.0825 49.1307L26.0779 50.3982ZM26.0894 46.1487L52.3486 19.9266L52.3532 18.6592L26.0941 44.8789L26.0894 46.1487ZM42.0609 20.4665L26.1172 36.3777L26.1149 37.6474L45.0939 18.7056L42.0609 20.4665ZM26.0663 54.6499L52.3254 28.4279L52.33 27.1582L26.0709 53.3825L26.0663 54.6499Z" fill="#032368"/>
<path d="M12.1584 43.4841L12.9532 43.9544L18.9242 37.9903L18.9405 36.709L12.1584 43.4841ZM15.6224 45.53L18.8709 42.2861L18.8872 41.0048L14.8277 45.0596L15.6224 45.53ZM18.287 47.1056L18.813 46.5819L18.8292 45.3006L17.4923 46.6352L18.287 47.1056ZM14.9389 36.468L9.49152 41.9061L10.2886 42.3765L17.7425 34.9341L14.9389 36.468ZM7.62166 40.8032L8.35153 40.0757L7.33203 40.6341L7.62166 40.8032Z" fill="#032368"/>
</svg>
