<svg width="47" height="60" viewBox="0 0 47 60" fill="none" xmlns="http://www.w3.org/2000/svg">
<path d="M37.5407 25.59C37.4807 25.59 37.4307 25.58 37.3807 25.55C37.2807 25.49 37.2207 25.39 37.2207 25.28L37.2507 15.66C37.2507 15.55 37.3107 15.44 37.4107 15.39C37.4607 15.36 37.5107 15.35 37.5707 15.35C37.6207 15.35 37.6807 15.36 37.7307 15.39L46.0207 20.17C46.1207 20.23 46.1807 20.33 46.1807 20.44C46.1807 20.55 46.1207 20.66 46.0207 20.71L37.7107 25.54C37.6507 25.57 37.5907 25.59 37.5407 25.59ZM37.8607 24.72L45.2307 20.44L37.8907 16.2L37.8607 24.72Z" fill="#032368"/>
<path d="M23.0404 10.34C22.9804 10.34 22.9304 10.33 22.8804 10.3L14.5604 5.5C14.4604 5.44 14.4004 5.34 14.4004 5.23C14.4004 5.12 14.4604 5.01 14.5604 4.96L23.0004 0.04C23.0404 0.02 23.1004 0 23.1504 0C23.2104 0 23.2604 0.01 23.3104 0.04L31.6304 4.84C31.7304 4.9 31.7904 5 31.7904 5.11C31.7904 5.22 31.7304 5.33 31.6304 5.38L23.2004 10.28C23.1504 10.32 23.1004 10.34 23.0404 10.34ZM15.3504 5.22L23.0404 9.66L30.8504 5.12L23.1604 0.68L15.3504 5.22Z" fill="#032368"/>
<path d="M31.4509 14.71C31.3909 14.71 31.3409 14.7 31.2909 14.67C31.1909 14.61 31.1309 14.51 31.1309 14.4L31.1509 7.31C31.1509 7.2 31.2109 7.09 31.3109 7.04C31.3609 7.01 31.4109 7 31.4709 7C31.5309 7 31.5809 7.01 31.6309 7.04L37.7409 10.57C37.8409 10.63 37.9009 10.73 37.9009 10.84C37.9009 10.95 37.8409 11.06 37.7409 11.11L31.6109 14.67C31.5609 14.7 31.5109 14.71 31.4509 14.71ZM31.7709 13.85L36.9609 10.84L31.7909 7.86L31.7709 13.85Z" fill="#032368"/>
<path d="M14.6905 14.82C14.6305 14.82 14.5805 14.81 14.5305 14.78L8.47055 11.28C8.37055 11.22 8.31055 11.12 8.31055 11.01C8.31055 10.9 8.37055 10.79 8.47055 10.74L14.5505 7.20998C14.6005 7.17998 14.6505 7.16998 14.7105 7.16998C14.7705 7.16998 14.8205 7.17998 14.8705 7.20998C14.9705 7.26998 15.0305 7.36998 15.0305 7.47998L15.0105 14.51C15.0105 14.62 14.9505 14.73 14.8505 14.78C14.8105 14.8 14.7505 14.82 14.6905 14.82ZM9.26055 11L14.3805 13.95L14.4005 8.00998L9.26055 11Z" fill="#032368"/>
<path d="M8.59031 25.76C8.53031 25.76 8.48031 25.75 8.43031 25.72L0.230312 20.98C0.130312 20.92 0.0703125 20.82 0.0703125 20.71C0.0703125 20.6 0.130312 20.49 0.230312 20.44L8.46031 15.66C8.51031 15.63 8.56031 15.62 8.62031 15.62C8.68031 15.62 8.73031 15.63 8.78031 15.66C8.88031 15.72 8.94031 15.82 8.94031 15.94L8.91031 25.46C8.91031 25.57 8.85031 25.68 8.75031 25.73C8.71031 25.74 8.65031 25.76 8.59031 25.76ZM1.02031 20.71L8.28031 24.9L8.31031 16.47L1.02031 20.71Z" fill="#032368"/>
<path d="M7.40086 43.73L15.7609 37.49V36.76L6.63086 43.43L7.40086 43.73Z" fill="#032368"/>
<path d="M22.8901 60C22.8401 60 22.7801 59.98 22.7301 59.96C22.6401 59.91 22.5801 59.8 22.5801 59.69L22.7001 19.31C22.7001 19.3 22.7001 19.29 22.7001 19.28V19.26L22.7301 10.03C22.7301 9.92001 22.7901 9.81001 22.8901 9.76001L31.3201 4.86001C31.3701 4.83001 31.4201 4.82001 31.4801 4.82001C31.5401 4.82001 31.5901 4.83001 31.6401 4.86001C31.7401 4.92001 31.8001 5.02001 31.8001 5.14001L31.7701 13.87L37.4301 10.58C37.4801 10.55 37.5301 10.54 37.5901 10.54C37.6401 10.54 37.7001 10.55 37.7401 10.58C37.8401 10.64 37.9001 10.74 37.9001 10.85L37.8601 24.74L45.7001 20.18C45.7501 20.15 45.8001 20.14 45.8601 20.14C45.9101 20.14 45.9701 20.15 46.0201 20.18C46.1201 20.24 46.1801 20.34 46.1801 20.45L46.1001 46.39C46.1001 46.5 46.0401 46.61 45.9501 46.66L23.0601 59.96C23.0001 59.99 22.9501 60 22.8901 60ZM23.3601 10.2L23.3301 19.3C23.3301 19.31 23.3301 19.32 23.3301 19.33V19.38L23.2901 33.74V33.76V33.78L23.2201 59.13L45.4601 46.2L45.5301 20.99L37.6901 25.55C37.6401 25.58 37.5901 25.59 37.5301 25.59C37.4701 25.59 37.4201 25.58 37.3701 25.55C37.2701 25.49 37.2101 25.39 37.2101 25.28L37.2501 11.39L31.5901 14.68C31.5401 14.71 31.4901 14.72 31.4301 14.72C31.3701 14.72 31.3201 14.71 31.2701 14.68C31.1701 14.62 31.1101 14.52 31.1101 14.41L31.1401 5.68001L23.3601 10.2Z" fill="#032368"/>
<path d="M22.89 60C22.84 60 22.78 59.98 22.73 59.96L0.16 46.92C0.06 46.87 0 46.76 0 46.65L0.07 20.71C0.07 20.6 0.13 20.49 0.23 20.44C0.28 20.41 0.33 20.4 0.39 20.4C0.45 20.4 0.5 20.41 0.55 20.44L8.28 24.91L8.32 11C8.32 10.89 8.38 10.78 8.48 10.73C8.53 10.7 8.58 10.69 8.64 10.69C8.7 10.69 8.75 10.7 8.8 10.73L14.39 13.96L14.42 5.21997C14.42 5.10997 14.48 4.99997 14.58 4.94997C14.63 4.91997 14.68 4.90997 14.74 4.90997C14.8 4.90997 14.85 4.91997 14.9 4.94997L23.22 9.74997C23.32 9.80997 23.38 9.90997 23.38 10.02L23.35 19.58C23.35 19.6 23.35 19.61 23.35 19.62V19.64L23.3 35.82V35.86L23.23 59.68C23.23 59.79 23.17 59.9 23.07 59.95C23 59.99 22.95 60 22.89 60ZM0.63 46.47L22.58 59.14L22.65 35.82V35.8V35.78L22.7 19.58C22.7 19.56 22.7 19.55 22.7 19.54V19.52L22.73 10.2L15.04 5.75997L15.01 14.5C15.01 14.61 14.95 14.72 14.85 14.77C14.8 14.8 14.75 14.81 14.69 14.81C14.63 14.81 14.58 14.8 14.53 14.77L8.94 11.54L8.9 25.44C8.9 25.55 8.84 25.66 8.74 25.71C8.7 25.74 8.64 25.75 8.59 25.75C8.53 25.75 8.48 25.74 8.43 25.71L0.7 21.25L0.63 46.47Z" fill="#032368"/>
<path d="M15.7598 48.97C15.7098 48.97 15.6498 48.95 15.5998 48.93L6.66977 43.62C6.56977 43.56 6.50977 43.46 6.50977 43.35L6.55977 32.01C6.55977 31.9 6.61977 31.79 6.71977 31.74C6.76977 31.71 6.81977 31.7 6.87977 31.7C6.93977 31.7 6.98977 31.71 7.03977 31.74L15.9498 36.49C16.0498 36.55 16.1098 36.65 16.1098 36.76L16.0898 48.66C16.0898 48.77 16.0298 48.88 15.9298 48.93C15.8798 48.96 15.8198 48.97 15.7598 48.97ZM7.14977 43.17L15.4598 48.11L15.4798 36.94L7.19977 32.55L7.14977 43.17Z" fill="#032368"/>
<path d="M23.2305 57.33L45.4705 35.09V36.31L23.2305 58.55V57.33ZM45.4705 39.18V40.4L31.6405 54.21L28.7405 55.9L45.4705 39.18ZM23.2405 53.25L45.4905 31V32.22L23.2405 54.47V53.25ZM23.2605 49.16L45.5005 26.92V28.14L23.2505 50.38L23.2605 49.16ZM45.4505 43.26V44.48L41.3705 48.56L38.4705 50.25L45.4505 43.26ZM23.2705 45.08L45.5205 22.84V24.06L23.2605 46.29L23.2705 45.08ZM23.2805 40.99L40.1005 24.17L43.0005 22.48L23.2805 42.21V40.99ZM23.2905 36.9L37.2105 22.98V24.2L23.2905 38.12V36.9ZM23.3105 32.82L37.2205 18.9V20.12L23.3005 34.04L23.3105 32.82ZM23.3205 28.73L37.2405 14.81V16.03L23.3105 29.95L23.3205 28.73ZM23.3305 24.64L35.6005 12.37L37.2505 11.41V11.94L23.3205 25.86L23.3305 24.64ZM23.3405 20.56L31.1205 12.78V14L23.3405 21.78V20.56ZM23.3605 16.47L31.1305 8.69001V9.91001L23.3505 17.68L23.3605 16.47ZM23.3705 12.38L28.5305 7.22001L31.1405 5.70001V5.82001L23.3605 13.59L23.3705 12.38Z" fill="#032368"/>
<path d="M12.3692 46.65L15.6092 43.41L15.6192 42.18L11.6192 46.18L12.3692 46.65ZM14.8792 48.21L15.5592 47.53L15.5692 46.3L14.1192 47.75L14.8792 48.21ZM9.09922 44.62L9.84922 45.09L15.6392 39.3L15.6492 38.07L9.09922 44.62ZM7.33922 43.53L8.02922 42.84L7.19922 43.45L7.33922 43.53Z" fill="#032368"/>
</svg>
