<svg width="60" height="60" viewBox="0 0 60 60" fill="none" xmlns="http://www.w3.org/2000/svg">
<path d="M0.269427 18.26C0.159427 18.26 0.0594272 18.19 0.0194272 18.09C-0.0305728 17.96 0.0194272 17.82 0.129427 17.75L22.5194 4.74C22.5394 4.73 22.5594 4.72 22.5894 4.71L40.8994 0.01C40.9194 0 40.9394 0 40.9694 0C41.0794 0 41.1794 0.07 41.2194 0.17C41.2694 0.3 41.2194 0.44 41.0994 0.51L18.7194 13.51C18.6994 13.52 18.6694 13.53 18.6494 13.54L0.339427 18.25C0.319427 18.25 0.299427 18.26 0.269427 18.26ZM22.7594 5.23L4.37943 15.91L4.64943 16.58L18.4794 13.03L36.8594 2.34L36.5894 1.67L22.7594 5.23Z" fill="white"/>
<path d="M29.7596 60C29.6996 60 29.6296 59.98 29.5896 59.94C29.4996 59.87 29.4696 59.75 29.5096 59.64L36.5596 38.99C36.5796 38.93 36.6196 38.87 36.6796 38.84L59.0596 25.84C59.0996 25.82 59.1496 25.8 59.1996 25.8C59.2596 25.8 59.3196 25.82 59.3696 25.86C59.4596 25.93 59.4896 26.05 59.4496 26.16L52.3996 46.81C52.3796 46.87 52.3396 46.92 52.2796 46.96L29.8996 59.96C29.8596 59.99 29.8096 60 29.7596 60ZM37.0296 39.26L30.2496 59.13L51.9096 46.54L58.6896 26.67L37.0296 39.26Z" fill="white"/>
<path d="M36.8101 39.35C36.7201 39.35 36.6401 39.31 36.5901 39.24L18.3701 13.44C18.3301 13.38 18.3101 13.3 18.3301 13.23C18.3501 13.16 18.3901 13.09 18.4601 13.05L40.8401 0.05C40.8701 0.01 40.9201 0 40.9701 0C41.0601 0 41.1401 0.04 41.1901 0.12L59.4101 25.92C59.4601 25.98 59.4701 26.06 59.4501 26.14C59.4301 26.22 59.3901 26.28 59.3201 26.32L36.9501 39.31C36.9001 39.34 36.8601 39.35 36.8101 39.35ZM18.9801 13.36L36.8901 38.71L58.8001 25.98L40.8901 0.63L18.9801 13.36Z" fill="white"/>
<path d="M12.87 41.54H13.54L13.42 41.37L25.04 34.62C24.92 34.48 24.83 34.32 24.76 34.15L12.9 40.85C12.83 40.89 12.77 41.15 12.75 41.23C12.73 41.3 12.75 41.38 12.79 41.44L12.87 41.54Z" fill="white"/>
<path d="M35.9802 37.28L53.9602 19.3L54.4102 19.94L36.4302 37.91L35.9802 37.28ZM55.6102 21.63L56.0602 22.26L43.6402 34.69L41.0502 36.2L55.6102 21.63ZM34.3302 34.94L52.3102 16.96L52.7602 17.6L34.7802 35.58L34.3302 34.94ZM32.6802 32.61L50.6602 14.63L51.1102 15.27L33.1302 33.24L32.6802 32.61ZM31.0302 30.27L49.0102 12.29L49.4602 12.93L31.4802 30.91L31.0302 30.27ZM57.2602 23.97L57.7102 24.61L53.1502 29.17L50.5602 30.67L57.2602 23.97ZM29.3802 27.94L47.3602 9.96L47.8102 10.6L29.8302 28.57L29.3802 27.94ZM27.7302 25.6L45.7102 7.62L46.1602 8.26L28.1802 26.24L27.7302 25.6ZM26.0802 23.26L44.0602 5.29L44.5102 5.93L26.5302 23.9L26.0802 23.26ZM24.4402 20.93L42.4102 2.95L42.8602 3.59L24.8902 21.57L24.4402 20.93ZM22.7902 18.6L40.3102 1.07L40.8702 0.75L41.2202 1.25L23.2402 19.23L22.7902 18.6ZM21.1402 16.26L30.8002 6.6L33.3902 5.09L21.5902 16.89L21.1402 16.26ZM19.4902 13.92L21.2802 12.13L23.8802 10.62L19.9402 14.56L19.4902 13.92Z" fill="white"/>
<path d="M29.7601 60C29.7101 60 29.6701 59.99 29.6301 59.96L7.04015 46.93C6.98015 46.89 6.93015 46.83 6.91015 46.76L0.010148 18.05C-0.019852 17.9 0.060148 17.76 0.210148 17.72L18.5201 13.01C18.5401 13 18.5601 13 18.5901 13C18.6801 13 18.7601 13.04 18.8101 13.11L37.0301 38.91C37.0801 38.98 37.0901 39.07 37.0602 39.15L30.0101 59.8C29.9801 59.88 29.9201 59.94 29.8501 59.97C29.8301 59.99 29.7901 60 29.7601 60ZM0.600148 18.18L7.42015 46.51L29.6101 59.32L36.5101 39.11L18.4701 13.59L0.600148 18.18Z" fill="white"/>
<path d="M27.6394 37.57L18.8194 25.09C18.7494 24.99 18.6294 24.93 18.4894 24.97L9.62941 27.25C9.45941 27.29 9.35941 27.46 9.39941 27.63L12.7394 41.52C12.7594 41.6 12.8094 41.68 12.8894 41.72L23.8194 48.03C23.8694 48.06 23.9194 48.07 23.9794 48.07C24.0194 48.07 24.0494 48.06 24.0894 48.05C24.1794 48.02 24.2494 47.95 24.2794 47.86L27.6894 37.87C27.7094 37.75 27.6894 37.65 27.6394 37.57ZM13.3194 41.23L10.0794 27.77L18.4294 25.62L27.0294 37.8L23.7894 47.28L13.3194 41.23Z" fill="white"/>
<path d="M20.439 36.71L14.669 42.48L15.379 42.85L22.919 35.31L20.439 36.71ZM25.739 35.39L17.269 43.86L17.979 44.23L26.159 36.05L25.739 35.39ZM12.959 41.29L13.829 40.42L13.109 40.82L12.959 41.29ZM23.219 46.97L24.869 45.32L25.379 43.73L22.509 46.6L23.219 46.97ZM19.889 45.22L20.599 45.59L26.729 39.46L27.239 37.87L19.889 45.22Z" fill="white"/>
</svg>
