<svg width="48" height="35" viewBox="0 0 48 35" fill="none" xmlns="http://www.w3.org/2000/svg">
<g clip-path="url(#clip0_1864_9263)">
<path d="M16.5105 22.9357V34.7831H13.6096V28.4663C12.7692 28.2223 11.983 27.8699 11.2781 27.4361L6.8048 31.9094L2.79241 27.897L7.34702 23.3153C6.96747 22.6104 6.66925 21.8513 6.45236 21.038H0V15.3718H6.58792C6.83191 14.6127 7.13013 13.8807 7.50968 13.2301L2.87374 8.567L6.88613 4.55461L11.5763 9.24477C12.2541 8.86522 12.9589 8.59411 13.718 8.37723V1.7622H16.4833V13.6096C13.9078 13.6096 11.8203 15.6971 11.8203 18.2727C11.8203 20.8482 13.9349 22.9357 16.5105 22.9357ZM31.6112 7.99768L29.7947 9.62432L31.2316 11.2239L33.0209 9.65143C33.292 9.84121 33.5631 9.97676 33.8885 10.0852L33.7529 12.471L34.8373 12.5252L35.1084 8.0519C34.1325 7.99768 33.4005 7.15724 33.4547 6.18125C33.5089 5.20527 34.3493 4.47328 35.3253 4.5275L35.5964 0.0542215L34.512 0L34.3493 2.49419C34.0511 2.54841 33.78 2.65686 33.5089 2.7653L31.828 0.894655L30.2285 2.33153L31.8823 4.20217C31.7196 4.44617 31.584 4.71727 31.4756 4.98838L28.9814 4.82572L28.8459 6.96747L31.2858 7.10302C31.3943 7.42835 31.5027 7.72657 31.6112 7.99768ZM38.2533 28.629C36.9791 28.141 36.3284 26.7312 36.8164 25.457C37.3044 24.1828 38.7142 23.5321 39.9884 24.0201L42.1844 18.1371L40.8017 17.622L39.5817 20.8753C39.1751 20.8482 38.7684 20.8482 38.3617 20.9024L36.8978 17.7033L34.1596 18.9504L35.5964 22.1224C35.2711 22.3935 35 22.6917 34.7289 23.017L31.4485 21.7971L30.3912 24.6166L33.5902 25.8095C33.536 26.2432 33.5631 26.677 33.6173 27.1108L30.4996 28.5205L31.7467 31.2587L34.7831 29.8761C35.0542 30.2285 35.3795 30.5538 35.7591 30.8249L34.5933 33.9698L37.4129 35.0271L36.0302 34.512L38.2533 28.629Z" fill="#9CC8ED"/>
<path d="M25.7003 23.5592L30.1194 27.9783L26.107 31.9907L21.6879 27.5716C20.9288 28.0054 20.1155 28.3307 19.2751 28.5476V34.756H16.5098V22.9357C19.0853 22.9357 21.1728 20.8482 21.1728 18.2726C21.1728 15.6971 19.0853 13.6096 16.5098 13.6096V1.76218H19.4106V8.35009C20.1968 8.56698 20.9288 8.8652 21.6066 9.24475L26.2154 4.63592L30.2278 8.64831L25.6732 13.2029C26.0799 13.9078 26.4052 14.694 26.6492 15.4802H32.9931V21.1464H26.7034C26.4594 22.0139 26.1341 22.8272 25.7003 23.5592ZM35.2975 4.52748C36.2735 4.5817 37.0055 5.42213 36.9513 6.39812C36.8971 7.37411 36.0566 8.1061 35.0806 8.05188L34.8095 12.5252L35.8669 12.5794L36.0024 10.2207C36.3277 10.1665 36.6531 10.0581 36.9513 9.89541L38.5237 11.6576L40.1232 10.2207L38.5508 8.45854C38.7135 8.18743 38.8761 7.88921 38.9846 7.59099L41.3703 7.72655L41.5059 5.5848L39.093 5.44924C39.0117 5.15102 38.9033 4.85281 38.7677 4.55459L40.5841 2.92794L39.1744 1.35552L37.3308 2.98216C37.0868 2.8195 36.8157 2.68394 36.5175 2.60261L36.6531 0.108421L35.5686 0.0541992L35.2975 4.52748ZM43.6476 29.632L46.7654 30.7978L47.8227 27.9783L44.6779 26.7854C44.705 26.3516 44.6779 25.8908 44.6236 25.457L47.7414 24.0472L46.4943 21.309L43.3494 22.773C43.0783 22.4477 42.7801 22.1766 42.4277 21.9326L43.6476 18.6793L42.2108 18.1371L40.0148 24.0201C41.289 24.5081 41.9397 25.9179 41.4517 27.1921C40.9637 28.4663 39.5539 29.1169 38.2797 28.6289L36.0837 34.512L37.4664 35.0271L38.6322 31.9365C39.093 31.9907 39.5539 31.9636 40.0148 31.9094L41.3975 34.9186L44.1356 33.6716L42.7801 30.6623C43.0512 30.364 43.3765 30.0116 43.6476 29.632Z" fill="#0E3B65"/>
<path d="M16.5107 13.6096C19.0862 13.6096 21.1738 15.6971 21.1738 18.2726C21.1738 20.8482 19.0862 22.9357 16.5107 22.9357C13.9352 22.9357 11.8477 20.8482 11.8477 18.2726C11.8477 15.6971 13.9352 13.6096 16.5107 13.6096ZM36.9522 6.39813C37.0064 5.42214 36.2745 4.58171 35.2985 4.52749C34.3225 4.47326 33.482 5.20525 33.4278 6.18124C33.3736 7.15723 34.1056 7.99766 35.0816 8.05189C36.0576 8.10611 36.898 7.37412 36.9522 6.39813ZM36.8167 25.4299C36.3287 26.7041 36.9793 28.141 38.2535 28.6018C39.5278 29.0898 40.9646 28.4392 41.4255 27.165C41.9135 25.8908 41.2628 24.4539 39.9886 23.993C38.7144 23.505 37.3047 24.1557 36.8167 25.4299Z" fill="#237EC8"/>
</g>
<defs>
<clipPath id="clip0_1864_9263">
<rect width="47.8234" height="35" fill="white"/>
</clipPath>
</defs>
</svg>
