<svg width="49" height="48" viewBox="0 0 49 48" fill="none" xmlns="http://www.w3.org/2000/svg">
<path d="M24.0544 47.7704C37.1818 47.7704 47.8236 37.1285 47.8236 24.0012C47.8236 10.8738 37.1818 0.231934 24.0544 0.231934C10.927 0.231934 0.285156 10.8738 0.285156 24.0012C0.285156 37.1285 10.927 47.7704 24.0544 47.7704Z" fill="#050038"/>
<path d="M46.7242 30.6277C47.7464 27.1008 47.9354 23.3847 47.2764 19.7723C46.6175 16.1599 45.1285 12.7499 42.9269 9.81103C40.7253 6.87219 37.8713 4.48484 34.5897 2.83713C31.3081 1.18941 27.6887 0.326366 24.0167 0.316012C20.3447 0.305658 16.7204 1.14828 13.4296 2.77746C10.1388 4.40664 7.27132 6.77786 5.05319 9.70424C2.83507 12.6306 1.32691 16.0322 0.647582 19.6408C-0.0317453 23.2494 0.136325 26.9665 1.13855 30.4991L23.9496 24.0265L46.7242 30.6277Z" fill="#0077C0"/>
<path d="M23.9503 41.8811C33.8112 41.8811 41.8049 33.8873 41.8049 24.0265C41.8049 14.1657 33.8112 6.17188 23.9503 6.17188C14.0895 6.17188 6.0957 14.1657 6.0957 24.0265C6.0957 33.8873 14.0895 41.8811 23.9503 41.8811Z" fill="white" stroke="white" stroke-width="0.194973"/>
<path d="M12.313 20.8501C13.2864 18.8997 14.2617 16.9504 15.2389 15.0024C16.2003 16.952 17.1693 18.8969 18.1235 20.8501C17.8494 20.852 17.5759 20.8529 17.3024 20.8557C16.9833 20.2757 16.7024 19.6757 16.396 19.0887C15.6171 19.0794 14.8371 19.0822 14.0583 19.0868C13.7546 19.6751 13.4629 20.2686 13.1564 20.8547C12.8747 20.8529 12.5941 20.852 12.3125 20.8501H12.313ZM15.2322 16.7655C14.9553 17.2977 14.68 17.8307 14.4167 18.3703C14.9608 18.374 15.5038 18.3721 16.048 18.3721C15.7736 17.8372 15.5204 17.2933 15.2322 16.7657V16.7655ZM32.6571 15.0131C33.6264 16.9544 34.5872 18.9006 35.5397 20.8515C35.2644 20.8534 34.9892 20.8534 34.714 20.8515C34.4075 20.2681 34.114 19.6781 33.8177 19.0901C33.0361 19.0808 32.2542 19.0845 31.4735 19.0882C31.1781 19.679 30.8864 20.2709 30.5781 20.8552C30.2966 20.8543 30.0153 20.8531 29.7342 20.8515C30.6928 18.896 31.6865 16.9603 32.6571 15.0133V15.0131ZM32.6497 16.7669C32.362 17.2947 32.1157 17.8409 31.8312 18.3703C32.3772 18.374 32.9234 18.374 33.4697 18.3703C33.1927 17.8363 32.9361 17.2947 32.6497 16.7667V16.7669ZM20.878 16.2707C22.1101 14.7643 24.7798 14.8238 25.9147 16.4175C25.7156 16.5615 25.5176 16.7076 25.3231 16.8587C24.5442 15.7827 22.8725 15.5863 21.8414 16.4064C21.5011 16.6725 21.2494 17.0354 21.1193 17.4473C20.9893 17.8592 20.987 18.3009 21.1129 18.7141C21.2346 19.0988 21.4599 19.4426 21.7639 19.7078C22.068 19.973 22.4391 20.1494 22.8367 20.2178C23.2908 20.3123 23.7619 20.282 24.2001 20.1299C24.6382 19.9779 25.027 19.7099 25.3249 19.3545C25.5213 19.505 25.7204 19.6517 25.9194 19.7985C25.4681 20.3517 24.841 20.7337 24.1424 20.8811C23.1021 21.083 21.9114 20.9214 21.1249 20.1562C20.0671 19.1819 19.9249 17.3639 20.8782 16.271L20.878 16.2707ZM18.5608 15.287C18.8147 15.287 19.0708 15.287 19.3267 15.2842C19.3304 17.1402 19.3304 18.9965 19.3267 20.8531C19.0729 20.8531 18.8191 20.8531 18.5652 20.8559C18.5551 18.9998 18.5624 17.1431 18.5606 15.287H18.5608ZM26.9013 15.2851C27.682 15.3015 28.4673 15.2447 29.2454 15.3366C29.6239 15.366 29.9798 15.5278 30.2509 15.7935C30.928 16.4348 30.7464 17.7366 29.8766 18.1211C29.1783 18.4155 28.3967 18.3375 27.6573 18.3671C27.6582 19.1964 27.6582 20.0255 27.6573 20.8543C27.4041 20.8543 27.1508 20.8543 26.8976 20.8543C26.9004 18.9982 26.8939 17.1424 26.9013 15.2865V15.2851ZM27.6573 16.0054C27.6573 16.5523 27.6573 17.0981 27.6591 17.6438C28.1697 17.6655 28.6811 17.6496 29.1894 17.5961C29.3794 17.5738 29.5546 17.4824 29.6814 17.3392C29.8083 17.1959 29.8779 17.011 29.877 16.8197C29.8761 16.6284 29.8047 16.4441 29.6765 16.3021C29.5482 16.1601 29.3722 16.0703 29.182 16.0499C28.6753 16.0001 28.1658 15.9846 27.6571 16.0037L27.6573 16.0054Z" fill="#0077C0"/>
<path d="M32.8821 25.8066C33.2462 25.5354 33.6613 25.3404 34.1025 25.2334C34.5437 25.1263 35.002 25.1094 35.4499 25.1836C35.7563 25.2295 36.0471 25.3486 36.2977 25.5308C36.5483 25.7131 36.7512 25.953 36.8894 26.2303C37.0423 26.6153 37.0986 27.0318 37.0533 27.4436C37.0081 27.8553 36.8626 28.2497 36.6298 28.5922C36.0711 29.4382 35.3022 30.1153 34.5399 30.773C35.4335 30.7804 36.327 30.7758 37.2208 30.7767C37.2245 31.1263 37.2236 31.4757 37.2236 31.8253C35.7328 31.8272 34.2426 31.8272 32.7529 31.8253C32.7529 31.5731 32.7529 31.3216 32.7529 31.0702C33.6106 30.2395 34.5575 29.4867 35.2895 28.5364C35.5861 28.1891 35.7732 27.7616 35.8269 27.308C35.8478 27.0805 35.7937 26.8523 35.6729 26.6584C35.5521 26.4645 35.3712 26.3153 35.1577 26.2338C34.4806 26.0016 33.7844 26.3201 33.2356 26.7071C33.1202 26.4052 32.988 26.1108 32.8816 25.8052L32.8821 25.8066ZM11.6792 26.4936C11.9031 25.8138 12.5792 25.3899 13.2572 25.2652C14.1023 25.1129 15.0803 25.2258 15.7189 25.8535C15.4553 26.1422 15.1837 26.423 14.9176 26.7101C14.4159 26.1588 13.4003 26.0009 12.8882 26.6102C12.7851 26.7612 12.7462 26.947 12.7799 27.1267C12.8137 27.3064 12.9174 27.4654 13.0682 27.5688C13.7361 27.9862 14.6012 28.0072 15.2096 28.5329C15.8142 29.0136 15.8666 29.9155 15.6095 30.5935C15.3462 31.3109 14.592 31.7062 13.869 31.7981C12.9801 31.9135 11.9645 31.6806 11.3809 30.9567C11.6599 30.6869 11.9294 30.4082 12.2204 30.1522C12.5269 30.4984 12.9397 30.8081 13.4269 30.7825C13.642 30.8072 13.8597 30.7674 14.0522 30.6683C14.2448 30.5692 14.4036 30.4151 14.5085 30.2256C14.5771 30.0599 14.5839 29.875 14.5277 29.7046C14.4715 29.5342 14.356 29.3897 14.2023 29.2972C13.5012 28.8853 12.5959 28.8622 12.0032 28.265C11.7964 28.0253 11.6575 27.7346 11.6007 27.4232C11.5439 27.1117 11.5713 26.7907 11.6802 26.4934L11.6792 26.4936ZM18.9946 25.2856C19.9526 25.1122 21.0185 25.1875 21.8396 25.7536C23.3982 26.7994 23.6075 29.2243 22.4626 30.6491C21.3319 31.9977 19.1352 32.2059 17.7305 31.172C17.0869 30.6878 16.6614 29.9683 16.5471 29.171C16.3854 28.2697 16.566 27.3405 17.0536 26.5654C17.5064 25.8997 18.2037 25.4397 18.9939 25.2856H18.9946ZM18.8176 26.4662C17.6012 27.0782 17.3534 28.8184 18.09 29.8901C18.4551 30.4901 19.1626 30.7799 19.8416 30.8166C20.398 30.795 20.9284 30.575 21.3369 30.1966C21.7423 29.7504 21.9743 29.1737 21.9909 28.5711C22.0076 27.9685 21.8077 27.3799 21.4276 26.912C21.0995 26.5652 20.6676 26.3342 20.197 26.2538C19.7263 26.1734 19.2423 26.2479 18.8176 26.4662ZM24.2527 26.7588C25.0417 25.3229 27.003 24.8349 28.4564 25.4752C28.8009 25.6578 29.1088 25.9022 29.3647 26.1964C29.0786 26.4175 28.7878 26.6349 28.4848 26.8322C28.1426 26.5377 27.7519 26.2349 27.2783 26.2322C26.8634 26.199 26.4481 26.2915 26.0864 26.4977C25.7248 26.7039 25.4336 27.0141 25.2508 27.3881C24.7431 28.4182 25.02 29.867 26.0315 30.488C26.3823 30.6878 26.7757 30.8013 27.1791 30.8192C27.4523 30.7886 27.7164 30.7029 27.9554 30.5673C28.1945 30.4317 28.4036 30.249 28.5699 30.0302C28.8895 30.2353 29.1948 30.4619 29.4838 30.7084C28.9791 31.4524 28.0581 31.8212 27.1809 31.8286C26.3101 31.8495 25.4632 31.5428 24.8077 30.9692C23.6769 29.9169 23.5306 28.0783 24.2539 26.7581L24.2527 26.7588Z" fill="#050038"/>
</svg>
